<svg width="36" height="24" viewBox="0 0 36 24" fill="none" xmlns="http://www.w3.org/2000/svg">
<g clip-path="url(#clip0_280_1581)">
<path d="M33.6165 0H3.30663C3.1804 0 3.05394 0 2.92793 0.000747416C2.8214 0.00151748 2.71514 0.00271788 2.60886 0.00566225C2.37709 0.0120266 2.14334 0.0259104 1.91446 0.0676751C1.68193 0.110165 1.46555 0.17947 1.25446 0.288594C1.04694 0.395745 0.856947 0.535897 0.6923 0.703137C0.527582 0.870377 0.389545 1.06296 0.284032 1.27389C0.176534 1.48822 0.108229 1.70798 0.0666708 1.94426C0.0253156 2.1767 0.0115497 2.41399 0.00530375 2.64906C0.00244843 2.75697 0.00122377 2.86487 0.000530019 2.97274C0 3.10096 0 3.22909 0 3.35753V20.6427C0 20.7712 0 20.8991 0.000530019 21.0275C0.00122377 21.1354 0.00244843 21.2433 0.00530375 21.3512C0.0115497 21.5861 0.0253156 21.8234 0.0666708 22.0557C0.108229 22.2921 0.176534 22.5118 0.284032 22.7262C0.389545 22.9371 0.527582 23.1299 0.6923 23.2969C0.856947 23.4644 1.04694 23.6046 1.25446 23.7114C1.46555 23.8208 1.68193 23.8902 1.91446 23.9326C2.14334 23.9742 2.37709 23.9883 2.60886 23.9946C2.71514 23.997 2.8214 23.9985 2.92793 23.999C3.05394 24 3.1804 24 3.30663 24H33.6165C33.7425 24 33.869 24 33.995 23.999C34.1012 23.9985 34.2075 23.997 34.3143 23.9946C34.5455 23.9883 34.7792 23.9742 35.0087 23.9326C35.2409 23.8902 35.4573 23.8208 35.6684 23.7114C35.8762 23.6046 36.0656 23.4644 36.2306 23.2969C36.3951 23.1299 36.5331 22.9371 36.6389 22.7262C36.7466 22.5118 36.8148 22.2921 36.8561 22.0557C36.8976 21.8234 36.911 21.5861 36.9173 21.3512C36.9202 21.2433 36.9216 21.1354 36.9221 21.0275C36.9231 20.8991 36.9231 20.7712 36.9231 20.6427V3.35753C36.9231 3.22909 36.9231 3.10096 36.9221 2.97274C36.9216 2.86487 36.9202 2.75697 36.9173 2.64906C36.911 2.41399 36.8976 2.1767 36.8561 1.94426C36.8148 1.70798 36.7466 1.48822 36.6389 1.27389C36.5331 1.06296 36.3951 0.870377 36.2306 0.703137C36.0656 0.535897 35.8762 0.395745 35.6684 0.288594C35.4573 0.17947 35.2409 0.110165 35.0087 0.0676751C34.7792 0.0259104 34.5455 0.0120266 34.3143 0.00566225C34.2075 0.00271788 34.1012 0.00151748 33.995 0.000747416C33.869 0 33.7425 0 33.6165 0Z" fill="black"/>
<path d="M33.9885 0.801506C34.0896 0.80223 34.1906 0.803341 34.2921 0.806149C34.4688 0.810996 34.6755 0.820712 34.8681 0.855773C35.0356 0.886395 35.176 0.932959 35.3108 1.00263C35.4438 1.07128 35.5658 1.16124 35.6722 1.26916C35.7791 1.37781 35.8678 1.50179 35.9363 1.63838C36.0045 1.77417 36.0501 1.91608 36.0801 2.08736C36.1145 2.28083 36.124 2.49123 36.1289 2.67172C36.1316 2.77359 36.133 2.87547 36.1335 2.97977C36.1344 3.1059 36.1344 3.23197 36.1344 3.35834V20.6435C36.1344 20.7699 36.1344 20.8957 36.1335 21.0246C36.133 21.1264 36.1316 21.2283 36.1288 21.3304C36.124 21.5106 36.1145 21.7209 36.0796 21.9166C36.0501 22.0856 36.0046 22.2275 35.9359 22.364C35.8676 22.5002 35.7791 22.6241 35.6727 22.732C35.5656 22.8407 35.4441 22.9305 35.3094 22.9997C35.1757 23.069 35.0355 23.1155 34.8697 23.1459C34.6731 23.1814 34.4578 23.1912 34.2956 23.1957C34.1936 23.198 34.0921 23.1994 33.988 23.1999C33.8641 23.2008 33.7396 23.2008 33.6157 23.2008H3.30584C3.17835 23.2008 3.05555 23.2008 2.93076 23.1999C2.82901 23.1994 2.72749 23.1981 2.62934 23.1958C2.46347 23.1912 2.248 23.1814 2.05307 23.1461C1.88583 23.1155 1.74563 23.069 1.61009 22.9988C1.47672 22.9301 1.35529 22.8406 1.2482 22.7316C1.14193 22.6239 1.05361 22.5004 0.985335 22.364C0.916982 22.2276 0.871252 22.0853 0.841184 21.9143C0.806428 21.719 0.796879 21.5095 0.792108 21.3305C0.789385 21.228 0.788247 21.1256 0.7876 21.0237L0.787109 20.7229V20.6435V3.35834V3.27894L0.787577 2.97882C0.788247 2.87633 0.789385 2.77387 0.792108 2.67147C0.796879 2.49229 0.806427 2.28275 0.841471 2.08574C0.871274 1.91636 0.916982 1.77398 0.985685 1.63698C1.05343 1.50157 1.14191 1.37795 1.24873 1.2695C1.35514 1.16142 1.47696 1.07157 1.61118 1.00226C1.74527 0.932941 1.88574 0.886395 2.05297 0.855841C2.24567 0.82069 2.45247 0.810996 2.62959 0.806127C2.73056 0.803341 2.83152 0.80223 2.93173 0.801529L3.30584 0.800781H33.6157L33.9885 0.801506Z" fill="white"/>
<path d="M10.0801 7.94942C10.3963 7.55398 10.6108 7.02303 10.5542 6.48047C10.0914 6.50348 9.52662 6.7858 9.19966 7.18154C8.90608 7.52043 8.64624 8.07361 8.71398 8.59342C9.23345 8.63848 9.7525 8.33375 10.0801 7.94942Z" fill="black"/>
<path d="M10.5471 8.69637C9.79271 8.65143 9.15124 9.12456 8.79095 9.12456C8.43046 9.12456 7.87874 8.71901 7.28201 8.72994C6.50532 8.74135 5.78465 9.1805 5.39051 9.87892C4.57985 11.2762 5.17658 13.3488 5.96491 14.4867C6.34774 15.0497 6.80912 15.6696 7.41705 15.6473C7.99145 15.6248 8.21659 15.2754 8.91479 15.2754C9.61252 15.2754 9.81532 15.6473 10.4234 15.6361C11.0539 15.6248 11.4481 15.0728 11.8309 14.5093C12.2701 13.8674 12.4499 13.2478 12.4611 13.2138C12.4499 13.2026 11.2453 12.7404 11.2341 11.3548C11.2227 10.1946 12.1799 9.64271 12.2249 9.60856C11.6844 8.80915 10.8399 8.71901 10.5471 8.69637Z" fill="black"/>
<path d="M17.1177 7.125C18.7574 7.125 19.8993 8.25533 19.8993 9.90099C19.8993 11.5526 18.734 12.6888 17.0766 12.6888H15.261V15.576H13.9492V7.125H17.1177ZM15.261 11.5876H16.7662C17.9082 11.5876 18.5582 10.9728 18.5582 9.9069C18.5582 8.84105 17.9082 8.23194 16.772 8.23194H15.261V11.5876Z" fill="black"/>
<path d="M20.2402 13.826C20.2402 12.7483 21.066 12.0866 22.5302 12.0046L24.2168 11.905V11.4307C24.2168 10.7454 23.7541 10.3355 22.9812 10.3355C22.2489 10.3355 21.7921 10.6868 21.681 11.2374H20.4862C20.5565 10.1246 21.5052 9.30469 23.0279 9.30469C24.5214 9.30469 25.4759 10.0953 25.4759 11.331V15.5771H24.2636V14.5638H24.2344C23.8772 15.2491 23.0982 15.6824 22.2901 15.6824C21.0836 15.6824 20.2402 14.9328 20.2402 13.826ZM24.2168 13.2697V12.7836L22.6999 12.8772C21.9444 12.93 21.5169 13.2638 21.5169 13.7908C21.5169 14.3295 21.962 14.6811 22.6413 14.6811C23.5256 14.6811 24.2168 14.0719 24.2168 13.2697Z" fill="black"/>
<path d="M26.6209 17.8436V16.8187C26.7144 16.8421 26.9252 16.8421 27.0307 16.8421C27.6163 16.8421 27.9326 16.5962 28.1258 15.9637C28.1258 15.952 28.2372 15.5889 28.2372 15.583L26.0117 9.41602H27.382L28.94 14.4292H28.9633L30.5213 9.41602H31.8566L29.5489 15.8992C29.0221 17.3927 28.4129 17.8729 27.1362 17.8729C27.0307 17.8729 26.7144 17.8612 26.6209 17.8436Z" fill="black"/>
</g>
<defs>
<clipPath id="clip0_280_1581">
<rect width="36" height="24" fill="white"/>
</clipPath>
</defs>
</svg>
