<svg width="157" height="52" viewBox="0 0 157 52" fill="none" xmlns="http://www.w3.org/2000/svg">
<g clip-path="url(#clip0_280_1344)">
<g clip-path="url(#clip1_280_1344)">
<g clip-path="url(#clip2_280_1344)">
<mask id="mask0_280_1344" style="mask-type:luminance" maskUnits="userSpaceOnUse" x="0" y="0" width="156" height="52">
<path d="M155.818 0H0.822266V51.8102H155.818V0Z" fill="white"/>
</mask>
<g mask="url(#mask0_280_1344)">
<path d="M143.475 0.000168383H13.1721C12.6971 0.000168383 12.2279 0.000168383 11.7541 0.00275889C11.3576 0.0053494 10.9642 0.0128748 10.5639 0.0192087C9.69413 0.0294435 8.82643 0.10596 7.96831 0.248093C7.11141 0.39332 6.28134 0.667116 5.50619 1.06022C4.73199 1.45665 4.02458 1.97176 3.40962 2.58689C2.79145 3.20027 2.27615 3.90927 1.88353 4.68661C1.48984 5.46239 1.21685 6.29373 1.074 7.1519C0.929786 8.00897 0.852185 8.87593 0.841889 9.745C0.829869 10.1421 0.828599 10.5406 0.822266 10.9377V40.8766C0.828599 41.2788 0.829869 41.6684 0.841889 42.0707C0.852187 42.9397 0.92979 43.8066 1.074 44.6637C1.21646 45.5223 1.48946 46.3541 1.88353 47.1302C2.27596 47.9051 2.79133 48.6111 3.40962 49.2212C4.02225 49.839 4.73012 50.3545 5.50619 50.7479C6.28133 51.142 7.11131 51.4174 7.96831 51.5649C8.82657 51.7058 9.69419 51.7824 10.5639 51.7939C10.9642 51.8027 11.3576 51.8078 11.7541 51.8078C12.2278 51.8104 12.6972 51.8104 13.1721 51.8104H143.475C143.94 51.8104 144.413 51.8104 144.879 51.8078C145.273 51.8078 145.678 51.8027 146.073 51.7939C146.941 51.783 147.807 51.7065 148.664 51.5649C149.523 51.4164 150.356 51.141 151.135 50.7479C151.91 50.3542 152.617 49.8387 153.23 49.2212C153.846 48.6088 154.363 47.9031 154.761 47.1302C155.152 46.3536 155.421 45.5218 155.563 44.6637C155.706 43.8065 155.787 42.9398 155.802 42.0707C155.807 41.6684 155.807 41.2788 155.807 40.8766C155.818 40.406 155.818 39.9381 155.818 39.4599V12.3519C155.818 11.8775 155.818 11.407 155.807 10.9377C155.807 10.5406 155.807 10.1421 155.802 9.74493C155.787 8.8758 155.706 8.00903 155.563 7.15184C155.421 6.29418 155.151 5.46291 154.761 4.68656C153.96 3.12846 152.694 1.86019 151.135 1.0601C150.356 0.667959 149.523 0.394237 148.664 0.247977C147.807 0.105217 146.941 0.028674 146.073 0.0190273C145.678 0.0127064 145.273 0.00511626 144.879 0.00259051C144.413 0 143.94 0.000168383 143.475 0.000168383Z" fill="black"/>
<path d="M11.7606 50.6763C11.3659 50.6763 10.9808 50.6712 10.5893 50.6624C9.77816 50.6518 8.96895 50.5812 8.16826 50.4512C7.42166 50.3226 6.69841 50.0835 6.02236 49.7415C5.35251 49.4024 4.74155 48.9579 4.21289 48.4248C3.67658 47.898 3.23008 47.2869 2.89107 46.6159C2.54833 45.9406 2.31113 45.2167 2.18775 44.4694C2.05449 43.6665 1.9824 42.8546 1.97209 42.0408C1.96388 41.7677 1.95312 40.8581 1.95312 40.8581V10.937C1.95312 10.937 1.96458 10.0415 1.97215 9.77838C1.98204 8.96584 2.0537 8.15523 2.18656 7.35357C2.31017 6.60429 2.54756 5.8783 2.89047 5.20073C3.22824 4.53019 3.67225 3.91872 4.20534 3.39003C4.73782 2.8563 5.35073 2.40942 6.02173 2.06567C6.69623 1.72486 7.41811 1.48736 8.1632 1.36113C8.96651 1.22974 9.77853 1.15871 10.5925 1.14863L11.7612 1.13281H144.873L146.055 1.14926C146.862 1.15885 147.667 1.22924 148.462 1.35986C149.214 1.48769 149.945 1.72684 150.626 2.06946C151.971 2.76223 153.065 3.85824 153.754 5.20389C154.092 5.87679 154.326 6.59686 154.447 7.33966C154.582 8.1479 154.657 8.96488 154.673 9.78408C154.677 10.1509 154.677 10.5449 154.677 10.937C154.687 11.4228 154.687 11.8851 154.687 12.3512V39.4591C154.687 39.9297 154.687 40.3889 154.677 40.8518C154.677 41.273 154.677 41.6589 154.671 42.056C154.657 42.8606 154.582 43.663 154.45 44.4567C154.329 45.2094 154.094 45.9389 153.75 46.6198C153.41 47.2835 152.966 47.8893 152.436 48.4146C151.906 48.9506 151.295 49.3978 150.622 49.7391C149.942 50.0836 149.214 50.3236 148.462 50.4512C147.661 50.582 146.852 50.6526 146.041 50.6624C145.662 50.6712 145.265 50.6763 144.879 50.6763L143.475 50.6789L11.7606 50.6763Z" fill="white"/>
<path d="M33.2005 25.765C33.215 24.6409 33.5136 23.5385 34.0686 22.5607C34.6235 21.5829 35.4168 20.7613 36.3747 20.1725C35.7661 19.3035 34.9635 18.5884 34.0302 18.0839C33.0971 17.5794 32.0591 17.2995 30.9988 17.2663C28.7369 17.0289 26.5442 18.6198 25.3917 18.6198C24.2167 18.6198 22.4421 17.2899 20.5312 17.3292C19.2952 17.3691 18.0906 17.7285 17.0347 18.3725C15.9789 19.0164 15.1079 19.9228 14.5065 21.0034C11.9016 25.5135 13.8446 32.1418 16.3399 35.7874C17.5884 37.5726 19.0475 39.5666 20.9567 39.496C22.825 39.4184 23.5228 38.3046 25.7779 38.3046C28.0122 38.3046 28.6669 39.496 30.6148 39.4509C32.6196 39.4184 33.8826 37.6579 35.0873 35.8558C35.9843 34.5839 36.6746 33.178 37.1325 31.6904C35.9678 31.1978 34.9738 30.3733 34.2747 29.3196C33.5755 28.2659 33.2018 27.0297 33.2005 25.765Z" fill="black"/>
<path d="M29.5213 14.8676C30.6144 13.5554 31.1529 11.8689 31.0225 10.166C29.3525 10.3414 27.8099 11.1396 26.702 12.4014C26.1605 13.0179 25.7456 13.7349 25.4813 14.5118C25.2169 15.2887 25.1084 16.1101 25.1616 16.9289C25.9969 16.9376 26.8233 16.7565 27.5784 16.3994C28.3336 16.0424 28.9979 15.5186 29.5213 14.8676Z" fill="black"/>
<path d="M55.6142 35.155H49.4832L48.0109 39.5024H45.4141L51.2212 23.418H53.9192L59.7264 39.5024H57.0852L55.6142 35.155ZM50.1182 33.1488H54.978L52.5823 26.0933H52.5152L50.1182 33.1488Z" fill="black"/>
<path d="M72.2672 33.6374C72.2672 37.2815 70.3166 39.6228 67.3732 39.6228C66.6276 39.6619 65.8861 39.49 65.2335 39.1272C64.581 38.7644 64.0438 38.2251 63.6835 37.5711H63.6278V43.3795H61.2207V27.7733H63.5506V29.7238H63.5949C63.9718 29.0729 64.518 28.5364 65.1755 28.1714C65.8331 27.8063 66.5772 27.6264 67.3289 27.6506C70.3052 27.6506 72.2672 30.0033 72.2672 33.6374ZM69.793 33.6374C69.793 31.2632 68.566 29.7023 66.6939 29.7023C64.8548 29.7023 63.6177 31.296 63.6177 33.6374C63.6177 36.0002 64.8548 37.5826 66.6939 37.5826C68.566 37.5826 69.793 36.0331 69.793 33.6374Z" fill="black"/>
<path d="M85.1759 33.6374C85.1759 37.2815 83.2247 39.6228 80.2814 39.6228C79.5357 39.6619 78.7942 39.49 78.1416 39.1272C77.4891 38.7644 76.9519 38.2251 76.5917 37.5711H76.536V43.3795H74.1289V27.7733H76.4588V29.7238H76.5031C76.8799 29.0729 77.4261 28.5364 78.0837 28.1714C78.7412 27.8063 79.4853 27.6264 80.2371 27.6506C83.2134 27.6506 85.1759 30.0033 85.1759 33.6374ZM82.701 33.6374C82.701 31.2632 81.4742 29.7023 79.6021 29.7023C77.7629 29.7023 76.5259 31.296 76.5259 33.6374C76.5259 36.0002 77.7629 37.5826 79.6021 37.5826C81.4742 37.5826 82.701 36.0331 82.701 33.6374Z" fill="black"/>
<path d="M93.7043 35.0196C93.8827 36.6146 95.4322 37.6619 97.5496 37.6619C99.5784 37.6619 101.038 36.6146 101.038 35.1763C101.038 33.9279 100.158 33.1803 98.0732 32.668L95.9888 32.1659C93.0352 31.4524 91.664 30.0712 91.664 27.8299C91.664 25.0547 94.0825 23.1484 97.5155 23.1484C100.916 23.1484 103.245 25.0547 103.324 27.8299H100.894C100.749 26.2247 99.4216 25.2558 97.4826 25.2558C95.5435 25.2558 94.2166 26.2361 94.2166 27.6629C94.2166 28.8 95.0641 29.4692 97.1373 29.9814L98.9093 30.4165C102.209 31.1969 103.579 32.5226 103.579 34.8753C103.579 37.8844 101.184 39.7691 97.3712 39.7691C93.8042 39.7691 91.3958 37.9287 91.2402 35.0194L93.7043 35.0196Z" fill="black"/>
<path d="M108.778 25V27.7752H111.008V29.6814H108.778V36.1463C108.778 37.1507 109.224 37.6186 110.205 37.6186C110.469 37.6141 110.734 37.5954 110.997 37.5629V39.4578C110.556 39.5401 110.108 39.5774 109.66 39.5692C107.285 39.5692 106.359 38.6774 106.359 36.403V29.6814H104.654V27.7752H106.359V25H108.778Z" fill="black"/>
<path d="M112.299 33.6392C112.299 29.9494 114.472 27.6309 117.861 27.6309C121.261 27.6309 123.424 29.9494 123.424 33.6392C123.424 37.3389 121.272 39.6473 117.861 39.6473C114.45 39.6473 112.299 37.3389 112.299 33.6392ZM120.971 33.6392C120.971 31.1081 119.811 29.6142 117.861 29.6142C115.91 29.6142 114.75 31.1194 114.75 33.6392C114.75 36.1803 115.91 37.6627 117.861 37.6627C119.811 37.6627 120.971 36.1803 120.971 33.6392Z" fill="black"/>
<path d="M125.406 27.7731H127.702V29.7691H127.758C127.913 29.1457 128.278 28.5948 128.792 28.209C129.306 27.8231 129.936 27.626 130.579 27.6505C130.856 27.6494 131.132 27.6796 131.403 27.7402V29.9918C131.053 29.8848 130.688 29.8356 130.321 29.8463C129.971 29.8321 129.623 29.8937 129.3 30.027C128.976 30.1603 128.685 30.3621 128.447 30.6183C128.209 30.8746 128.029 31.1795 127.919 31.512C127.81 31.8444 127.774 32.1966 127.813 32.5443V39.5H125.406V27.7731Z" fill="black"/>
<path d="M142.502 36.0575C142.178 38.1864 140.105 39.6473 137.452 39.6473C134.042 39.6473 131.924 37.3617 131.924 33.6947C131.924 30.0165 134.052 27.6309 137.351 27.6309C140.596 27.6309 142.636 29.8596 142.636 33.4152V34.2399H134.354V34.3854C134.315 34.8169 134.369 35.2517 134.512 35.6608C134.654 36.07 134.882 36.444 135.181 36.7581C135.479 37.0724 135.841 37.3194 136.242 37.483C136.644 37.6465 137.075 37.723 137.508 37.707C138.076 37.7603 138.647 37.6285 139.136 37.3314C139.624 37.0341 140.002 36.5874 140.216 36.0575H142.502ZM134.365 32.5576H140.228C140.25 32.1696 140.19 31.7812 140.054 31.417C139.919 31.0528 139.71 30.7204 139.44 30.441C139.169 30.1615 138.844 29.9409 138.486 29.7929C138.126 29.645 137.74 29.573 137.351 29.5813C136.96 29.5789 136.571 29.6543 136.209 29.8029C135.845 29.9516 135.516 30.1705 135.238 30.4473C134.96 30.7239 134.74 31.0529 134.591 31.4151C134.441 31.7774 134.364 32.1657 134.365 32.5576Z" fill="black"/>
<path d="M49.8169 11.3096C50.3216 11.2733 50.828 11.3496 51.2996 11.5328C51.7712 11.716 52.1963 12.0015 52.5442 12.3689C52.8921 12.7363 53.1541 13.1762 53.3114 13.6571C53.4686 14.1381 53.5172 14.6479 53.4535 15.1498C53.4535 17.6188 52.1191 19.0382 49.8169 19.0382H47.0254V11.3096H49.8169ZM48.2257 17.9451H49.6829C50.0435 17.9667 50.4043 17.9075 50.7393 17.772C51.0741 17.6366 51.3746 17.4282 51.6188 17.1618C51.8628 16.8955 52.0445 16.5782 52.1506 16.2329C52.2565 15.8876 52.2843 15.523 52.2317 15.1655C52.2805 14.8095 52.2499 14.4471 52.1423 14.1044C52.0347 13.7615 51.8525 13.4468 51.6089 13.1827C51.3653 12.9185 51.0663 12.7115 50.7333 12.5765C50.4003 12.4415 50.0417 12.3818 49.6829 12.4017H48.2257V17.9451Z" fill="black"/>
<path d="M54.8099 16.12C54.7732 15.7366 54.817 15.35 54.9386 14.9846C55.0601 14.6192 55.2567 14.2833 55.5156 13.9984C55.7747 13.7134 56.0903 13.4858 56.4424 13.33C56.7946 13.1742 57.1754 13.0938 57.5603 13.0938C57.9454 13.0938 58.3262 13.1742 58.6783 13.33C59.0304 13.4858 59.3461 13.7134 59.605 13.9984C59.8641 14.2833 60.0606 14.6192 60.1822 14.9846C60.3037 15.35 60.3476 15.7366 60.3109 16.12C60.3482 16.5036 60.305 16.8909 60.1837 17.2568C60.0625 17.6227 59.866 17.9592 59.607 18.2448C59.3479 18.5303 59.032 18.7584 58.6796 18.9145C58.3271 19.0707 57.9459 19.1513 57.5603 19.1513C57.1749 19.1513 56.7937 19.0707 56.4412 18.9145C56.0887 18.7584 55.7728 18.5303 55.5137 18.2448C55.2547 17.9592 55.0583 17.6227 54.9371 17.2568C54.8158 16.8909 54.7726 16.5036 54.8099 16.12ZM59.1269 16.12C59.1269 14.8557 58.559 14.1164 57.5623 14.1164C56.5617 14.1164 55.9989 14.8557 55.9989 16.12C55.9989 17.3944 56.5618 18.128 57.5623 18.128C58.559 18.128 59.1269 17.3892 59.1269 16.12Z" fill="black"/>
<path d="M67.6219 19.0375H66.4279L65.2225 14.7419H65.1314L63.931 19.0375H62.7483L61.1406 13.2051H62.3082L63.3529 17.6556H63.4389L64.6381 13.2051H65.7423L66.9414 17.6556H67.0325L68.0723 13.2051H69.2233L67.6219 19.0375Z" fill="black"/>
<path d="M70.5762 13.2042H71.6841V14.1309H71.7701C71.9161 13.798 72.1622 13.5191 72.4742 13.3328C72.7863 13.1465 73.1486 13.0623 73.5107 13.0917C73.7945 13.0703 74.0794 13.1132 74.3445 13.2169C74.6095 13.3207 74.8477 13.4827 75.0416 13.691C75.2355 13.8994 75.38 14.1486 75.4645 14.4203C75.5489 14.6922 75.5712 14.9795 75.5295 15.261V19.0366H74.3784V15.5501C74.3784 14.6127 73.9712 14.1467 73.1198 14.1467C72.9272 14.1376 72.7348 14.1705 72.556 14.2428C72.3772 14.315 72.2161 14.4251 72.0839 14.5655C71.9516 14.7059 71.8512 14.8733 71.7897 15.0561C71.728 15.2389 71.7068 15.4328 71.7271 15.6247V19.0368H70.5762V13.2042Z" fill="black"/>
<path d="M77.3633 10.9297H78.5144V19.0389H77.3633V10.9297Z" fill="black"/>
<path d="M80.1145 16.1182C80.0779 15.7348 80.1218 15.3481 80.2433 14.9827C80.3649 14.6173 80.5615 14.2815 80.8204 13.9965C81.0795 13.7116 81.3951 13.4839 81.7473 13.3281C82.0995 13.1724 82.4803 13.0918 82.8654 13.0918C83.2503 13.0918 83.6313 13.1724 83.9833 13.3281C84.3355 13.4839 84.6512 13.7116 84.9102 13.9965C85.1691 14.2815 85.3658 14.6173 85.4874 14.9827C85.6089 15.3481 85.6528 15.7348 85.6161 16.1182C85.6534 16.5018 85.6102 16.8891 85.4888 17.255C85.3676 17.621 85.1711 17.9576 84.912 18.243C84.653 18.5285 84.3371 18.7566 83.9846 18.9127C83.6321 19.0689 83.2509 19.1494 82.8654 19.1494C82.4798 19.1494 82.0986 19.0689 81.7462 18.9127C81.3936 18.7566 81.0777 18.5285 80.8186 18.243C80.5596 17.9576 80.3631 17.621 80.2419 17.255C80.1206 16.8891 80.0772 16.5018 80.1145 16.1182ZM84.4316 16.1182C84.4316 14.8539 83.8636 14.1145 82.8669 14.1145C81.8664 14.1145 81.3036 14.8539 81.3036 16.1182C81.3036 17.3926 81.8664 18.1262 82.8669 18.1262C83.8636 18.1262 84.4316 17.3875 84.4316 16.1182Z" fill="black"/>
<path d="M86.8262 17.3893C86.8262 16.3394 87.608 15.7343 88.9955 15.6481L90.5754 15.5571V15.0537C90.5754 14.4377 90.1681 14.0898 89.3813 14.0898C88.7387 14.0898 88.2936 14.3258 88.1657 14.7381H87.0514C87.169 13.7363 88.1113 13.0938 89.4344 13.0938C90.8966 13.0938 91.7213 13.8217 91.7213 15.0537V19.0387H90.6134V18.2191H90.5223C90.3373 18.5131 90.0778 18.7528 89.77 18.9137C89.4623 19.0746 89.1173 19.1509 88.7703 19.1348C88.5255 19.1603 88.278 19.1342 88.044 19.0581C87.8098 18.9821 87.5943 18.8579 87.411 18.6934C87.2278 18.529 87.0812 18.328 86.9804 18.1033C86.8798 17.8787 86.8272 17.6354 86.8262 17.3893ZM90.5754 16.8909V16.4034L89.1512 16.4944C88.3478 16.5482 87.9836 16.8214 87.9836 17.3356C87.9836 17.8604 88.4389 18.166 89.0651 18.166C89.2486 18.1845 89.4339 18.166 89.6101 18.1114C89.7862 18.0569 89.9497 17.9675 90.0906 17.8486C90.2314 17.7296 90.3469 17.5836 90.4303 17.419C90.5136 17.2545 90.563 17.075 90.5754 16.8909Z" fill="black"/>
<path d="M93.2383 16.1202C93.2383 14.2772 94.1856 13.1098 95.6592 13.1098C96.0237 13.0929 96.3855 13.1802 96.7023 13.3615C97.019 13.5427 97.2775 13.8103 97.4479 14.133H97.5339V10.9297H98.685V19.0389H97.5819V18.1175H97.4909C97.3074 18.4381 97.0399 18.7023 96.7169 18.8817C96.3942 19.0611 96.0284 19.1486 95.6592 19.135C94.1755 19.1352 93.2383 17.9676 93.2383 16.1202ZM94.4273 16.1202C94.4273 17.3573 95.0105 18.1017 95.9856 18.1017C96.9558 18.1017 97.5554 17.3466 97.5554 16.1253C97.5554 14.9097 96.9496 14.1438 95.9856 14.1438C95.0167 14.1438 94.4273 14.8932 94.4273 16.1202Z" fill="black"/>
<path d="M103.445 16.12C103.408 15.7366 103.452 15.35 103.573 14.9846C103.695 14.6192 103.891 14.2833 104.15 13.9984C104.409 13.7134 104.725 13.4858 105.077 13.33C105.429 13.1742 105.81 13.0938 106.195 13.0938C106.58 13.0938 106.961 13.1742 107.313 13.33C107.665 13.4858 107.981 13.7134 108.24 13.9984C108.499 14.2833 108.695 14.6192 108.817 14.9846C108.939 15.35 108.982 15.7366 108.946 16.12C108.983 16.5036 108.94 16.8909 108.819 17.2568C108.697 17.6227 108.501 17.9592 108.242 18.2448C107.983 18.5303 107.667 18.7584 107.314 18.9145C106.962 19.0707 106.581 19.1513 106.195 19.1513C105.81 19.1513 105.428 19.0707 105.076 18.9145C104.724 18.7584 104.408 18.5303 104.149 18.2448C103.89 17.9592 103.693 17.6227 103.572 17.2568C103.451 16.8909 103.407 16.5036 103.445 16.12ZM107.762 16.12C107.762 14.8557 107.194 14.1164 106.197 14.1164C105.197 14.1164 104.634 14.8557 104.634 16.12C104.634 17.3944 105.197 18.128 106.197 18.128C107.194 18.128 107.762 17.3892 107.762 16.12Z" fill="black"/>
<path d="M110.49 13.2042H111.598V14.1309H111.684C111.83 13.798 112.076 13.5191 112.388 13.3328C112.7 13.1465 113.063 13.0623 113.425 13.0917C113.709 13.0703 113.994 13.1132 114.259 13.2169C114.524 13.3207 114.762 13.4827 114.956 13.691C115.15 13.8994 115.294 14.1486 115.379 14.4203C115.463 14.6922 115.485 14.9795 115.444 15.261V19.0366H114.293V15.5501C114.293 14.6127 113.885 14.1467 113.034 14.1467C112.841 14.1376 112.649 14.1705 112.47 14.2428C112.291 14.315 112.13 14.4251 111.998 14.5655C111.866 14.7059 111.765 14.8733 111.704 15.0561C111.642 15.2389 111.621 15.4328 111.641 15.6247V19.0368H110.49V13.2042Z" fill="black"/>
<path d="M121.949 11.7539V13.2326H123.213V14.2021H121.949V17.2011C121.949 17.8121 122.201 18.0797 122.774 18.0797C122.921 18.0792 123.067 18.0704 123.213 18.0532V19.0119C123.006 19.0488 122.797 19.0685 122.587 19.0707C121.307 19.0707 120.797 18.6203 120.797 17.4959V14.2021H119.871V13.2325H120.797V11.7539H121.949Z" fill="black"/>
<path d="M124.785 10.9297H125.926V14.1438H126.017C126.17 13.8079 126.423 13.5274 126.741 13.3403C127.059 13.1534 127.428 13.0691 127.796 13.099C128.078 13.0836 128.36 13.1308 128.622 13.237C128.884 13.3433 129.119 13.5061 129.311 13.7138C129.503 13.9214 129.646 14.1689 129.732 14.4385C129.817 14.708 129.842 14.9931 129.804 15.2734V19.0389H128.652V15.5573C128.652 14.6257 128.218 14.1539 127.405 14.1539C127.207 14.1377 127.008 14.1649 126.822 14.2335C126.636 14.3023 126.467 14.4109 126.327 14.5517C126.187 14.6926 126.079 14.8623 126.012 15.0489C125.945 15.2357 125.919 15.4349 125.936 15.6325V19.0389H124.785L124.785 10.9297Z" fill="black"/>
<path d="M136.513 17.4621C136.358 17.9952 136.019 18.4562 135.556 18.7647C135.095 19.0731 134.539 19.2094 133.986 19.1494C133.603 19.1596 133.221 19.0861 132.867 18.9337C132.515 18.7816 132.199 18.5544 131.942 18.2679C131.686 17.9815 131.496 17.6426 131.383 17.275C131.27 16.9075 131.24 16.5198 131.292 16.139C131.242 15.7571 131.273 15.3686 131.384 14.9998C131.497 14.6312 131.687 14.2908 131.941 14.0018C132.196 13.713 132.511 13.4822 132.862 13.3252C133.214 13.1682 133.596 13.0887 133.981 13.0919C135.604 13.0919 136.583 14.2006 136.583 16.0321V16.4338H132.464V16.4983C132.446 16.7123 132.473 16.9278 132.543 17.1308C132.613 17.3339 132.726 17.52 132.872 17.6772C133.019 17.8346 133.196 17.9596 133.393 18.0443C133.59 18.129 133.804 18.1715 134.019 18.1692C134.293 18.2022 134.573 18.1526 134.819 18.0267C135.067 17.9008 135.271 17.7043 135.406 17.4621H136.513ZM132.464 15.5824H135.411C135.425 15.3867 135.398 15.1901 135.332 15.0052C135.267 14.8204 135.162 14.6514 135.028 14.509C134.892 14.3668 134.729 14.2544 134.547 14.179C134.366 14.1036 134.172 14.0671 133.975 14.0715C133.777 14.069 133.578 14.1065 133.394 14.1815C133.209 14.2566 133.042 14.3677 132.901 14.5085C132.761 14.6493 132.65 14.8169 132.575 15.0014C132.499 15.1858 132.462 15.3833 132.464 15.5824Z" fill="black"/>
</g>
</g>
</g>
</g>
<defs>
<clipPath id="clip0_280_1344">
<rect width="156.745" height="51.8102" fill="white"/>
</clipPath>
<clipPath id="clip1_280_1344">
<rect width="156.745" height="51.8102" fill="white"/>
</clipPath>
<clipPath id="clip2_280_1344">
<rect width="156.726" height="51.8102" fill="white" transform="translate(0.00976562)"/>
</clipPath>
</defs>
</svg>
