<svg width="142" height="32" viewBox="0 0 142 32" fill="none" xmlns="http://www.w3.org/2000/svg">
<path d="M38.9011 15.4C41.0011 15.4 42.4011 16.4 43.4011 17.5V0.400037C43.4011 0.100037 43.0011 -0.0999625 42.8011 0.100038L21.5011 15.5H22.0011C24.2011 15.5 25.3011 16.9 25.3011 18.4C25.3011 19.6 24.7011 20.4 23.8011 20.9C23.7011 21 23.7011 21.1 23.8011 21.2C24.8011 21.6 25.5011 22.7 25.5011 23.9C25.5011 25.6 24.3011 27 22.2011 27H16.1011C16.0011 27 15.9011 26.9 15.9011 26.8V19.5L0.201136 31.1C-0.0988638 31.3 0.101137 31.7 0.401137 31.7H43.0011C43.2011 31.7 43.3011 31.5 43.3011 31.4V25.6C42.1011 26.7 40.6011 27.3 38.8011 27.3C35.4011 27.3 32.6011 24.9 32.6011 21.3C32.7011 17.6 35.5011 15.4 38.9011 15.4ZM30.4011 26.8C30.4011 26.9 30.3011 27 30.2011 27H28.2011C28.1011 27 28.0011 26.9 28.0011 26.8V15.7C28.0011 15.6 28.1011 15.5 28.2011 15.5H30.2011C30.3011 15.5 30.4011 15.6 30.4011 15.7V26.8ZM18.5011 19.9V17.9C18.5011 17.8 18.5011 17.8 18.6011 17.8H21.5011C22.4011 17.8 22.9011 18.3 22.9011 19C22.9011 19.7 22.4011 20.2 21.5011 20.2H18.6011C18.6011 20.1 18.5011 20 18.5011 19.9ZM18.5011 24.7V22.6C18.5011 22.5 18.6011 22.4 18.7011 22.4H21.7011C22.7011 22.4 23.2011 23 23.2011 23.7C23.2011 24.6 22.7011 25 21.7011 25H18.7011C18.5011 24.9 18.5011 24.8 18.5011 24.7ZM41.8011 18.9L43.4011 18V20.6H38.6011C38.5011 20.6 38.4011 20.7 38.4011 20.8V22.4C38.4011 22.5 38.5011 22.6 38.6011 22.6H41.3011C41.4011 22.6 41.5011 22.7 41.5011 22.8V23.9C41.5011 24 41.5011 24 41.4011 24C40.9011 24.4 40.0011 24.9 39.0011 24.9C36.9011 24.9 35.4011 23.3 35.4011 21.2C35.4011 19.1 36.9011 17.5 39.0011 17.5C40.2011 17.5 41.0011 18.1 41.6011 18.8C41.6011 18.9 41.7011 19 41.8011 18.9ZM45.1011 21.2C45.1011 17.7 47.7011 15.2 51.0011 15.2C53.1011 15.2 54.5011 16.3 55.4011 17.6C55.5011 17.7 55.4011 17.8 55.3011 17.9L54.0011 18.7C53.9011 18.7 53.8011 18.7 53.8011 18.6C53.3011 17.7 52.2011 17.1 51.1011 17.1C48.9011 17.1 47.2011 18.8 47.2011 21.3C47.2011 23.7 48.8011 25.5 51.1011 25.5C52.3011 25.5 53.2011 24.9 53.8011 24C53.8011 23.9 53.9011 23.9 54.0011 23.9L55.3011 24.5C55.4011 24.6 55.4011 24.7 55.4011 24.8C54.5011 26.1 53.2011 27.3 51.0011 27.3C47.7011 27.2 45.1011 24.8 45.1011 21.2ZM56.6011 21.2C56.6011 18.3 58.2011 16.1 60.8011 15.4C65.0011 14.3 68.8011 18.2 68.0011 22.6C67.5011 25.3 65.3011 27.1 62.4011 27.1C58.9011 27.2 56.6011 24.7 56.6011 21.2ZM66.0011 21.2C66.0011 18.8 64.5011 17 62.3011 17C60.1011 17 58.6011 18.8 58.6011 21.2C58.6011 23.6 60.0011 25.4 62.3011 25.4C64.5011 25.4 66.0011 23.6 66.0011 21.2ZM79.9009 26.9V18.1L76.3011 27C76.3011 27 76.3011 27.1 76.2011 27.1H75.5011C75.5011 27.1 75.4011 27.1 75.4011 27L72.0011 18.1V26.9C72.0011 27 71.9011 27 71.9011 27H70.2011C70.0011 27 70.0011 26.9 70.0011 26.9V15.7C70.0011 15.6 70.1011 15.6 70.1011 15.6H72.7011C72.8011 15.6 72.9011 15.7 72.9011 15.8L76.0011 23.7L79.1009 15.8C79.1009 15.7 79.2009 15.6 79.3009 15.6H81.9009C82.0009 15.6 82.0009 15.7 82.0009 15.7V26.9C82.0009 27 81.9009 27 81.9009 27H80.2009C80.0009 27 79.9009 27 79.9009 26.9ZM99.9009 26.8V15.7C99.9009 15.6 100.001 15.5 100.101 15.5H107.601C107.701 15.5 107.801 15.6 107.801 15.7V17.1C107.801 17.2 107.701 17.3 107.601 17.3H102.101C102.001 17.3 101.901 17.4 101.901 17.5V20.1C101.901 20.2 102.001 20.3 102.101 20.3H107.401C107.501 20.3 107.601 20.4 107.601 20.5V21.9C107.601 22 107.501 22.1 107.401 22.1H102.101C102.001 22.1 101.901 22.2 101.901 22.3V25.1C101.901 25.2 102.001 25.3 102.101 25.3H107.601C107.701 25.3 107.801 25.4 107.801 25.5V26.9C107.801 27 107.701 27.1 107.601 27.1H100.101C100.001 27 99.9009 26.9 99.9009 26.8ZM117.201 26.9L114.701 22.8C114.701 22.7 114.601 22.7 114.501 22.7H112.801C112.701 22.7 112.601 22.8 112.601 22.9V26.7C112.601 26.8 112.501 26.9 112.401 26.9H110.801C110.701 26.9 110.601 26.8 110.601 26.7V15.7C110.601 15.6 110.701 15.5 110.801 15.5H115.701C117.901 15.5 119.601 17 119.601 19.1C119.601 21 118.401 22.1 117.101 22.4C117.001 22.4 116.901 22.6 117.001 22.7C117.501 23.4 118.901 25.8 119.501 26.7C119.601 26.8 119.501 27 119.301 27H117.501C117.301 27 117.301 27 117.201 26.9ZM117.501 19.1C117.501 18 116.601 17.3 115.601 17.3H113.001C112.901 17.3 112.801 17.4 112.801 17.5V20.7C112.801 20.8 112.901 20.9 113.001 20.9H115.601C116.701 20.9 117.501 20.2 117.501 19.1ZM133.301 26.8V15.7C133.301 15.6 133.401 15.5 133.501 15.5H141.001C141.101 15.5 141.201 15.6 141.201 15.7V17.1C141.201 17.2 141.101 17.3 141.001 17.3H135.501C135.401 17.3 135.301 17.4 135.301 17.5V20.1C135.301 20.2 135.401 20.3 135.501 20.3H140.901C141.001 20.3 141.101 20.4 141.101 20.5V21.9C141.101 22 141.001 22.1 140.901 22.1H135.501C135.401 22.1 135.301 22.2 135.301 22.3V25.1C135.301 25.2 135.401 25.3 135.501 25.3H141.001C141.101 25.3 141.201 25.4 141.201 25.5V26.9C141.201 27 141.101 27.1 141.001 27.1H133.501C133.401 27 133.301 26.9 133.301 26.8ZM121.101 21.2C121.101 17.7 123.701 15.2 127.001 15.2C129.101 15.2 130.501 16.3 131.401 17.6C131.501 17.7 131.401 17.8 131.301 17.9L130.001 18.6C129.901 18.6 129.801 18.6 129.801 18.5C129.301 17.6 128.201 17 127.101 17C124.901 17 123.201 18.7 123.201 21.2C123.201 23.6 124.801 25.4 127.101 25.4C128.301 25.4 129.201 24.8 129.801 23.9C129.801 23.8 129.901 23.8 130.001 23.8L131.301 24.4C131.401 24.5 131.401 24.6 131.401 24.7C130.501 26 129.201 27.2 127.001 27.2C123.601 27.2 121.101 24.8 121.101 21.2ZM94.9009 26.9V18.1L91.4009 27C91.4009 27 91.4009 27.1 91.3009 27.1H90.6009C90.6009 27.1 90.5009 27.1 90.5009 27L87.1009 18.1V26.9C87.1009 27 87.0009 27 87.0009 27H85.3009C85.2009 27 85.2009 26.9 85.2009 26.9V15.7C85.2009 15.6 85.3009 15.6 85.3009 15.6H87.9009C88.0009 15.6 88.1009 15.7 88.1009 15.8L91.2009 23.7L94.3009 15.8C94.3009 15.7 94.4009 15.6 94.5009 15.6H97.1009C97.2009 15.6 97.2009 15.7 97.2009 15.7V26.9C97.2009 27 97.1009 27 97.1009 27H95.4009C95.0009 27 94.9009 27 94.9009 26.9Z" fill="#34313F"/>
</svg>
