<svg width="126" height="26" viewBox="0 0 126 26" fill="none" xmlns="http://www.w3.org/2000/svg">
<path d="M44.8008 2.40039C44.8008 1.30039 45.7008 0.500397 46.7008 0.500397C47.8008 0.500397 48.6008 1.40039 48.6008 2.40039C48.7008 3.50039 47.9008 4.40039 46.8008 4.40039C45.7008 4.50039 44.8008 3.7004 44.8008 2.6004V2.40039ZM123.701 16.7004C123.501 16.5004 123.401 16.3004 123.501 16.0004V0.500397H119.001V3.20039H120.601V16.3004C120.601 18.4004 121.701 19.6004 123.801 19.6004C124.501 19.6004 125.201 19.4004 125.801 19.2004V16.4004C124.401 17.0004 123.901 16.9004 123.701 16.7004ZM48.3008 16.8004H49.7008V19.4004H43.9008V16.8004H45.3008V8.8004H43.7008V6.1004H48.2008L48.3008 16.8004ZM37.2008 5.8004C35.6008 5.8004 33.9008 6.40039 32.8008 7.70039V0.600403H28.3008V3.3004H29.9008C29.9008 3.7004 29.9008 16.0004 29.9008 16.0004C29.9008 16.2004 29.8008 16.5004 29.7008 16.7004C29.3008 17.0004 28.2008 16.7004 27.6008 16.5004V19.3004C28.3008 19.5004 29.0008 19.7004 29.6008 19.7004C30.7008 19.8004 31.7008 19.3004 32.4008 18.4004C33.6008 19.3004 35.1008 19.8004 36.7008 19.7004C40.4008 19.8004 43.5008 16.9004 43.6008 13.2004C43.6008 13.0004 43.6008 12.8004 43.6008 12.6004C43.6008 8.5004 40.9008 5.6004 37.2008 5.6004V5.8004ZM36.6008 16.9004C34.5008 16.9004 32.9008 15.1004 32.9008 12.7004C32.9008 10.3004 34.4008 8.40039 36.7008 8.40039C38.8008 8.40039 40.5008 10.1004 40.5008 12.1004C40.5008 12.2004 40.5008 12.3004 40.5008 12.5004C40.4008 15.1004 38.8008 16.9004 36.6008 16.9004ZM105.601 16.5004V19.3004C105.001 19.5004 104.301 19.7004 103.601 19.7004C101.501 19.7004 100.401 18.6004 100.401 16.4004V3.8004L103.301 1.90039V6.20039H107.101L105.201 8.90039H103.301V16.2004C103.301 16.5004 103.401 16.7004 103.501 16.9004C104.101 17.1004 105.601 16.5004 105.601 16.5004ZM56.6008 5.70039C52.7008 5.70039 49.9008 8.7004 49.9008 12.8004C49.9008 16.9004 52.6008 19.7004 56.2008 19.7004C57.8008 19.7004 59.4008 19.0004 60.6008 17.9004V19.3004C60.6008 22.0004 58.2008 22.8004 56.8008 22.8004C55.7008 22.8004 54.6008 22.4004 53.7008 21.7004L51.3008 23.5004C52.8008 24.8004 54.7008 25.5004 56.6008 25.4004C59.8008 25.4004 63.6008 23.8004 63.6008 19.2004V12.8004C63.7008 9.0004 60.8008 5.80039 57.0008 5.70039C56.9008 5.70039 56.7008 5.70039 56.6008 5.70039ZM56.7008 17.0004C54.5008 17.0004 53.0008 15.2004 53.0008 12.8004C53.0008 10.3004 54.6008 8.6004 56.8008 8.6004C59.0008 8.7004 60.7008 10.5004 60.6008 12.7004V12.8004C60.7008 15.0004 59.0008 16.9004 56.8008 17.0004C56.8008 17.0004 56.8008 17.0004 56.7008 17.0004ZM119.301 13.4004C119.301 8.40039 115.801 5.70039 112.401 5.70039C108.701 5.80039 105.701 8.9004 105.801 12.6004V12.7004C105.801 16.6004 109.101 19.8004 113.001 19.8004C115.101 19.8004 117.201 18.8004 118.501 17.1004L116.301 15.4004C115.501 16.5004 114.201 17.1004 112.901 17.1004C111.001 17.2004 109.301 15.8004 109.001 14.0004H119.301C119.301 13.8004 119.301 13.6004 119.301 13.4004ZM109.001 11.3004C109.301 9.5004 110.801 8.20039 112.601 8.20039C114.501 8.20039 116.001 9.5004 116.401 11.3004H109.001ZM93.6008 8.40039V6.1004H89.6008V8.8004H91.2008V16.8004H88.8008C88.6008 16.8004 88.4008 16.8004 88.2008 16.6004C88.1008 16.4004 88.0008 16.2004 88.0008 16.0004V10.2004C88.0008 8.90039 87.4008 5.70039 82.5008 5.70039C81.0008 5.70039 79.6008 6.10039 78.3008 6.90039L79.5008 9.1004C80.4008 8.5004 81.4008 8.2004 82.5008 8.3004C83.1008 8.3004 83.7008 8.5004 84.3008 8.8004C84.8008 9.2004 85.2008 9.9004 85.1008 10.6004V11.9004C84.1008 11.3004 83.0008 11.0004 81.9008 11.0004C79.3008 11.0004 78.0008 12.6004 76.7008 14.2004C75.4008 15.8004 74.2008 17.2004 71.7008 17.1004C69.4008 17.0004 68.1008 15.2004 68.1008 12.7004C68.1008 10.3004 69.6008 8.70039 71.6008 8.70039C73.5008 8.70039 75.0008 10.1004 75.3008 11.9004L77.8008 10.0004C76.9008 7.4004 74.3008 5.7004 71.5008 5.8004C67.8008 5.9004 64.9008 9.1004 65.0008 12.8004C65.0008 16.2004 67.1008 20.0004 71.6008 20.0004C73.9008 20.0004 76.0008 19.0004 77.5008 17.3004C78.2008 18.9004 79.8008 19.9004 81.6008 19.9004C83.1008 19.9004 84.5008 19.3004 85.5008 18.2004C86.1008 19.2004 87.2008 19.7004 88.3008 19.5004H95.7008V16.9004H94.1008V13.7004C94.1008 10.4004 95.2008 8.90039 97.7008 8.90039C98.2008 8.90039 98.7008 9.00039 99.2008 9.20039V6.5004C98.6008 6.3004 98.1008 6.2004 97.4008 6.3004C95.8008 6.1004 94.3008 7.00039 93.6008 8.40039ZM85.1008 15.9004C84.2008 16.7004 83.1008 17.2004 81.9008 17.3004C80.9008 17.4004 79.9008 16.6004 79.9008 15.5004C79.9008 15.4004 79.9008 15.4004 79.9008 15.3004C79.9008 14.2004 80.8008 13.3004 81.9008 13.3004C82.0008 13.3004 82.0008 13.3004 82.1008 13.3004C83.2008 13.3004 84.3008 13.8004 85.1008 14.5004V15.9004ZM9.5008 12.9004V12.0004C9.5008 11.4004 9.80079 10.8004 10.3008 10.5004L17.7008 5.8004C18.2008 5.5004 18.5008 4.9004 18.5008 4.3004V0.400391L9.5008 6.20039L0.5008 0.400391V12.6004C0.4008 15.6004 1.90079 18.5004 4.40079 20.2004L9.5008 23.5004L14.6008 20.2004C17.1008 18.5004 18.6008 15.7004 18.5008 12.6004V7.20039L9.5008 12.9004Z" fill="black"/>
</svg>
