<svg xmlns:xlink="http://www.w3.org/1999/xlink" xmlns="http://www.w3.org/2000/svg" width="16" height="17" viewBox="0 0 16 17" fill="none">
<g clip-path="url(#clip0_14757_10148)">
<g clip-path="url(#clip1_14757_10148)">
<path d="M-2.73828 0.689209H19.2617V16.6892H-2.73828V0.689209Z" fill="#BA0C2F"/>
<path d="M-2.73828 8.68921H19.2617H-2.73828ZM5.26172 0.689209V16.6892V0.689209Z" fill="black"/>
<path d="M-2.73828 8.68921H19.2617M5.26172 0.689209V16.6892" stroke="white" stroke-width="4"/>
<path d="M-2.73828 8.68921H19.2617H-2.73828ZM5.26172 0.689209V16.6892V0.689209Z" fill="black"/>
<path d="M-2.73828 8.68921H19.2617M5.26172 0.689209V16.6892" stroke="#00205B" stroke-width="2"/>
</g>
<g clip-path="url(#clip2_14757_10148)">
<path d="M-3 0H24.3853V16.4312H-3V0Z" fill="#C1272D"/>
<path d="M-3 0H24.3853V10.9541H-3V0Z" fill="#006A44"/>
<path d="M-3 0H24.3853V5.47705H-3V0Z" fill="#FDB913"/>
</g>
<path d="M-7 0H19V23H-7V0Z" fill="#009B3A"/>
<g clip-path="url(#clip3_14757_10148)">
<path d="M0.0556641 3H16.0001V14.1611H0.0556641V3Z" fill="#009B3A"/>
<path d="M1.41113 8.58051L8.02809 12.8058L14.645 8.58051L8.02809 4.35522L1.41113 8.58051Z" fill="#FEDF00"/>
<path d="M8.02759 11.3709C9.56862 11.3709 10.8179 10.1216 10.8179 8.58057C10.8179 7.03954 9.56862 5.79028 8.02759 5.79028C6.48656 5.79028 5.2373 7.03954 5.2373 8.58057C5.2373 10.1216 6.48656 11.3709 8.02759 11.3709Z" fill="#002776"/>
<mask id="mask0_14757_10148" style="mask-type:luminance" maskUnits="userSpaceOnUse" x="5" y="5" width="6" height="7">
<path d="M8.02856 11.3709C9.5696 11.3709 10.8188 10.1216 10.8188 8.58057C10.8188 7.03954 9.5696 5.79028 8.02856 5.79028C6.48753 5.79028 5.23828 7.03954 5.23828 8.58057C5.23828 10.1216 6.48753 11.3709 8.02856 11.3709Z" fill="white"/>
</mask>
<g mask="url(#mask0_14757_10148)">
<path d="M-0.342773 14.1612C-0.342773 12.364 0.371167 10.6403 1.64199 9.36953C2.91281 8.09871 4.63642 7.38477 6.43363 7.38477C8.23084 7.38477 9.95445 8.09871 11.2253 9.36953C12.4961 10.6403 13.21 12.364 13.21 14.1612H12.8114C12.8114 12.4697 12.1395 10.8475 10.9434 9.65139C9.74734 8.45532 8.12512 7.78338 6.43363 7.78338C4.74213 7.78338 3.11992 8.45532 1.92385 9.65139C0.727782 10.8475 0.0558384 12.4697 0.0558384 14.1612H-0.342773Z" fill="white"/>
</g>
<path fill-rule="evenodd" clip-rule="evenodd" d="M5.64717 7.76493C5.67865 7.76107 5.70713 7.74347 5.72636 7.716C5.74558 7.68854 5.75397 7.65346 5.74967 7.61848C5.74538 7.5835 5.72875 7.55149 5.70346 7.5295C5.67816 7.5075 5.64627 7.49731 5.61479 7.50117C5.58331 7.50504 5.55482 7.52264 5.5356 7.55011C5.51638 7.57757 5.50799 7.61265 5.51229 7.64763C5.51658 7.6826 5.5332 7.71461 5.5585 7.73661C5.5838 7.75861 5.61569 7.7688 5.64717 7.76493ZM5.64116 7.71595C5.65964 7.71368 5.6763 7.70277 5.68747 7.68562C5.69863 7.66847 5.70339 7.64648 5.70069 7.62449C5.69799 7.60251 5.68805 7.58233 5.67307 7.56839C5.65809 7.55444 5.63929 7.54789 5.6208 7.55016C5.60231 7.55243 5.58565 7.56334 5.57449 7.58049C5.56333 7.59764 5.55857 7.61963 5.56127 7.64161C5.56397 7.6636 5.5739 7.68378 5.58888 7.69772C5.60387 7.71166 5.62267 7.71822 5.64116 7.71595Z" fill="#009B3A"/>
<path fill-rule="evenodd" clip-rule="evenodd" d="M5.86424 7.74092L5.91347 7.73748L5.90659 7.63902L6.01262 7.6316C6.03472 7.63006 6.0553 7.6198 6.06983 7.60308C6.08436 7.58636 6.09166 7.56456 6.09011 7.54246C6.08857 7.52037 6.07831 7.49979 6.06159 7.48526C6.04487 7.47072 6.02307 7.46343 6.00097 7.46497L5.84949 7.47557L5.86424 7.74092ZM5.90314 7.58979L6.00539 7.58264C6.01443 7.582 6.02285 7.57781 6.0288 7.57097C6.03474 7.56413 6.03773 7.55521 6.03709 7.54617C6.03646 7.53713 6.03227 7.52871 6.02543 7.52277C6.01859 7.51682 6.00967 7.51384 6.00063 7.51447L5.89838 7.52162L5.90314 7.58979Z" fill="#009B3A"/>
<path d="M6.08938 7.7251C6.08673 7.68723 6.08091 7.60391 6.0241 7.60788L5.95215 7.61292C6.03546 7.60709 6.04129 7.6904 6.04394 7.72827" fill="#009B3A"/>
<path fill-rule="evenodd" clip-rule="evenodd" d="M6.20093 7.71992L6.32619 7.71774C6.34114 7.71748 6.3559 7.71427 6.36961 7.70831C6.38333 7.70235 6.39573 7.69374 6.40612 7.68298C6.41651 7.67222 6.42468 7.65952 6.43016 7.64561C6.43564 7.63169 6.43833 7.61683 6.43807 7.60188L6.43741 7.56392C6.43715 7.54897 6.43394 7.53421 6.42798 7.5205C6.42202 7.50678 6.41341 7.49437 6.40265 7.48398C6.39189 7.47359 6.37919 7.46543 6.36528 7.45994C6.35136 7.45446 6.3365 7.45178 6.32155 7.45204L6.19629 7.45422L6.20093 7.71992ZM6.24941 7.66972L6.32153 7.66846C6.34066 7.66813 6.35887 7.66021 6.37216 7.64645C6.38544 7.63269 6.39272 7.61421 6.39239 7.59508L6.39199 7.57231C6.39166 7.55318 6.38374 7.53497 6.36998 7.52168C6.35622 7.50839 6.33774 7.50111 6.31861 7.50145L6.24649 7.50271L6.24941 7.66972Z" fill="#009B3A"/>
<path d="M6.5376 7.71663L6.77662 7.72498L6.77834 7.67565L6.58485 7.6689L6.58724 7.60061L6.739 7.6059L6.74059 7.56038L6.58883 7.55508L6.59068 7.50196L6.77279 7.50832L6.77451 7.459L6.54688 7.45105L6.5376 7.71663Z" fill="#009B3A"/>
<path d="M6.87528 7.73092L6.92066 7.73489L6.93654 7.55336L6.9736 7.73952L7.01521 7.74316L7.08403 7.56626L7.06815 7.74779L7.11353 7.75176L7.13669 7.48703L7.07051 7.48124L7.00168 7.65814L6.96462 7.47198L6.89844 7.46619L6.87528 7.73092Z" fill="#009B3A"/>
<path d="M7.42629 7.79309L7.62272 7.82684L7.63044 7.78194L7.47891 7.7559L7.48919 7.69604L7.61266 7.71726L7.62038 7.67236L7.49691 7.65114L7.50398 7.60999L7.65083 7.63522L7.65855 7.59032L7.4668 7.55737L7.42629 7.79309Z" fill="#009B3A"/>
<path fill-rule="evenodd" clip-rule="evenodd" d="M7.92956 7.89216L7.97734 7.90452L8.00205 7.80896L8.10496 7.83558C8.12641 7.84112 8.14918 7.83792 8.16826 7.82668C8.18735 7.81544 8.20119 7.79707 8.20673 7.77563C8.21228 7.75418 8.20908 7.73141 8.19784 7.71233C8.18659 7.69324 8.16823 7.67941 8.14678 7.67386L7.99977 7.63584L7.92956 7.89216ZM8.01441 7.76118L8.11364 7.78685C8.12242 7.78911 8.13173 7.78781 8.13954 7.78321C8.14735 7.77861 8.15301 7.77109 8.15528 7.76232C8.15754 7.75355 8.15624 7.74423 8.15164 7.73643C8.14704 7.72862 8.13953 7.72296 8.13075 7.72069L8.03152 7.69502L8.01441 7.76118Z" fill="#009B3A"/>
<path fill-rule="evenodd" clip-rule="evenodd" d="M8.25603 7.97915L8.3031 7.99399L8.33278 7.89985L8.43415 7.93182C8.45528 7.93848 8.47818 7.93648 8.49783 7.92625C8.51748 7.91602 8.53226 7.89841 8.53892 7.87728C8.54558 7.85615 8.54358 7.83325 8.53335 7.8136C8.52312 7.79395 8.50551 7.77917 8.48438 7.77251L8.33956 7.72685L8.25603 7.97915ZM8.34762 7.85279L8.44537 7.88361C8.45401 7.88633 8.46339 7.88551 8.47142 7.88133C8.47946 7.87715 8.48551 7.86994 8.48823 7.8613C8.49096 7.85266 8.49014 7.84329 8.48595 7.83525C8.48177 7.82721 8.47456 7.82116 8.46592 7.81844L8.36816 7.78762L8.34762 7.85279Z" fill="#009B3A"/>
<path d="M8.47134 8.04701C8.48275 8.0108 8.50787 7.93115 8.45356 7.91402L8.38477 7.89233C8.46442 7.91745 8.4393 7.9971 8.42789 8.03331" fill="#009B3A"/>
<path fill-rule="evenodd" clip-rule="evenodd" d="M8.68887 8.12502C8.71857 8.13613 8.75197 8.13367 8.7817 8.11818C8.81143 8.10269 8.83507 8.07545 8.84741 8.04244C8.85975 8.00943 8.85979 7.97337 8.84751 7.94217C8.83523 7.91098 8.81164 7.88721 8.78193 7.87611C8.75223 7.865 8.71883 7.86746 8.6891 7.88295C8.65937 7.89843 8.63573 7.92568 8.62339 7.95868C8.61105 7.99169 8.61101 8.02776 8.62329 8.05895C8.63557 8.09015 8.65916 8.11391 8.68887 8.12502ZM8.70615 8.07879C8.7236 8.08532 8.74341 8.08333 8.76123 8.07327C8.77906 8.06321 8.79343 8.04591 8.80118 8.02516C8.80894 8.00441 8.80945 7.98192 8.8026 7.96264C8.79575 7.94336 8.7821 7.92886 8.76465 7.92233C8.7472 7.91581 8.72739 7.9178 8.70957 7.92786C8.69174 7.93791 8.67737 7.95522 8.66962 7.97597C8.66186 7.99672 8.66135 8.01921 8.6682 8.03849C8.67505 8.05777 8.6887 8.07227 8.70615 8.07879Z" fill="#009B3A"/>
<mask id="mask1_14757_10148" style="mask-type:luminance" maskUnits="userSpaceOnUse" x="8" y="7" width="2" height="2">
<path d="M8.89306 8.20366L8.99902 7.95996L9.21835 8.05533L9.11239 8.29903L8.89306 8.20366ZM9.07387 8.08772L9.05571 8.1295L9.16537 8.17718L9.18354 8.1354L9.07387 8.08772Z" fill="white"/>
</mask>
<g mask="url(#mask1_14757_10148)">
<path fill-rule="evenodd" clip-rule="evenodd" d="M9.00272 8.25135C9.03181 8.26399 9.06529 8.26328 9.09579 8.24937C9.12629 8.23546 9.15132 8.2095 9.16537 8.17718C9.17942 8.14486 9.18135 8.10885 9.17072 8.07705C9.16009 8.04526 9.13777 8.02029 9.10869 8.00764C9.0796 7.995 9.04613 7.99571 9.01563 8.00962C8.98512 8.02353 8.96009 8.04949 8.94604 8.08181C8.93199 8.11413 8.93007 8.15014 8.9407 8.18194C8.95133 8.21373 8.97364 8.2387 9.00272 8.25135ZM9.0224 8.20609C9.03949 8.21351 9.05938 8.21257 9.0777 8.20346C9.09602 8.19434 9.11128 8.17781 9.12011 8.1575C9.12895 8.13719 9.13063 8.11475 9.1248 8.09514C9.11896 8.07552 9.10609 8.06033 9.08901 8.0529C9.07193 8.04548 9.05204 8.04642 9.03371 8.05553C9.01539 8.06465 9.00013 8.08118 8.9913 8.10149C8.98247 8.1218 8.98078 8.14424 8.98662 8.16385C8.99245 8.18347 9.00532 8.19866 9.0224 8.20609Z" fill="#009B3A"/>
</g>
<path d="M9.07324 8.13708L9.1655 8.1772L9.15036 8.21201L9.0581 8.1719L9.07324 8.13708Z" fill="#009B3A"/>
<path d="M9.13086 8.16199L9.16567 8.17713L9.11269 8.29898L9.07788 8.28384L9.13086 8.16199Z" fill="#009B3A"/>
<path fill-rule="evenodd" clip-rule="evenodd" d="M9.20076 8.3406L9.24493 8.36262L9.28897 8.27429L9.3841 8.32172C9.40392 8.3316 9.42686 8.33321 9.44787 8.32618C9.46887 8.31915 9.48623 8.30407 9.49611 8.28424C9.50599 8.26442 9.5076 8.24148 9.50057 8.22048C9.49354 8.19947 9.47845 8.18212 9.45863 8.17223L9.32273 8.10448L9.20076 8.3406ZM9.31099 8.23012L9.40272 8.27586C9.41083 8.2799 9.42022 8.28056 9.42881 8.27768C9.4374 8.27481 9.4445 8.26864 9.44854 8.26053C9.45259 8.25242 9.45324 8.24304 9.45037 8.23444C9.44749 8.22585 9.44132 8.21875 9.43321 8.21471L9.34148 8.16897L9.31099 8.23012Z" fill="#009B3A"/>
<path d="M9.40311 8.44134C9.42004 8.40736 9.45731 8.33262 9.40635 8.30721L9.3418 8.27502C9.41654 8.31229 9.37927 8.38703 9.36234 8.42101" fill="#009B3A"/>
<path d="M9.50196 8.49337L9.71012 8.61115L9.73442 8.56819L9.56591 8.47285L9.59956 8.41338L9.73172 8.48815L9.75415 8.4485L9.62199 8.37373L9.64816 8.32747L9.80676 8.4172L9.83106 8.37425L9.63281 8.26208L9.50196 8.49337Z" fill="#009B3A"/>
<path d="M9.89001 8.62358C9.87573 8.64599 9.8902 8.67097 9.92222 8.69136C9.95424 8.71176 9.97604 8.71102 9.98525 8.69664C10.0143 8.65101 9.84628 8.58447 9.89807 8.50493C9.94273 8.43661 10.0191 8.48978 10.0479 8.50814C10.0768 8.5265 10.123 8.57398 10.087 8.6287L10.0382 8.59759C10.0535 8.57358 10.0367 8.5505 10.0111 8.53418C9.98629 8.51837 9.96613 8.51116 9.95134 8.53437C9.92657 8.57148 10.0913 8.64151 10.0408 8.72076C10.0036 8.77919 9.93878 8.75368 9.89556 8.72614C9.85874 8.70269 9.80372 8.64738 9.83958 8.59145L9.89001 8.62358Z" fill="#009B3A"/>
<path d="M10.1743 8.81212C10.1589 8.83376 10.172 8.85945 10.2029 8.8815C10.2338 8.90355 10.2556 8.90395 10.2656 8.89006C10.297 8.84602 10.1327 8.77078 10.1886 8.69406C10.2367 8.62816 10.3102 8.68527 10.3381 8.70511C10.3659 8.72495 10.4096 8.77479 10.3708 8.82755L10.3237 8.79393C10.3402 8.77075 10.3246 8.74682 10.2999 8.72918C10.2759 8.7121 10.2562 8.70384 10.2402 8.72624C10.2135 8.76201 10.3743 8.84057 10.3198 8.91706C10.2795 8.97346 10.2162 8.9446 10.1745 8.91484C10.1389 8.88949 10.0869 8.83138 10.1256 8.7774L10.1743 8.81212Z" fill="#009B3A"/>
<path fill-rule="evenodd" clip-rule="evenodd" d="M10.4438 9.11786C10.4686 9.13761 10.5011 9.14559 10.5342 9.14005C10.5672 9.1345 10.5981 9.1159 10.6201 9.08832C10.642 9.06074 10.6532 9.02645 10.6512 8.99299C10.6491 8.95953 10.634 8.92964 10.6092 8.90989C10.5844 8.89015 10.5519 8.88217 10.5188 8.88771C10.4857 8.89325 10.4548 8.91186 10.4329 8.93943C10.411 8.96701 10.3998 9.00131 10.4018 9.03477C10.4039 9.06823 10.419 9.09812 10.4438 9.11786ZM10.4745 9.07924C10.4891 9.09084 10.5085 9.09507 10.5286 9.09101C10.5487 9.08695 10.5677 9.07493 10.5815 9.0576C10.5953 9.04026 10.6027 9.01903 10.6021 8.99857C10.6016 8.97812 10.5931 8.96011 10.5785 8.94851C10.5639 8.93692 10.5445 8.93269 10.5244 8.93674C10.5043 8.9408 10.4853 8.95282 10.4715 8.97016C10.4577 8.98749 10.4503 9.00872 10.4509 9.02918C10.4514 9.04964 10.4599 9.06764 10.4745 9.07924Z" fill="#009B3A"/>
<path d="M5.75 7.95984L5.71305 8.07357L5.76991 8.09205" fill="white"/>
<path d="M5.75 7.95984L5.78695 8.07357L5.73009 8.09205" fill="white"/>
<path d="M5.86426 8.0426H5.74467V8.10239" fill="white"/>
<path d="M5.86426 8.0426L5.76751 8.11289L5.73237 8.06452" fill="white"/>
<path d="M5.63574 8.0426L5.73249 8.11289L5.76763 8.06452" fill="white"/>
<path d="M5.63574 8.0426H5.75533V8.10239" fill="white"/>
<path d="M5.82031 8.17615L5.78336 8.06242L5.72649 8.08089" fill="white"/>
<path d="M5.82031 8.17615L5.72357 8.10586L5.75871 8.05749" fill="white"/>
<path d="M5.67969 8.17615L5.77643 8.10586L5.74129 8.05749" fill="white"/>
<path d="M5.67969 8.17615L5.71664 8.06242L5.77351 8.08089" fill="white"/>
<path d="M5.99707 9.13293L5.96012 9.24667L6.01698 9.26514" fill="white"/>
<path d="M5.99707 9.13293L6.03402 9.24667L5.97716 9.26514" fill="white"/>
<path d="M6.11133 9.21558H5.99174V9.27537" fill="white"/>
<path d="M6.11133 9.21558L6.01458 9.28587L5.97944 9.23749" fill="white"/>
<path d="M5.88379 9.21545L5.98053 9.28574L6.01568 9.23737" fill="white"/>
<path d="M5.88379 9.21545H6.00337V9.27525" fill="white"/>
<path d="M6.06836 9.34924L6.03141 9.23551L5.97454 9.25399" fill="white"/>
<path d="M6.06836 9.34924L5.97161 9.27895L6.00676 9.23058" fill="white"/>
<path d="M5.92676 9.34912L6.0235 9.27883L5.98836 9.23046" fill="white"/>
<path d="M5.92676 9.34912L5.96371 9.23539L6.02058 9.25387" fill="white"/>
<path d="M5.65527 9.40344L5.62448 9.49822L5.67187 9.51362" fill="white"/>
<path d="M5.65527 9.40344L5.68607 9.49822L5.63868 9.51362" fill="white"/>
<path d="M5.75 9.47241H5.65035V9.52224" fill="white"/>
<path d="M5.75 9.47241L5.66938 9.53099L5.64009 9.49068" fill="white"/>
<path d="M5.56055 9.47229L5.64117 9.53086L5.67046 9.49055" fill="white"/>
<path d="M5.56055 9.47229H5.6602V9.52212" fill="white"/>
<path d="M5.71387 9.58374L5.68307 9.48896L5.63568 9.50436" fill="white"/>
<path d="M5.71387 9.58374L5.63325 9.52517L5.66253 9.48486" fill="white"/>
<path d="M5.59668 9.58374L5.6773 9.52517L5.64801 9.48486" fill="white"/>
<path d="M5.59668 9.58374L5.62747 9.48896L5.67486 9.50436" fill="white"/>
<path d="M6.27051 9.02466L6.25291 9.07882L6.27999 9.08761" fill="white"/>
<path d="M6.27051 9.02466L6.2881 9.07882L6.26103 9.08761" fill="white"/>
<path d="M6.32422 9.06384H6.26727V9.09232" fill="white"/>
<path d="M6.32422 9.06384L6.27815 9.09731L6.26141 9.07428" fill="white"/>
<path d="M6.2168 9.06409L6.26287 9.09756L6.2796 9.07452" fill="white"/>
<path d="M6.2168 9.06409H6.27374V9.09256" fill="white"/>
<path d="M6.30273 9.12781L6.28514 9.07365L6.25806 9.08245" fill="white"/>
<path d="M6.30273 9.12781L6.25667 9.09434L6.2734 9.0713" fill="white"/>
<path d="M6.2373 9.12769L6.28337 9.09421L6.26664 9.07118" fill="white"/>
<path d="M6.2373 9.12769L6.2549 9.07353L6.28198 9.08233" fill="white"/>
<path d="M6.57812 9.43005L6.54733 9.52483L6.59472 9.54023" fill="white"/>
<path d="M6.57812 9.43005L6.60892 9.52483L6.56153 9.54023" fill="white"/>
<path d="M6.67188 9.4989H6.57222V9.54873" fill="white"/>
<path d="M6.67188 9.4989L6.59125 9.55748L6.56197 9.51717" fill="white"/>
<path d="M6.4834 9.49878L6.56402 9.55735L6.59331 9.51704" fill="white"/>
<path d="M6.4834 9.49878H6.58305V9.54861" fill="white"/>
<path d="M6.63672 9.61023L6.60592 9.51545L6.55854 9.53085" fill="white"/>
<path d="M6.63672 9.61023L6.5561 9.55165L6.58539 9.51134" fill="white"/>
<path d="M6.51953 9.61023L6.60015 9.55165L6.57086 9.51134" fill="white"/>
<path d="M6.51953 9.61023L6.55033 9.51545L6.59771 9.53085" fill="white"/>
<path d="M6.49512 9.72705L6.47048 9.80287L6.50839 9.81519" fill="white"/>
<path d="M6.49512 9.72705L6.51975 9.80287L6.48184 9.81519" fill="white"/>
<path d="M6.56934 9.7821H6.48961V9.82197" fill="white"/>
<path d="M6.56934 9.7821L6.50484 9.82896L6.48141 9.79672" fill="white"/>
<path d="M6.41895 9.7821L6.48344 9.82896L6.50687 9.79672" fill="white"/>
<path d="M6.41895 9.7821H6.49867V9.82197" fill="white"/>
<path d="M6.54297 9.87122L6.51833 9.7954L6.48042 9.80771" fill="white"/>
<path d="M6.54297 9.87122L6.47847 9.82436L6.5019 9.79211" fill="white"/>
<path d="M6.44824 9.87109L6.51274 9.82423L6.48931 9.79199" fill="white"/>
<path d="M6.44824 9.87109L6.47288 9.79527L6.51079 9.80759" fill="white"/>
<path d="M8.8916 7.59546L8.85465 7.70919L8.91151 7.72767" fill="white"/>
<path d="M8.8916 7.59546L8.92855 7.70919L8.87169 7.72767" fill="white"/>
<path d="M9.00586 7.6781H8.88628V7.73789" fill="white"/>
<path d="M9.00586 7.6781L8.90911 7.74839L8.87397 7.70002" fill="white"/>
<path d="M8.77832 7.6781L8.87507 7.74839L8.91021 7.70002" fill="white"/>
<path d="M8.77832 7.6781H8.8979V7.73789" fill="white"/>
<path d="M8.96289 7.81177L8.92594 7.69804L8.86907 7.71651" fill="white"/>
<path d="M8.96289 7.81177L8.86615 7.74148L8.90129 7.69311" fill="white"/>
<path d="M8.82129 7.81189L8.91803 7.7416L8.88289 7.69323" fill="white"/>
<path d="M8.82129 7.81189L8.85824 7.69816L8.91511 7.71664" fill="white"/>
<path d="M9.9834 9.44055L9.94645 9.55428L10.0033 9.57276" fill="white"/>
<path d="M9.9834 9.44055L10.0204 9.55428L9.96349 9.57276" fill="white"/>
<path d="M10.0967 9.52319H9.9771V9.58299" fill="white"/>
<path d="M10.0967 9.52319L9.99993 9.59348L9.96479 9.54511" fill="white"/>
<path d="M9.86914 9.52307L9.96589 9.59336L10.001 9.54499" fill="white"/>
<path d="M9.86914 9.52307H9.98872V9.58286" fill="white"/>
<path d="M10.0547 9.65686L10.0177 9.54313L9.96087 9.56161" fill="white"/>
<path d="M10.0547 9.65686L9.95794 9.58657L9.99309 9.5382" fill="white"/>
<path d="M9.91309 9.65686L10.0098 9.58657L9.97469 9.5382" fill="white"/>
<path d="M9.91309 9.65686L9.95004 9.54313L10.0069 9.56161" fill="white"/>
<path d="M10.3711 9.50684L10.3465 9.58266L10.3844 9.59497" fill="white"/>
<path d="M10.3711 9.50684L10.3957 9.58266L10.3578 9.59497" fill="white"/>
<path d="M10.4453 9.56189H10.3656V9.60175" fill="white"/>
<path d="M10.4453 9.56189L10.3808 9.60875L10.3574 9.5765" fill="white"/>
<path d="M10.293 9.56189L10.3575 9.60875L10.3809 9.5765" fill="white"/>
<path d="M10.293 9.56189H10.3727V9.60175" fill="white"/>
<path d="M10.418 9.65112L10.3933 9.5753L10.3554 9.58762" fill="white"/>
<path d="M10.418 9.65112L10.3535 9.60426L10.3769 9.57202" fill="white"/>
<path d="M10.3232 9.651L10.3877 9.60414L10.3643 9.57189" fill="white"/>
<path d="M10.3232 9.651L10.3479 9.57518L10.3858 9.5875" fill="white"/>
<path d="M10.0977 9.70715L10.0669 9.80193L10.1142 9.81733" fill="white"/>
<path d="M10.0977 9.70715L10.1285 9.80193L10.0811 9.81733" fill="white"/>
<path d="M10.1934 9.776H10.0937V9.82583" fill="white"/>
<path d="M10.1934 9.776L10.1127 9.83458L10.0835 9.79427" fill="white"/>
<path d="M10.0029 9.776L10.0836 9.83458L10.1128 9.79427" fill="white"/>
<path d="M10.0029 9.776H10.1026V9.82583" fill="white"/>
<path d="M10.1562 9.88733L10.1255 9.79255L10.0781 9.80795" fill="white"/>
<path d="M10.1562 9.88733L10.0756 9.82875L10.1049 9.78844" fill="white"/>
<path d="M10.0391 9.88745L10.1197 9.82888L10.0904 9.78857" fill="white"/>
<path d="M10.0391 9.88745L10.0699 9.79268L10.1172 9.80807" fill="white"/>
<path d="M9.42578 10.2917L9.39499 10.3865L9.44237 10.4019" fill="white"/>
<path d="M9.42578 10.2917L9.45658 10.3865L9.40919 10.4019" fill="white"/>
<path d="M9.52148 10.3605H9.42183V10.4103" fill="white"/>
<path d="M9.52148 10.3605L9.44086 10.419L9.41158 10.3787" fill="white"/>
<path d="M9.33105 10.3607L9.41168 10.4193L9.44096 10.379" fill="white"/>
<path d="M9.33105 10.3607H9.43071V10.4105" fill="white"/>
<path d="M9.48438 10.4722L9.45358 10.3774L9.40619 10.3928" fill="white"/>
<path d="M9.48438 10.4722L9.40375 10.4136L9.43304 10.3733" fill="white"/>
<path d="M9.36719 10.472L9.44781 10.4135L9.41852 10.3732" fill="white"/>
<path d="M9.36719 10.472L9.39798 10.3773L9.44537 10.3927" fill="white"/>
<path d="M9.4209 10.5927L9.39626 10.6685L9.43417 10.6808" fill="white"/>
<path d="M9.4209 10.5927L9.44553 10.6685L9.40762 10.6808" fill="white"/>
<path d="M9.49609 10.6476H9.41637V10.6874" fill="white"/>
<path d="M9.49609 10.6476L9.4316 10.6944L9.40817 10.6622" fill="white"/>
<path d="M9.34473 10.6477L9.40922 10.6946L9.43265 10.6623" fill="white"/>
<path d="M9.34473 10.6477H9.42445V10.6876" fill="white"/>
<path d="M9.46777 10.7368L9.44314 10.661L9.40523 10.6733" fill="white"/>
<path d="M9.46777 10.7368L9.40328 10.69L9.42671 10.6577" fill="white"/>
<path d="M9.37402 10.7368L9.43852 10.69L9.41509 10.6577" fill="white"/>
<path d="M9.37402 10.7368L9.39866 10.661L9.43657 10.6733" fill="white"/>
<path d="M9.70312 10.0914L9.67849 10.1673L9.7164 10.1796" fill="white"/>
<path d="M9.70312 10.0914L9.72776 10.1673L9.68985 10.1796" fill="white"/>
<path d="M9.77832 10.1466H9.6986V10.1865" fill="white"/>
<path d="M9.77832 10.1466L9.71382 10.1935L9.69039 10.1612" fill="white"/>
<path d="M9.62695 10.1466L9.69145 10.1935L9.71488 10.1612" fill="white"/>
<path d="M9.62695 10.1466H9.70668V10.1865" fill="white"/>
<path d="M9.75 10.2358L9.72536 10.16L9.68745 10.1723" fill="white"/>
<path d="M9.75 10.2358L9.6855 10.189L9.70893 10.1567" fill="white"/>
<path d="M9.65625 10.2356L9.72075 10.1887L9.69732 10.1565" fill="white"/>
<path d="M9.65625 10.2356L9.68089 10.1598L9.7188 10.1721" fill="white"/>
<path d="M9.92578 9.93115L9.89499 10.0259L9.94237 10.0413" fill="white"/>
<path d="M9.92578 9.93115L9.95658 10.0259L9.90919 10.0413" fill="white"/>
<path d="M10.0215 9.99988H9.92183V10.0497" fill="white"/>
<path d="M10.0215 9.99988L9.94086 10.0585L9.91158 10.0181" fill="white"/>
<path d="M9.83203 9.99988L9.91265 10.0585L9.94194 10.0181" fill="white"/>
<path d="M9.83203 9.99988H9.93168V10.0497" fill="white"/>
<path d="M9.98535 10.1113L9.95456 10.0166L9.90717 10.0319" fill="white"/>
<path d="M9.98535 10.1113L9.90473 10.0528L9.93402 10.0124" fill="white"/>
<path d="M9.86914 10.1113L9.94976 10.0528L9.92047 10.0124" fill="white"/>
<path d="M9.86914 10.1113L9.89994 10.0166L9.94732 10.0319" fill="white"/>
<path d="M9.41309 10.0383L9.38845 10.1142L9.42636 10.1265" fill="white"/>
<path d="M9.41309 10.0383L9.43772 10.1142L9.39981 10.1265" fill="white"/>
<path d="M9.48926 10.0935H9.40954V10.1334" fill="white"/>
<path d="M9.48926 10.0935L9.42476 10.1404L9.40133 10.1081" fill="white"/>
<path d="M9.33691 10.0935L9.40141 10.1404L9.42484 10.1081" fill="white"/>
<path d="M9.33691 10.0935H9.41664V10.1334" fill="white"/>
<path d="M9.45996 10.1826L9.43533 10.1068L9.39742 10.1191" fill="white"/>
<path d="M9.45996 10.1826L9.39546 10.1358L9.41889 10.1035" fill="white"/>
<path d="M9.36621 10.1826L9.43071 10.1358L9.40728 10.1035" fill="white"/>
<path d="M9.36621 10.1826L9.39085 10.1068L9.42876 10.1191" fill="white"/>
<path d="M6.96582 8.59473L6.93503 8.6895L6.98241 8.7049" fill="white"/>
<path d="M6.96582 8.59473L6.99661 8.6895L6.94923 8.7049" fill="white"/>
<path d="M7.05957 8.66357H6.95992V8.7134" fill="white"/>
<path d="M7.05957 8.66357L6.97895 8.72215L6.94966 8.68184" fill="white"/>
<path d="M6.87012 8.6637L6.95074 8.72227L6.98003 8.68196" fill="white"/>
<path d="M6.87012 8.6637H6.96977V8.71352" fill="white"/>
<path d="M7.02246 8.77515L6.99167 8.68037L6.94428 8.69577" fill="white"/>
<path d="M7.02246 8.77515L6.94184 8.71657L6.97113 8.67626" fill="white"/>
<path d="M6.90723 8.77515L6.98785 8.71657L6.95856 8.67626" fill="white"/>
<path d="M6.90723 8.77515L6.93802 8.68037L6.98541 8.69577" fill="white"/>
<path d="M8.78809 8.36047L8.76345 8.43629L8.80136 8.44861" fill="white"/>
<path d="M8.78809 8.36047L8.81272 8.43629L8.77481 8.44861" fill="white"/>
<path d="M8.8623 8.41553H8.78258V8.45539" fill="white"/>
<path d="M8.8623 8.41553L8.79781 8.46239L8.77438 8.43014" fill="white"/>
<path d="M8.71094 8.41541L8.77543 8.46226L8.79886 8.43002" fill="white"/>
<path d="M8.71094 8.41541H8.79066V8.45527" fill="white"/>
<path d="M8.83496 8.50452L8.81033 8.4287L8.77242 8.44101" fill="white"/>
<path d="M8.83496 8.50452L8.77046 8.45766L8.79389 8.42541" fill="white"/>
<path d="M8.74023 8.50452L8.80473 8.45766L8.7813 8.42541" fill="white"/>
<path d="M8.74023 8.50452L8.76487 8.4287L8.80278 8.44101" fill="white"/>
<path d="M8.0293 9.71362L7.99234 9.82735L8.04921 9.84583" fill="white"/>
<path d="M8.0293 9.71362L8.06625 9.82735L8.00938 9.84583" fill="white"/>
<path d="M8.14258 9.79639H8.02299V9.85618" fill="white"/>
<path d="M8.14258 9.79639L8.04583 9.86668L8.01069 9.8183" fill="white"/>
<path d="M7.91504 9.79626L8.01178 9.86655L8.04693 9.81818" fill="white"/>
<path d="M7.91504 9.79626H8.03462V9.85606" fill="white"/>
<path d="M8.09961 9.92993L8.06266 9.8162L8.00579 9.83468" fill="white"/>
<path d="M8.09961 9.92993L8.00286 9.85964L8.03801 9.81127" fill="white"/>
<path d="M7.95801 9.93005L8.05475 9.85976L8.01961 9.81139" fill="white"/>
<path d="M7.95801 9.93005L7.99496 9.81632L8.05183 9.8348" fill="white"/>
<path d="M8.34961 9.17944L8.31881 9.27422L8.3662 9.28962" fill="white"/>
<path d="M8.34961 9.17944L8.3804 9.27422L8.33302 9.28962" fill="white"/>
<path d="M8.44531 9.24829H8.34566V9.29812" fill="white"/>
<path d="M8.44531 9.24829L8.36469 9.30687L8.3354 9.26656" fill="white"/>
<path d="M8.25488 9.24829L8.3355 9.30687L8.36479 9.26656" fill="white"/>
<path d="M8.25488 9.24829H8.35454V9.29812" fill="white"/>
<path d="M8.4082 9.35986L8.37741 9.26509L8.33002 9.28048" fill="white"/>
<path d="M8.4082 9.35986L8.32758 9.30129L8.35687 9.26098" fill="white"/>
<path d="M8.29199 9.35974L8.37261 9.30117L8.34333 9.26086" fill="white"/>
<path d="M8.29199 9.35974L8.32279 9.26497L8.37017 9.28036" fill="white"/>
<path d="M8.02734 8.92896L7.99655 9.02373L8.04394 9.03913" fill="white"/>
<path d="M8.02734 8.92896L8.05814 9.02373L8.01075 9.03913" fill="white"/>
<path d="M8.12305 8.9978H8.02339V9.04763" fill="white"/>
<path d="M8.12305 8.9978L8.04243 9.05638L8.01314 9.01607" fill="white"/>
<path d="M7.93262 8.99768L8.01324 9.05626L8.04253 9.01594" fill="white"/>
<path d="M7.93262 8.99768H8.03227V9.04751" fill="white"/>
<path d="M8.08496 9.10901L8.05417 9.01423L8.00678 9.02963" fill="white"/>
<path d="M8.08496 9.10901L8.00434 9.05043L8.03363 9.01012" fill="white"/>
<path d="M7.96777 9.10925L8.04839 9.05068L8.01911 9.01037" fill="white"/>
<path d="M7.96777 9.10925L7.99857 9.01448L8.04596 9.02987" fill="white"/>
<path d="M7.74707 9.19946L7.72243 9.27528L7.76034 9.2876" fill="white"/>
<path d="M7.74707 9.19946L7.77171 9.27528L7.7338 9.2876" fill="white"/>
<path d="M7.82227 9.25452H7.74254V9.29438" fill="white"/>
<path d="M7.82227 9.25452L7.75777 9.30138L7.73434 9.26913" fill="white"/>
<path d="M7.6709 9.25452L7.7354 9.30138L7.75883 9.26913" fill="white"/>
<path d="M7.6709 9.25452H7.75062V9.29438" fill="white"/>
<path d="M7.79297 9.34363L7.76833 9.26781L7.73042 9.28013" fill="white"/>
<path d="M7.79297 9.34363L7.72847 9.29677L7.7519 9.26452" fill="white"/>
<path d="M7.69922 9.34351L7.76372 9.29665L7.74029 9.2644" fill="white"/>
<path d="M7.69922 9.34351L7.72385 9.26769L7.76176 9.28" fill="white"/>
<path d="M7.8877 9.41565L7.8701 9.46981L7.89718 9.47861" fill="white"/>
<path d="M7.8877 9.41565L7.90529 9.46981L7.87821 9.47861" fill="white"/>
<path d="M7.94238 9.45508H7.88544V9.48355" fill="white"/>
<path d="M7.94238 9.45508L7.89631 9.48855L7.87958 9.46551" fill="white"/>
<path d="M7.83203 9.45508L7.8781 9.48855L7.89484 9.46551" fill="white"/>
<path d="M7.83203 9.45508H7.88898V9.48355" fill="white"/>
<path d="M7.9209 9.51868L7.9033 9.46452L7.87622 9.47332" fill="white"/>
<path d="M7.9209 9.51868L7.87483 9.48521L7.89156 9.46217" fill="white"/>
<path d="M7.85352 9.5188L7.89958 9.48533L7.88285 9.46229" fill="white"/>
<path d="M7.85352 9.5188L7.87111 9.46464L7.89819 9.47344" fill="white"/>
<path d="M8.8623 10.3601L8.83151 10.4549L8.8789 10.4703" fill="white"/>
<path d="M8.8623 10.3601L8.8931 10.4549L8.84571 10.4703" fill="white"/>
<path d="M8.95703 10.429H8.85738V10.4788" fill="white"/>
<path d="M8.95703 10.429L8.87641 10.4875L8.84712 10.4472" fill="white"/>
<path d="M8.76758 10.429L8.8482 10.4875L8.87749 10.4472" fill="white"/>
<path d="M8.76758 10.429H8.86723V10.4788" fill="white"/>
<path d="M8.9209 10.5404L8.8901 10.4456L8.84272 10.461" fill="white"/>
<path d="M8.9209 10.5404L8.84028 10.4818L8.86956 10.4415" fill="white"/>
<path d="M8.80469 10.5404L8.88531 10.4818L8.85602 10.4415" fill="white"/>
<path d="M8.80469 10.5404L8.83548 10.4456L8.88287 10.461" fill="white"/>
<path d="M9.10254 10.1333L9.0779 10.2091L9.11581 10.2214" fill="white"/>
<path d="M9.10254 10.1333L9.12717 10.2091L9.08926 10.2214" fill="white"/>
<path d="M9.17773 10.1884H9.09801V10.2282" fill="white"/>
<path d="M9.17773 10.1884L9.11324 10.2352L9.08981 10.203" fill="white"/>
<path d="M9.02637 10.1884L9.09086 10.2352L9.11429 10.203" fill="white"/>
<path d="M9.02637 10.1884H9.10609V10.2282" fill="white"/>
<path d="M9.14941 10.2776L9.12478 10.2018L9.08687 10.2141" fill="white"/>
<path d="M9.14941 10.2776L9.08492 10.2307L9.10835 10.1985" fill="white"/>
<path d="M9.05566 10.2775L9.12016 10.2306L9.09673 10.1984" fill="white"/>
<path d="M9.05566 10.2775L9.0803 10.2016L9.11821 10.214" fill="white"/>
<path d="M8.6416 10.0649L8.61697 10.1408L8.65488 10.1531" fill="white"/>
<path d="M8.6416 10.0649L8.66624 10.1408L8.62833 10.1531" fill="white"/>
<path d="M8.71875 10.1199H8.63903V10.1597" fill="white"/>
<path d="M8.71875 10.1199L8.65425 10.1667L8.63082 10.1345" fill="white"/>
<path d="M8.56738 10.12L8.63188 10.1669L8.65531 10.1346" fill="white"/>
<path d="M8.56738 10.12H8.64711V10.1599" fill="white"/>
<path d="M8.69043 10.2092L8.66579 10.1334L8.62788 10.1457" fill="white"/>
<path d="M8.69043 10.2092L8.62593 10.1624L8.64936 10.1301" fill="white"/>
<path d="M8.59668 10.2092L8.66118 10.1624L8.63775 10.1301" fill="white"/>
<path d="M8.59668 10.2092L8.62132 10.1334L8.65923 10.1457" fill="white"/>
<path d="M6.9082 9.94141L6.87125 10.0551L6.92812 10.0736" fill="white"/>
<path d="M6.9082 9.94141L6.94516 10.0551L6.88829 10.0736" fill="white"/>
<path d="M7.02148 10.024H6.9019V10.0838" fill="white"/>
<path d="M7.02148 10.024L6.92474 10.0943L6.88959 10.046" fill="white"/>
<path d="M6.79395 10.024L6.89069 10.0943L6.92584 10.046" fill="white"/>
<path d="M6.79395 10.024H6.91353V10.0838" fill="white"/>
<path d="M6.97852 10.1578L6.94156 10.0441L6.8847 10.0626" fill="white"/>
<path d="M6.97852 10.1578L6.88177 10.0875L6.91692 10.0392" fill="white"/>
<path d="M6.83789 10.1577L6.93464 10.0874L6.89949 10.0391" fill="white"/>
<path d="M6.83789 10.1577L6.87484 10.044L6.93171 10.0625" fill="white"/>
<path d="M8.02637 10.7236L8.01405 10.7615L8.033 10.7677" fill="white"/>
<path d="M8.02637 10.7236L8.03868 10.7615L8.01973 10.7677" fill="white"/>
<path d="M8.06543 10.7511H8.02557V10.771" fill="white"/>
<path d="M8.06543 10.7511L8.03318 10.7745L8.02147 10.7584" fill="white"/>
<path d="M7.98926 10.7511L8.02151 10.7745L8.03322 10.7584" fill="white"/>
<path d="M7.98926 10.7511H8.02912V10.771" fill="white"/>
<path d="M8.0498 10.7957L8.03749 10.7577L8.01853 10.7639" fill="white"/>
<path d="M8.0498 10.7957L8.01756 10.7722L8.02927 10.7561" fill="white"/>
<path d="M8.00391 10.7958L8.03615 10.7723L8.02444 10.7562" fill="white"/>
<path d="M8.00391 10.7958L8.01622 10.7579L8.03518 10.764" fill="white"/>
</g>
</g>
<defs>
<clipPath id="clip0_14757_10148">
<rect y="0.5" width="16" height="16" rx="8" fill="white"/>
</clipPath>
<clipPath id="clip1_14757_10148">
<rect width="22" height="16" fill="white" transform="translate(-2.73828 0.689209)"/>
</clipPath>
<clipPath id="clip2_14757_10148">
<rect width="27.3853" height="16.4312" fill="white" transform="translate(-3)"/>
</clipPath>
<clipPath id="clip3_14757_10148">
<rect width="15.9445" height="11.1611" fill="white" transform="translate(0.0556641 3)"/>
</clipPath>
</defs>
</svg>