<svg width="36" height="24" viewBox="0 0 36 24" fill="none" xmlns="http://www.w3.org/2000/svg">
<g clip-path="url(#clip0_280_1554)">
<path d="M32 0H4C1.79086 0 0 1.79086 0 4V20C0 22.2091 1.79086 24 4 24H32C34.2091 24 36 22.2091 36 20V4C36 1.79086 34.2091 0 32 0Z" fill="white"/>
<path fill-rule="evenodd" clip-rule="evenodd" d="M7.45577 14.4593C7.45577 14.0093 7.23077 14.0393 7.01577 14.0333V13.9033C7.20277 13.9133 7.39377 13.9133 7.58077 13.9133C7.78077 13.9133 8.05377 13.9033 8.40676 13.9033C9.64476 13.9033 10.3188 14.7703 10.3188 15.6573C10.3188 16.1543 10.0418 17.4023 8.34977 17.4023C8.10577 17.4023 7.88177 17.3923 7.65677 17.3923C7.44177 17.3923 7.23077 17.3963 7.01677 17.4023V17.2723C7.30277 17.2413 7.44177 17.2323 7.45577 16.8903V14.4603V14.4593ZM7.92377 16.8103C7.92377 17.1963 8.18677 17.2413 8.42177 17.2413C9.45377 17.2413 9.79277 16.4243 9.79277 15.6773C9.79277 14.7403 9.21977 14.0643 8.29677 14.0643C8.10077 14.0643 8.01077 14.0783 7.92377 14.0843V16.8103ZM10.4868 17.2713H10.5768C10.7108 17.2713 10.8068 17.2713 10.8068 17.1063V15.7473C10.8068 15.5273 10.7348 15.4973 10.5568 15.3973V15.3173C10.7828 15.2463 11.0498 15.1513 11.0688 15.1373C11.0947 15.1205 11.1249 15.1115 11.1558 15.1113C11.1788 15.1113 11.1888 15.1413 11.1888 15.1813V17.1063C11.1888 17.2713 11.2938 17.2713 11.4288 17.2713H11.5088V17.4013C11.3468 17.4013 11.1788 17.3913 11.0078 17.3913C10.8348 17.3913 10.6628 17.3963 10.4868 17.4013V17.2713ZM10.9968 14.3393C10.8728 14.3393 10.7638 14.2193 10.7638 14.0893C10.7638 13.9633 10.8788 13.8483 10.9978 13.8483C11.0604 13.8498 11.1199 13.8758 11.1636 13.9206C11.2073 13.9655 11.2318 14.0256 11.2318 14.0883C11.2318 14.2243 11.1268 14.3393 10.9978 14.3393H10.9968ZM11.9628 15.7783C11.9628 15.5923 11.9098 15.5423 11.6858 15.4473V15.3523C11.8908 15.2823 12.0868 15.2163 12.3158 15.1113C12.3308 15.1113 12.3458 15.1213 12.3458 15.1613V15.4873C12.6178 15.2823 12.8518 15.1113 13.1728 15.1113C13.5788 15.1113 13.7218 15.4213 13.7218 15.8133V17.1063C13.7218 17.2713 13.8268 17.2713 13.9608 17.2713H14.0468V17.4013C13.8788 17.4013 13.7118 17.3913 13.5408 17.3913C13.3678 17.3913 13.1958 17.3963 13.0238 17.4013V17.2713H13.1098C13.2438 17.2713 13.3398 17.2713 13.3398 17.1063V15.8083C13.3398 15.5223 13.1728 15.3823 12.8998 15.3823C12.7468 15.3823 12.5028 15.5123 12.3448 15.6223V17.1063C12.3448 17.2713 12.4508 17.2713 12.5848 17.2713H12.6708V17.4013C12.5028 17.4013 12.3358 17.3913 12.1638 17.3913C11.9918 17.3913 11.8198 17.3963 11.6478 17.4013V17.2713H11.7338C11.8678 17.2713 11.9638 17.2713 11.9638 17.1063L11.9628 15.7783ZM14.4098 16.0193C14.3998 16.0643 14.3998 16.1393 14.4098 16.3093C14.4388 16.7853 14.7298 17.1763 15.1128 17.1763C15.3758 17.1763 15.5818 17.0263 15.7578 16.8403L15.8248 16.9103C15.6048 17.2163 15.3328 17.4773 14.9408 17.4773C14.1808 17.4773 14.0278 16.7053 14.0278 16.3843C14.0278 15.4023 14.6578 15.1113 14.9928 15.1113C15.3798 15.1113 15.7968 15.3663 15.8008 15.8983C15.8008 15.9283 15.8008 15.9583 15.7968 15.9883L15.7528 16.0183H14.4098V16.0193ZM15.2568 15.8583C15.3758 15.8583 15.3898 15.7933 15.3898 15.7323C15.3898 15.4773 15.2418 15.2723 14.9738 15.2723C14.6828 15.2723 14.4818 15.4973 14.4238 15.8583H15.2568ZM15.9108 17.2713H16.0408C16.1738 17.2713 16.2688 17.2713 16.2688 17.1063V15.6973C16.2688 15.5423 16.0928 15.5123 16.0208 15.4723V15.3973C16.3698 15.2413 16.5608 15.1113 16.6048 15.1113C16.6328 15.1113 16.6468 15.1263 16.6468 15.1763V15.6273H16.6568C16.7768 15.4323 16.9768 15.1113 17.2688 15.1113C17.3878 15.1113 17.5408 15.1963 17.5408 15.3773C17.5408 15.5123 17.4508 15.6333 17.3168 15.6333C17.1678 15.6333 17.1678 15.5123 17.0008 15.5123C16.9021 15.5279 16.8125 15.5786 16.7482 15.655C16.6839 15.7314 16.6493 15.8284 16.6508 15.9283V17.1063C16.6508 17.2713 16.7468 17.2713 16.8808 17.2713H17.1488V17.4013C16.8858 17.3963 16.6858 17.3913 16.4798 17.3913C16.2838 17.3913 16.0828 17.3963 15.9108 17.4013V17.2713ZM17.7508 16.7053C17.8128 17.0353 18.0038 17.3173 18.3538 17.3173C18.6348 17.3173 18.7398 17.1363 18.7398 16.9613C18.7398 16.3693 17.6988 16.5603 17.6988 15.7533C17.6988 15.4723 17.9138 15.1113 18.4388 15.1113C18.5918 15.1113 18.7978 15.1563 18.9838 15.2573L19.0168 15.7673H18.9068C18.8598 15.4523 18.6928 15.2723 18.3868 15.2723C18.1948 15.2723 18.0138 15.3873 18.0138 15.6023C18.0138 16.1893 19.1228 16.0083 19.1228 16.7953C19.1228 17.1253 18.8698 17.4773 18.3008 17.4773C18.1098 17.4773 17.8848 17.4073 17.7178 17.3073L17.6648 16.7303L17.7508 16.7053ZM23.4378 14.8103H23.3178C23.2278 14.2243 22.8308 13.9883 22.2958 13.9883C21.7458 13.9883 20.9478 14.3743 20.9478 15.5773C20.9478 16.5903 21.6368 17.3173 22.3728 17.3173C22.8448 17.3173 23.2378 16.9763 23.3328 16.4493L23.4428 16.4793L23.3328 17.2113C23.1328 17.3413 22.5928 17.4773 22.2768 17.4773C21.1588 17.4773 20.4518 16.7203 20.4518 15.5923C20.4518 14.5653 21.3258 13.8283 22.2618 13.8283C22.6498 13.8283 23.0218 13.9583 23.3908 14.0943L23.4378 14.8103ZM23.6098 17.2713H23.7008C23.8348 17.2713 23.9308 17.2713 23.9308 17.1063V14.3143C23.9308 13.9883 23.8588 13.9783 23.6768 13.9243V13.8433C23.8678 13.7783 24.0688 13.6883 24.1698 13.6273C24.2218 13.5973 24.2598 13.5723 24.2748 13.5723C24.3038 13.5723 24.3128 13.6023 24.3128 13.6423V17.1063C24.3128 17.2713 24.4178 17.2713 24.5528 17.2713H24.6328V17.4013C24.4708 17.4013 24.3028 17.3913 24.1318 17.3913C23.9598 17.3913 23.7878 17.3963 23.6108 17.4013L23.6098 17.2713ZM26.6798 17.1263C26.6798 17.2163 26.7318 17.2213 26.8128 17.2213C26.8698 17.2213 26.9418 17.2163 27.0038 17.2163V17.3223C26.7708 17.3564 26.5408 17.4083 26.3158 17.4773L26.2918 17.4623V17.0563C26.0048 17.3013 25.7848 17.4773 25.4448 17.4773C25.1868 17.4773 24.9198 17.3013 24.9198 16.8813V15.5973C24.9198 15.4673 24.8998 15.3413 24.6338 15.3173V15.2213C24.8058 15.2163 25.1868 15.1863 25.2498 15.1863C25.3028 15.1863 25.3028 15.2213 25.3028 15.3323V16.6253C25.3028 16.7753 25.3028 17.2053 25.7178 17.2053C25.8808 17.2053 26.0958 17.0753 26.2958 16.9013V15.5523C26.2958 15.4523 26.0668 15.3973 25.8958 15.3473V15.2573C26.3248 15.2273 26.5928 15.1873 26.6408 15.1873C26.6788 15.1873 26.6788 15.2213 26.6788 15.2773L26.6798 17.1263ZM27.6298 15.4723C27.8208 15.3023 28.0798 15.1113 28.3418 15.1113C28.8968 15.1113 29.2318 15.6183 29.2318 16.1643C29.2318 16.8203 28.7718 17.4773 28.0888 17.4773C27.7348 17.4773 27.5488 17.3573 27.4238 17.3013L27.2808 17.4173L27.1808 17.3623C27.2238 17.0663 27.2478 16.7753 27.2478 16.4693V14.3143C27.2478 13.9883 27.1758 13.9783 26.9938 13.9243V13.8433C27.1858 13.7783 27.3858 13.6883 27.4868 13.6273C27.5388 13.5973 27.5768 13.5723 27.5918 13.5723C27.6198 13.5723 27.6298 13.6023 27.6298 13.6423V15.4723ZM27.6298 16.8353C27.6298 17.0253 27.8018 17.3473 28.1218 17.3473C28.6338 17.3473 28.8488 16.8203 28.8488 16.3743C28.8488 15.8333 28.4568 15.3823 28.0838 15.3823C27.9068 15.3823 27.7588 15.5023 27.6298 15.6183V16.8353ZM7.01077 20.3163H7.04777C7.14077 20.3163 7.23977 20.3033 7.23977 20.1613V18.7313C7.23977 18.5903 7.14077 18.5763 7.04777 18.5763H7.00977V18.4943C7.11177 18.4943 7.26777 18.5053 7.39577 18.5053C7.52577 18.5053 7.68077 18.4953 7.80377 18.4953V18.5763H7.76677C7.67377 18.5763 7.57477 18.5903 7.57477 18.7323V20.1613C7.57477 20.3033 7.67377 20.3163 7.76677 20.3163H7.80377V20.3983C7.67877 20.3983 7.52177 20.3883 7.39277 20.3883C7.26477 20.3883 7.11177 20.3983 7.00977 20.3983L7.01077 20.3163Z" fill="#1A1919"/>
<path fill-rule="evenodd" clip-rule="evenodd" d="M7.986 20.4094C7.832 20.4094 7.641 20.3994 7.482 20.3994C7.326 20.3994 7.139 20.4094 7.014 20.4094H7V20.3044H7.058C7.174 20.3024 7.279 20.2944 7.28 20.1614V18.7314C7.28 18.5984 7.174 18.5904 7.058 18.5884H7V18.4824H7.014C7.139 18.4824 7.33 18.4934 7.486 18.4934C7.644 18.4934 7.836 18.4834 7.986 18.4834H8V18.5884H7.941C7.826 18.5904 7.72 18.5984 7.719 18.7324V20.1614C7.719 20.2944 7.826 20.3014 7.941 20.3044H8V20.4104L7.986 20.4094ZM7.972 20.3864V20.3284H7.942C7.827 20.3284 7.692 20.3114 7.692 20.1614V18.7314C7.692 18.5814 7.827 18.5644 7.942 18.5644H7.972V18.5064C7.825 18.5064 7.64 18.5174 7.486 18.5174C7.334 18.5174 7.151 18.5074 7.028 18.5064V18.5644H7.058C7.172 18.5644 7.308 18.5814 7.308 18.7324V20.1614C7.308 20.3114 7.172 20.3284 7.058 20.3284H7.028V20.3864C7.151 20.3864 7.331 20.3764 7.482 20.3764C7.638 20.3764 7.822 20.3864 7.972 20.3864Z" fill="#1A1919"/>
<path fill-rule="evenodd" clip-rule="evenodd" d="M9.59034 19.8601L9.59534 19.8551V18.8331C9.59534 18.6091 9.44734 18.5761 9.36934 18.5761H9.31234V18.4941C9.43434 18.4941 9.55434 18.5051 9.67634 18.5051C9.78234 18.5051 9.88934 18.4951 9.99634 18.4951V18.5761H9.95734C9.84734 18.5761 9.72534 18.5981 9.72534 18.9221V20.1631C9.72534 20.2591 9.72834 20.3541 9.74034 20.4391H9.64234L8.30234 18.8731V19.9971C8.30234 20.2351 8.34734 20.3161 8.54734 20.3161H8.59134V20.3981C8.47934 20.3981 8.36834 20.3881 8.25634 20.3881C8.13934 20.3881 8.01934 20.3981 7.90234 20.3981V20.3161H7.93934C8.11834 20.3161 8.17334 20.1881 8.17334 19.9701V18.8211C8.17414 18.7894 8.16862 18.7579 8.15709 18.7283C8.14556 18.6987 8.12826 18.6718 8.1062 18.649C8.08414 18.6262 8.05776 18.608 8.02859 18.5955C7.99943 18.583 7.96807 18.5764 7.93634 18.5761H7.90234V18.4941C8.00134 18.4941 8.10234 18.5051 8.20134 18.5051C8.27934 18.5051 8.35534 18.4951 8.43334 18.4951L9.58934 19.8591" fill="#1A1919"/>
<path fill-rule="evenodd" clip-rule="evenodd" d="M9.74158 20.4502L9.63458 20.4472L8.31458 18.9042V19.9972C8.31858 20.2342 8.35258 20.3022 8.54858 20.3042H8.60458V20.4102H8.59258C8.48058 20.4102 8.36858 20.3992 8.25758 20.3992C8.14058 20.3992 8.02158 20.4092 7.90358 20.4092H7.89258V20.3042H7.94058C8.11158 20.3042 8.16058 20.1872 8.16258 19.9702V18.8222C8.16337 18.792 8.15817 18.7619 8.14725 18.7338C8.13634 18.7056 8.11994 18.6799 8.09901 18.6581C8.07807 18.6363 8.05302 18.6189 8.02531 18.6069C7.9976 18.5949 7.96778 18.5885 7.93758 18.5882H7.89258V18.4822H7.90358C8.00358 18.4822 8.10458 18.4932 8.20258 18.4932C8.27958 18.4932 8.35458 18.4832 8.44258 18.4872L9.58558 19.8362V18.8332C9.58458 18.6162 9.44558 18.5902 9.37058 18.5882H9.30158V18.4822H9.31358C9.43658 18.4822 9.55558 18.4932 9.67758 18.4932C9.78358 18.4932 9.88958 18.4832 9.99758 18.4832H10.0086V18.5882H9.95858C9.85158 18.5912 9.74058 18.6012 9.73858 18.9222V20.1632C9.73858 20.2592 9.74058 20.3542 9.75358 20.4372L9.75558 20.4502H9.74158ZM9.64358 20.4272H9.72958C9.71887 20.3396 9.71419 20.2514 9.71558 20.1632V18.9232C9.71558 18.5952 9.84558 18.5642 9.95858 18.5642H9.98558V18.5062C9.88358 18.5062 9.78058 18.5162 9.67758 18.5162C9.55758 18.5162 9.44258 18.5062 9.32458 18.5062V18.5642H9.37058C9.45058 18.5642 9.60858 18.6022 9.60858 18.8332L9.60458 19.8632L9.59958 19.8692L9.59058 19.8782L8.43458 18.5062C8.35658 18.5062 8.28158 18.5162 8.20258 18.5162C8.10658 18.5162 8.00958 18.5062 7.91458 18.5062V18.5642H7.93758C7.97092 18.5644 8.00388 18.5713 8.03451 18.5845C8.06515 18.5977 8.09283 18.6169 8.11594 18.6409C8.13905 18.6649 8.15712 18.6934 8.16908 18.7245C8.18104 18.7556 8.18665 18.7888 8.18558 18.8222V19.9702C8.18558 20.1882 8.12758 20.3282 7.94058 20.3292L7.91458 20.3282V20.3862C8.02758 20.3862 8.14458 20.3762 8.25758 20.3762C8.36558 20.3762 8.47458 20.3862 8.58158 20.3862V20.3292H8.54858C8.34358 20.3282 8.29358 20.2342 8.29258 19.9972V18.8432L9.64358 20.4272ZM10.3866 18.6312C10.1916 18.6312 10.1836 18.6802 10.1446 18.8792H10.0666C10.0766 18.8022 10.0906 18.7262 10.0986 18.6472C10.1086 18.5702 10.1136 18.4942 10.1136 18.4152H10.1766C10.1966 18.4972 10.2626 18.4952 10.3326 18.4952H11.6736C11.7446 18.4952 11.8096 18.4922 11.8146 18.4102L11.8766 18.4202C11.8666 18.4942 11.8566 18.5682 11.8486 18.6422C11.8436 18.7152 11.8436 18.7892 11.8436 18.8622L11.7656 18.8922C11.7596 18.7922 11.7476 18.6312 11.5726 18.6312H11.1466V20.0812C11.1466 20.2922 11.2376 20.3162 11.3626 20.3162H11.4126V20.3982C11.3106 20.3982 11.1286 20.3882 10.9876 20.3882C10.8316 20.3882 10.6496 20.3982 10.5476 20.3982V20.3162H10.5976C10.7406 20.3162 10.8136 20.3032 10.8136 20.0872V18.6312H10.3866Z" fill="#1A1919"/>
<path fill-rule="evenodd" clip-rule="evenodd" d="M11.4107 20.4095C11.3087 20.4095 11.1267 20.3995 10.9867 20.3995C10.8307 20.3995 10.6487 20.4095 10.5467 20.4095H10.5367V20.3045H10.5967C10.7397 20.3015 10.7977 20.2995 10.8007 20.0875V18.6425H10.3857V18.6185H10.8237V20.0885C10.8237 20.3065 10.7397 20.3285 10.5967 20.3285H10.5587V20.3865C10.6607 20.3865 10.8357 20.3765 10.9867 20.3765C11.1227 20.3765 11.2967 20.3865 11.3997 20.3865V20.3295H11.3617C11.2357 20.3295 11.1347 20.2965 11.1347 20.0825V18.6185H11.5717C11.7467 18.6195 11.7697 18.7755 11.7747 18.8765L11.8317 18.8545C11.8317 18.7845 11.8317 18.7125 11.8367 18.6405C11.8437 18.5705 11.8537 18.5005 11.8627 18.4305L11.8227 18.4245C11.8117 18.5035 11.7377 18.5075 11.6727 18.5065H10.3197C10.2577 18.5065 10.1917 18.5035 10.1677 18.4275H10.1247C10.1247 18.5025 10.1197 18.5765 10.1097 18.6485C10.1017 18.7235 10.0897 18.7955 10.0807 18.8685H10.1367C10.1707 18.6785 10.1927 18.6165 10.3867 18.6185V18.6425C10.1947 18.6465 10.1987 18.6805 10.1567 18.8825L10.1547 18.8915H10.0547V18.8775C10.0657 18.8015 10.0797 18.7245 10.0867 18.6455C10.0975 18.5693 10.1029 18.4924 10.1027 18.4155V18.4035H10.1857L10.1877 18.4125C10.2047 18.4815 10.2527 18.4825 10.3197 18.4825H11.6737C11.7467 18.4825 11.7997 18.4805 11.8037 18.4095V18.3965L11.8167 18.3985L11.8897 18.4115L11.8877 18.4235C11.8777 18.4965 11.8677 18.5695 11.8597 18.6435C11.8547 18.7155 11.8547 18.7895 11.8547 18.8635V18.8715L11.8477 18.8745L11.7557 18.9095L11.7547 18.8935C11.7477 18.7915 11.7377 18.6435 11.5727 18.6435H11.1577V20.0825C11.1607 20.2875 11.2377 20.3025 11.3627 20.3045H11.4227V20.4105H11.4127M11.9597 20.3165H11.9957C12.0887 20.3165 12.1877 20.3035 12.1877 20.1615V18.7315C12.1877 18.5905 12.0887 18.5765 11.9957 18.5765H11.9587V18.4945C12.1167 18.4945 12.3887 18.5055 12.6067 18.5055C12.8247 18.5055 13.0957 18.4955 13.2717 18.4955C13.2677 18.6125 13.2697 18.7925 13.2777 18.9125L13.1997 18.9335C13.1867 18.7565 13.1557 18.6155 12.8827 18.6155H12.5217V19.3295H12.8307C12.9867 19.3295 13.0207 19.2365 13.0357 19.0895H13.1137C13.1035 19.2994 13.1035 19.5096 13.1137 19.7195L13.0357 19.7355C13.0207 19.5725 13.0127 19.4655 12.8327 19.4655H12.5217V20.1005C12.5217 20.2785 12.6717 20.2785 12.8377 20.2785C13.1507 20.2785 13.2877 20.2565 13.3657 19.9465L13.4387 19.9645C13.4044 20.1081 13.375 20.2528 13.3507 20.3985C13.1837 20.3985 12.8847 20.3885 12.6507 20.3885C12.4167 20.3885 12.1077 20.3985 11.9587 20.3985V20.3165" fill="#1A1919"/>
<path fill-rule="evenodd" clip-rule="evenodd" d="M13.3493 20.4094C13.1833 20.4094 12.8843 20.3994 12.6503 20.3994C12.4163 20.3994 12.1073 20.4094 11.9583 20.4094H11.9483V20.3044H11.9953C12.0893 20.3034 12.1753 20.2944 12.1753 20.1614V18.7314C12.1753 18.5994 12.0893 18.5904 11.9953 18.5884H11.9473V18.4824H11.9583C12.1183 18.4824 12.3883 18.4934 12.6063 18.4934C12.8243 18.4934 13.0943 18.4834 13.2713 18.4834H13.2833V18.4954C13.2785 18.6341 13.2802 18.7729 13.2883 18.9114V18.9214L13.2793 18.9234L13.1883 18.9484V18.9344C13.1723 18.7574 13.1493 18.6294 12.8823 18.6264H12.5323L12.5313 19.3164H12.8293C12.9793 19.3164 13.0063 19.2354 13.0243 19.0884V19.0774H13.1243V19.0894C13.1145 19.2993 13.1145 19.5095 13.1243 19.7194V19.7294L13.1153 19.7304L13.0253 19.7504L13.0243 19.7374C13.0063 19.5704 13.0043 19.4794 12.8323 19.4774H12.5323V20.1004C12.5323 20.2664 12.6683 20.2654 12.8373 20.2664C13.1503 20.2644 13.2763 20.2484 13.3543 19.9424L13.3573 19.9324L13.3673 19.9334L13.4513 19.9564L13.4493 19.9674C13.415 20.1107 13.3857 20.2551 13.3613 20.4004L13.3593 20.4104L13.3493 20.4094ZM13.3403 20.3864C13.3633 20.2484 13.3923 20.1104 13.4243 19.9734L13.3733 19.9604C13.2953 20.2654 13.1443 20.2924 12.8373 20.2904C12.6733 20.2904 12.5103 20.2904 12.5093 20.1004V19.4544H12.8323C13.0143 19.4524 13.0323 19.5664 13.0453 19.7214L13.1013 19.7094C13.0911 19.5065 13.0911 19.3033 13.1013 19.1004H13.0453C13.0303 19.2434 12.9883 19.3424 12.8293 19.3404H12.5093V18.6024H12.8823C13.1523 18.6004 13.1973 18.7474 13.2093 18.9184L13.2653 18.9024C13.2582 18.7705 13.2565 18.6384 13.2603 18.5064C13.0833 18.5064 12.8203 18.5164 12.6063 18.5164C12.3923 18.5164 12.1293 18.5064 11.9703 18.5064V18.5644H11.9953C12.0873 18.5644 12.1983 18.5814 12.1993 18.7324V20.1614C12.1993 20.3114 12.0873 20.3284 11.9953 20.3294H11.9703V20.3864C12.1213 20.3864 12.4223 20.3764 12.6503 20.3764C12.8803 20.3764 13.1723 20.3864 13.3403 20.3864ZM13.7893 18.7834C13.7893 18.5844 13.6853 18.5764 13.6043 18.5764H13.5573V18.4944C13.6413 18.4944 13.8023 18.5054 13.9613 18.5054C14.1163 18.5054 14.2413 18.4954 14.3793 18.4954C14.7063 18.4954 14.9993 18.5874 14.9993 18.9754C14.9993 19.2204 14.8423 19.3694 14.6373 19.4554L15.0813 20.1524C15.1543 20.2684 15.2063 20.3004 15.3343 20.3164V20.3984C15.2483 20.3984 15.1643 20.3884 15.0793 20.3884C14.9993 20.3884 14.9153 20.3984 14.8343 20.3984C14.6343 20.1234 14.4623 19.8284 14.2943 19.5144H14.1223V20.0984C14.1223 20.3084 14.2153 20.3164 14.3353 20.3164H14.3823V20.3984C14.2333 20.3984 14.0833 20.3884 13.9343 20.3884C13.8103 20.3884 13.6873 20.3984 13.5573 20.3984V20.3164H13.6043C13.7013 20.3164 13.7893 20.2704 13.7893 20.1694V18.7834ZM14.1223 19.4164H14.2493C14.5093 19.4164 14.6493 19.3124 14.6493 18.9904C14.6493 18.7484 14.5013 18.5924 14.2693 18.5924C14.1923 18.5924 14.1593 18.6014 14.1223 18.6034V19.4164Z" fill="#1A1919"/>
<path fill-rule="evenodd" clip-rule="evenodd" d="M15.3349 20.4094C15.2469 20.4094 15.1649 20.3994 15.0789 20.3994C14.9989 20.3994 14.9169 20.4094 14.8259 20.4054C14.6271 20.1248 14.4473 19.8311 14.2879 19.5264H14.1339V20.0984C14.1369 20.3034 14.2149 20.3014 14.3359 20.3044H14.3939V20.4104H14.3819C14.2339 20.4104 14.0819 20.3994 13.9349 20.3994C13.8109 20.3994 13.6889 20.4094 13.5579 20.4094H13.5469V20.3044H13.6049C13.6989 20.3044 13.7779 20.2614 13.7779 20.1694V18.7834C13.7759 18.5904 13.6859 18.5914 13.6049 18.5884H13.5469V18.4824H13.5579C13.6419 18.4824 13.8029 18.4934 13.9619 18.4934C14.1169 18.4934 14.2419 18.4834 14.3799 18.4834C14.7079 18.4834 15.0099 18.5784 15.0099 18.9744C15.0099 19.2204 14.8549 19.3744 14.6549 19.4604L15.0919 20.1464C15.1639 20.2594 15.2099 20.2874 15.3359 20.3044L15.3459 20.3064V20.4104L15.3349 20.4094ZM14.1229 19.5024H14.3009L14.3039 19.5084C14.4739 19.8224 14.6439 20.1164 14.8349 20.3864C14.9149 20.3864 14.9979 20.3764 15.0789 20.3764C15.1619 20.3764 15.2419 20.3854 15.3229 20.3864V20.3264C15.2009 20.3114 15.1439 20.2724 15.0729 20.1594L14.6199 19.4494L14.6329 19.4444C14.8369 19.3594 14.9879 19.2144 14.9879 18.9744C14.9879 18.5964 14.7079 18.5084 14.3799 18.5064C14.2429 18.5064 14.1179 18.5174 13.9619 18.5174C13.8089 18.5174 13.6539 18.5074 13.5689 18.5064V18.5644H13.6049C13.6859 18.5644 13.8009 18.5784 13.8009 18.7844V20.1694C13.8009 20.2794 13.7029 20.3294 13.6049 20.3294H13.5689V20.3864C13.6939 20.3864 13.8129 20.3764 13.9349 20.3764C14.0809 20.3764 14.2269 20.3864 14.3709 20.3864V20.3294H14.3359C14.2169 20.3294 14.1109 20.3134 14.1109 20.0984V19.5024H14.1229ZM14.1229 19.4274H14.1109V18.5924H14.1209C14.1569 18.5894 14.1919 18.5824 14.2709 18.5824C14.5069 18.5824 14.6609 18.7424 14.6609 18.9924C14.6609 19.3174 14.5119 19.4274 14.2499 19.4274H14.1229ZM14.2499 19.4044C14.5069 19.4024 14.6369 19.3084 14.6399 18.9914C14.6379 18.7534 14.4969 18.6054 14.2699 18.6044C14.1999 18.6044 14.1669 18.6114 14.1339 18.6144V19.4044H14.2499ZM17.0999 19.8604L17.1049 19.8554V18.8334C17.1049 18.6094 16.9569 18.5764 16.8789 18.5764H16.8219V18.4944C16.9439 18.4944 17.0629 18.5054 17.1859 18.5054C17.2929 18.5054 17.3989 18.4954 17.5059 18.4954V18.5764H17.4659C17.3579 18.5764 17.2359 18.5984 17.2359 18.9224V20.1634C17.2359 20.2594 17.2379 20.3544 17.2509 20.4394H17.1519L15.8129 18.8734V19.9974C15.8129 20.2354 15.8569 20.3164 16.0569 20.3164H16.1019V20.3984C15.9899 20.3984 15.8779 20.3884 15.7659 20.3884C15.6489 20.3884 15.5289 20.3984 15.4119 20.3984V20.3164H15.4489C15.6289 20.3164 15.6829 20.1884 15.6829 19.9704V18.8214C15.6837 18.7897 15.6781 18.7581 15.6666 18.7286C15.6551 18.699 15.6378 18.672 15.6157 18.6492C15.5937 18.6264 15.5673 18.6083 15.5381 18.5958C15.509 18.5832 15.4776 18.5767 15.4459 18.5764H15.4119V18.4944C15.5109 18.4944 15.6129 18.5054 15.7119 18.5054C15.7889 18.5054 15.8649 18.4954 15.9419 18.4954L17.0999 19.8604Z" fill="#1A1919"/>
<path fill-rule="evenodd" clip-rule="evenodd" d="M17.2494 20.4517L17.1434 20.4487L15.8234 18.9057V19.9987C15.8264 20.2367 15.8604 20.3037 16.0564 20.3057H16.1114V20.4117H16.1014C15.9884 20.4117 15.8764 20.3997 15.7654 20.3997C15.6494 20.3997 15.5284 20.4117 15.4114 20.4117H15.4004V20.3057H15.4484C15.6194 20.3057 15.6684 20.1887 15.6704 19.9717V18.8227C15.6712 18.7926 15.666 18.7626 15.655 18.7345C15.6441 18.7064 15.6277 18.6807 15.6068 18.659C15.5858 18.6373 15.5608 18.62 15.5331 18.6081C15.5053 18.5962 15.4755 18.59 15.4454 18.5897H15.4004V18.4837H15.4114C15.5114 18.4837 15.6124 18.4947 15.7114 18.4947C15.7874 18.4947 15.8624 18.4847 15.9494 18.4877L17.0934 19.8377V18.8347C17.0924 18.6177 16.9534 18.5907 16.8784 18.5897H16.8094V18.4837H16.8214C16.9434 18.4837 17.0634 18.4947 17.1854 18.4947C17.2914 18.4947 17.3974 18.4847 17.5054 18.4847H17.5164V18.5897H17.4664C17.3594 18.5927 17.2484 18.6027 17.2464 18.9237V20.1647C17.2464 20.2607 17.2484 20.3547 17.2614 20.4387L17.2624 20.4517H17.2494ZM17.1514 20.4287H17.2374C17.2268 20.3412 17.2221 20.2529 17.2234 20.1647V18.9247C17.2234 18.5967 17.3554 18.5667 17.4664 18.5657H17.4934V18.5077C17.3914 18.5077 17.2884 18.5177 17.1854 18.5177C17.0654 18.5177 16.9504 18.5077 16.8324 18.5077V18.5657H16.8784C16.9584 18.5657 17.1164 18.6037 17.1164 18.8347L17.1124 19.8647L17.1074 19.8707L17.0994 19.8797L15.9424 18.5077C15.8654 18.5077 15.7894 18.5177 15.7114 18.5177C15.6144 18.5177 15.5174 18.5077 15.4224 18.5077V18.5657H15.4454C15.4786 18.566 15.5115 18.5729 15.5421 18.586C15.5727 18.5991 15.6003 18.6182 15.6234 18.6421C15.6465 18.6661 15.6646 18.6944 15.6766 18.7254C15.6886 18.7564 15.6943 18.7895 15.6934 18.8227V19.9717C15.6934 20.1897 15.6344 20.3297 15.4484 20.3307H15.4224V20.3877C15.5354 20.3877 15.6514 20.3777 15.7654 20.3777C15.8744 20.3777 15.9824 20.3877 16.0894 20.3877V20.3307H16.0564C15.8524 20.3307 15.8014 20.2367 15.8004 19.9987V18.8447L17.1514 20.4287ZM17.9234 20.0107C17.8974 20.1017 17.8664 20.1737 17.8664 20.2227C17.8664 20.3047 17.9764 20.3177 18.0614 20.3177H18.0904V20.3997C17.8919 20.3865 17.6928 20.3865 17.4944 20.3997V20.3177H17.5104C17.6104 20.3177 17.6974 20.2547 17.7364 20.1407L18.1524 18.8887C18.1864 18.7887 18.2324 18.6517 18.2484 18.5507C18.3314 18.5207 18.4364 18.4667 18.4854 18.4327C18.4934 18.4307 18.4984 18.4277 18.5054 18.4277C18.5134 18.4277 18.5184 18.4277 18.5244 18.4357L18.5474 18.5037L19.0264 19.9307C19.0574 20.0257 19.0884 20.1267 19.1214 20.2087C19.1534 20.2857 19.2084 20.3187 19.2944 20.3187H19.3094V20.3997C19.0599 20.3865 18.8099 20.3865 18.5604 20.3997V20.3177H18.5894C18.6494 20.3177 18.7504 20.3077 18.7504 20.2387C18.7405 20.1713 18.723 20.1052 18.6984 20.0417L18.5964 19.7257H18.0064L17.9234 20.0107ZM18.3034 18.8007H18.2974L18.0564 19.5737H18.5424L18.3024 18.8017L18.3034 18.8007Z" fill="#1A1919"/>
<path fill-rule="evenodd" clip-rule="evenodd" d="M19.3104 20.4092C19.1934 20.4042 19.0754 20.3992 18.9524 20.3992C18.8244 20.3992 18.6944 20.4042 18.5624 20.4092L18.5504 20.4102V20.3042H18.5904C18.6504 20.3042 18.7404 20.2902 18.7404 20.2372C18.7301 20.1714 18.7127 20.1071 18.6884 20.0452L18.5894 19.7362H18.0164L17.9354 20.0122C17.9084 20.1042 17.8774 20.1762 17.8774 20.2212C17.8784 20.2872 17.9754 20.3042 18.0624 20.3042H18.1024V20.4102H18.0904C17.9864 20.4042 17.8804 20.3982 17.7764 20.3982C17.6834 20.3982 17.5894 20.4042 17.4964 20.4102H17.4844V20.3042H17.5114C17.6074 20.3042 17.6884 20.2462 17.7264 20.1342L18.1424 18.8832C18.1764 18.7832 18.2224 18.6462 18.2454 18.5372C18.3274 18.5082 18.4324 18.4532 18.4814 18.4202C18.4894 18.4182 18.4964 18.4142 18.5064 18.4142C18.5134 18.4142 18.5264 18.4162 18.5364 18.4302L18.5594 18.4992L19.0384 19.9252C19.0684 20.0212 19.0994 20.1212 19.1334 20.2022C19.1634 20.2752 19.2114 20.3042 19.2954 20.3042H19.3214V20.4102L19.3104 20.4092ZM18.5724 20.3852C18.7024 20.3812 18.8274 20.3752 18.9524 20.3752C19.0724 20.3752 19.1864 20.3812 19.2994 20.3852V20.3282H19.2954C19.2054 20.3282 19.1454 20.2922 19.1124 20.2122C19.0794 20.1292 19.0474 20.0282 19.0164 19.9322L18.5374 18.5062L18.5154 18.4412C18.5134 18.4382 18.5134 18.4382 18.5114 18.4382H18.5064L18.4914 18.4412C18.4197 18.4882 18.342 18.5252 18.2604 18.5512C18.2444 18.6542 18.1974 18.7902 18.1634 18.8912L17.7474 20.1432C17.7074 20.2612 17.6174 20.3292 17.5114 20.3282H17.5064V20.3852C17.5964 20.3812 17.6864 20.3752 17.7764 20.3752C17.8764 20.3752 17.9794 20.3812 18.0784 20.3852V20.3282H18.0624C17.9774 20.3282 17.8584 20.3182 17.8554 20.2212C17.8554 20.1672 17.8884 20.0972 17.9134 20.0052L17.9244 20.0082L17.9134 20.0042L17.9994 19.7132H18.6054L18.7094 20.0372C18.735 20.1014 18.7528 20.1686 18.7624 20.2372C18.7584 20.3212 18.6494 20.3272 18.5904 20.3282H18.5724V20.3852ZM18.0414 19.5832L18.2904 18.7882H18.3044V18.8002H18.3004H18.3034V18.7882H18.3114L18.5584 19.5832H18.0414ZM18.0724 19.5602H18.5274L18.3014 18.8292L18.0724 19.5592V19.5602ZM19.4254 18.6312C19.2304 18.6312 19.2224 18.6802 19.1834 18.8792H19.1044C19.1144 18.8022 19.1284 18.7262 19.1364 18.6472C19.1464 18.5702 19.1514 18.4942 19.1514 18.4152H19.2144C19.2344 18.4972 19.3004 18.4952 19.3704 18.4952H20.7124C20.7824 18.4952 20.8474 18.4922 20.8524 18.4102L20.9144 18.4202C20.9044 18.4942 20.8944 18.5682 20.8864 18.6422C20.8804 18.7152 20.8804 18.7892 20.8804 18.8622L20.8034 18.8922C20.7984 18.7922 20.7854 18.6312 20.6104 18.6312H20.1844V20.0812C20.1844 20.2922 20.2744 20.3162 20.4004 20.3162H20.4504V20.3982C20.3484 20.3982 20.1664 20.3882 20.0254 20.3882C19.8694 20.3882 19.6874 20.3982 19.5854 20.3982V20.3162H19.6354C19.7784 20.3162 19.8514 20.3032 19.8514 20.0872V18.6312H19.4254Z" fill="#1A1919"/>
<path fill-rule="evenodd" clip-rule="evenodd" d="M20.4498 20.4095C20.3468 20.4095 20.1648 20.3995 20.0248 20.3995C19.8698 20.3995 19.6878 20.4095 19.5848 20.4095H19.5748V20.3045H19.6348C19.7788 20.3015 19.8358 20.2995 19.8388 20.0875V18.6425H19.4248V18.6185H19.8618V20.0885C19.8618 20.3065 19.7778 20.3285 19.6348 20.3285H19.5968V20.3865C19.6998 20.3865 19.8738 20.3765 20.0248 20.3765C20.1608 20.3765 20.3348 20.3865 20.4378 20.3865V20.3285H20.3988C20.2738 20.3285 20.1728 20.2965 20.1728 20.0825V18.6185H20.6098C20.7848 18.6195 20.8078 18.7755 20.8128 18.8765L20.8688 18.8545C20.8688 18.7845 20.8688 18.7125 20.8748 18.6405C20.8818 18.5705 20.8918 18.5005 20.9008 18.4305L20.8608 18.4245C20.8498 18.5035 20.7768 18.5075 20.7108 18.5065H19.3558C19.2958 18.5065 19.2288 18.5035 19.2058 18.4265H19.1628C19.1628 18.5025 19.1568 18.5765 19.1468 18.6485C19.1398 18.7245 19.1268 18.7965 19.1168 18.8685H19.1728C19.2068 18.6785 19.2298 18.6155 19.4248 18.6185V18.6425C19.2318 18.6465 19.2358 18.6805 19.1938 18.8825L19.1918 18.8915H19.0918V18.8775C19.1038 18.8015 19.1168 18.7245 19.1238 18.6455C19.1338 18.5695 19.1398 18.4945 19.1398 18.4155V18.4035H19.2218L19.2238 18.4125C19.2428 18.4815 19.2898 18.4825 19.3558 18.4825H20.7118C20.7838 18.4825 20.8358 18.4805 20.8408 18.4095V18.3965L20.8528 18.3985L20.9268 18.4115L20.9248 18.4235C20.9148 18.4965 20.9048 18.5695 20.8968 18.6435C20.8918 18.7155 20.8918 18.7895 20.8918 18.8635V18.8715L20.8838 18.8745L20.7918 18.9095V18.8935C20.7848 18.7915 20.7748 18.6435 20.6098 18.6435H20.1948V20.0825C20.1978 20.2875 20.2748 20.3025 20.3988 20.3045H20.4598V20.4105L20.4498 20.4095ZM21.0098 20.3165H21.0468C21.1398 20.3165 21.2388 20.3035 21.2388 20.1615V18.7315C21.2388 18.5905 21.1398 18.5765 21.0468 18.5765H21.0098V18.4945C21.1118 18.4945 21.2678 18.5055 21.3948 18.5055C21.5248 18.5055 21.6808 18.4955 21.8038 18.4955V18.5765H21.7668C21.6728 18.5765 21.5738 18.5905 21.5738 18.7325V20.1615C21.5738 20.3035 21.6738 20.3165 21.7668 20.3165H21.8038V20.3985C21.6788 20.3985 21.5228 20.3885 21.3928 20.3885C21.2648 20.3885 21.1118 20.3985 21.0098 20.3985V20.3165Z" fill="#1A1919"/>
<path fill-rule="evenodd" clip-rule="evenodd" d="M21.986 20.4094C21.832 20.4094 21.641 20.3994 21.482 20.3994C21.326 20.3994 21.137 20.4094 21.012 20.4094H21V20.3044H21.059C21.174 20.3034 21.279 20.2944 21.28 20.1614V18.7314C21.28 18.5994 21.174 18.5904 21.059 18.5884H21V18.4824H21.014C21.138 18.4824 21.33 18.4934 21.485 18.4934C21.645 18.4934 21.835 18.4834 21.987 18.4834H22V18.5884H21.942C21.826 18.5904 21.721 18.5984 21.72 18.7324V20.1614C21.72 20.2944 21.826 20.3034 21.942 20.3044H22V20.4104H21.987L21.986 20.4094ZM21.971 20.3864V20.3284H21.941C21.827 20.3284 21.691 20.3114 21.691 20.1614V18.7314C21.691 18.5814 21.827 18.5644 21.941 18.5644H21.971V18.5064C21.824 18.5064 21.64 18.5164 21.484 18.5164C21.333 18.5164 21.151 18.5064 21.027 18.5064V18.5644H21.057C21.171 18.5644 21.307 18.5814 21.307 18.7324V20.1614C21.307 20.3114 21.171 20.3284 21.057 20.3284H21.027V20.3864C21.15 20.3854 21.33 20.3764 21.482 20.3764C21.637 20.3764 21.82 20.3864 21.971 20.3864Z" fill="#1A1919"/>
<path fill-rule="evenodd" clip-rule="evenodd" d="M22.8399 18.4531C23.3949 18.4531 23.8369 18.8131 23.8369 19.3951C23.8369 20.0221 23.4069 20.4391 22.8539 20.4391C22.3029 20.4391 21.8809 20.0461 21.8809 19.4591C21.8809 18.8931 22.2989 18.4531 22.8399 18.4531ZM22.8799 20.3191C23.3849 20.3191 23.4729 19.8521 23.4729 19.4551C23.4729 19.0551 23.2679 18.5731 22.8359 18.5731C22.3809 18.5731 22.2459 18.9991 22.2459 19.3641C22.2459 19.8521 22.4589 20.3191 22.8799 20.3191Z" fill="#1A1919"/>
<path fill-rule="evenodd" clip-rule="evenodd" d="M21.8691 19.4594C21.8691 18.8864 22.2931 18.4424 22.8391 18.4414V18.4654C22.3051 18.4654 21.8911 18.8994 21.8911 19.4604C21.8911 20.0404 22.3071 20.4264 22.8531 20.4274C23.4011 20.4274 23.8241 20.0164 23.8251 19.3944C23.8251 18.8214 23.3891 18.4664 22.8391 18.4654V18.4414C23.3971 18.4424 23.8461 18.8064 23.8471 19.3944C23.8471 20.0284 23.4121 20.4494 22.8531 20.4504C22.2971 20.4504 21.8701 20.0534 21.8691 19.4604M22.2331 19.3644C22.2331 18.9974 22.3701 18.5614 22.8351 18.5614C23.2761 18.5624 23.4821 19.0544 23.4831 19.4554C23.4831 19.8524 23.3931 20.3304 22.8791 20.3304V20.3074C23.3741 20.3074 23.4591 19.8524 23.4601 19.4554C23.4601 19.0594 23.2571 18.5864 22.8351 18.5854C22.3891 18.5854 22.2571 19.0014 22.2551 19.3654C22.2551 19.8504 22.4671 20.3064 22.8791 20.3074V20.3304C22.4471 20.3304 22.2341 19.8554 22.2331 19.3644ZM25.5891 19.8604L25.5941 19.8554V18.8334C25.5941 18.6094 25.4451 18.5764 25.3671 18.5764H25.3101V18.4944C25.4321 18.4944 25.5521 18.5054 25.6741 18.5054C25.7811 18.5054 25.8881 18.4954 25.9941 18.4954V18.5764H25.9551C25.8461 18.5764 25.7241 18.5984 25.7241 18.9224V20.1634C25.7241 20.2594 25.7261 20.3544 25.7391 20.4394H25.6411L24.3011 18.8734V19.9974C24.3011 20.2354 24.3451 20.3164 24.5451 20.3164H24.5901V20.3984C24.4781 20.3984 24.3661 20.3884 24.2541 20.3884C24.1371 20.3884 24.0181 20.3984 23.9011 20.3984V20.3164H23.9371C24.1171 20.3164 24.1711 20.1884 24.1711 19.9704V18.8214C24.1721 18.7897 24.1666 18.758 24.1552 18.7284C24.1437 18.6988 24.1264 18.6718 24.1043 18.6489C24.0822 18.6261 24.0558 18.6079 24.0266 18.5955C23.9973 18.583 23.9659 18.5765 23.9341 18.5764H23.9011V18.4944C23.9991 18.4944 24.1011 18.5054 24.2001 18.5054C24.2781 18.5054 24.3531 18.4954 24.4311 18.4954L25.5891 19.8604Z" fill="#1A1919"/>
<path fill-rule="evenodd" clip-rule="evenodd" d="M25.7396 20.4517L25.6326 20.4487L24.3126 18.9057V19.9987C24.3156 20.2367 24.3506 20.3027 24.5456 20.3057H24.6016V20.4117H24.5906C24.4776 20.4117 24.3666 20.4007 24.2546 20.4007C24.1386 20.4007 24.0186 20.4107 23.9006 20.4107H23.8906V20.3057H23.9376C24.1086 20.3057 24.1576 20.1887 24.1606 19.9717V18.8227C24.1614 18.7925 24.1562 18.7624 24.1452 18.7343C24.1342 18.7061 24.1177 18.6804 24.0966 18.6587C24.0756 18.637 24.0504 18.6197 24.0226 18.6079C23.9948 18.596 23.9649 18.5899 23.9346 18.5897H23.8906V18.4837H23.9006C24.0006 18.4837 24.1016 18.4947 24.2006 18.4947C24.2776 18.4947 24.3526 18.4847 24.4406 18.4887L25.5826 19.8377V18.8347C25.5826 18.6177 25.4436 18.5917 25.3676 18.5897H25.2996V18.4837H25.3106C25.4336 18.4837 25.5536 18.4947 25.6746 18.4947C25.7806 18.4947 25.8866 18.4847 25.9946 18.4847H26.0056V18.5897H25.9556C25.8486 18.5927 25.7376 18.6027 25.7356 18.9237V20.1647C25.7356 20.2607 25.7376 20.3557 25.7506 20.4387L25.7526 20.4517H25.7396ZM25.6416 20.4287H25.7266C25.7162 20.3411 25.7115 20.2529 25.7126 20.1647V18.9247C25.7126 18.5967 25.8446 18.5667 25.9556 18.5657H25.9836V18.5077C25.8806 18.5077 25.7786 18.5177 25.6736 18.5177C25.5556 18.5177 25.4396 18.5077 25.3216 18.5077V18.5657H25.3676C25.4476 18.5657 25.6046 18.6037 25.6046 18.8347L25.6026 19.8647L25.5976 19.8707L25.5886 19.8797L24.4316 18.5077C24.3546 18.5077 24.2786 18.5177 24.2006 18.5177C24.1046 18.5177 24.0066 18.5077 23.9116 18.5077V18.5657H23.9346C24.0576 18.5657 24.1826 18.6627 24.1826 18.8227V19.9727C24.1826 20.1897 24.1246 20.3297 23.9376 20.3307H23.9116V20.3877C24.0246 20.3877 24.1416 20.3777 24.2546 20.3777C24.3636 20.3777 24.4716 20.3877 24.5796 20.3877V20.3307H24.5456C24.3416 20.3307 24.2906 20.2367 24.2906 19.9987V18.8447L25.6416 20.4287ZM26.4126 20.0107C26.3876 20.1017 26.3556 20.1737 26.3556 20.2227C26.3556 20.3047 26.4656 20.3177 26.5506 20.3177H26.5806V20.3997C26.3825 20.3865 26.1837 20.3865 25.9856 20.3997L25.9846 20.3177H25.9986C26.1006 20.3177 26.1876 20.2547 26.2256 20.1407L26.6426 18.8887C26.6756 18.7887 26.7226 18.6517 26.7376 18.5507C26.8208 18.5196 26.9005 18.48 26.9756 18.4327C26.9826 18.4307 26.9876 18.4277 26.9956 18.4277C27.0036 18.4277 27.0086 18.4277 27.0136 18.4357L27.0376 18.5037L27.5156 19.9307C27.5466 20.0257 27.5776 20.1267 27.6116 20.2087C27.6436 20.2857 27.6976 20.3187 27.7836 20.3187H27.7996V20.3997C27.5498 20.3864 27.2994 20.3864 27.0496 20.3997V20.3177H27.0796C27.1386 20.3177 27.2396 20.3077 27.2396 20.2387C27.2297 20.1713 27.2123 20.1052 27.1876 20.0417L27.0866 19.7257H26.4966L26.4126 20.0107ZM26.7926 18.8007H26.7876L26.5456 19.5737H27.0326L26.7926 18.8017V18.8007Z" fill="#1A1919"/>
<path fill-rule="evenodd" clip-rule="evenodd" d="M27.7987 20.4091C27.6807 20.4051 27.5647 20.3991 27.4407 20.3991C27.3137 20.3991 27.1827 20.4051 27.0507 20.4091L27.0387 20.4101V20.3041H27.0787C27.1387 20.3041 27.2287 20.2901 27.2287 20.2371C27.2186 20.1713 27.2012 20.1069 27.1767 20.0451L27.0777 19.7361H26.5037L26.4237 20.0121C26.3977 20.1051 26.3667 20.1761 26.3667 20.2211C26.3667 20.2871 26.4647 20.3041 26.5507 20.3041H26.5907V20.4101H26.5787C26.4747 20.4051 26.3687 20.3991 26.2647 20.3991C26.1717 20.3991 26.0787 20.4051 25.9847 20.4091L25.9727 20.4101V20.3041H25.9997C26.0967 20.3041 26.1787 20.2461 26.2167 20.1341L26.6327 18.8831C26.6657 18.7831 26.7127 18.6461 26.7357 18.5381C26.8179 18.5063 26.8969 18.4668 26.9717 18.4201C26.9787 18.4181 26.9857 18.4141 26.9967 18.4141C27.0037 18.4141 27.0167 18.4161 27.0247 18.4301L27.0487 18.4991L27.5277 19.9251C27.5577 20.0211 27.5897 20.1211 27.6237 20.2031C27.6537 20.2751 27.7007 20.3031 27.7837 20.3041H27.8107V20.4101H27.7997L27.7987 20.4091ZM27.0617 20.3861C27.1897 20.3811 27.3167 20.3761 27.4407 20.3761C27.5607 20.3761 27.6747 20.3811 27.7877 20.3861V20.3281H27.7837C27.6947 20.3281 27.6337 20.2921 27.6017 20.2121C27.5667 20.1291 27.5357 20.0281 27.5047 19.9321L27.0267 18.5061C27.0191 18.4845 27.0117 18.4628 27.0047 18.4411C27.0027 18.4381 27.0027 18.4381 27.0007 18.4381H26.9957C26.9897 18.4381 26.9877 18.4401 26.9807 18.4421C26.9087 18.488 26.831 18.5243 26.7497 18.5501C26.7337 18.6541 26.6857 18.7901 26.6527 18.8911L26.2357 20.1431C26.1957 20.2611 26.1057 20.3291 25.9987 20.3281H25.9957V20.3851C26.0857 20.3811 26.1747 20.3751 26.2657 20.3751C26.3657 20.3751 26.4687 20.3811 26.5687 20.3851V20.3281H26.5507C26.4657 20.3281 26.3477 20.3181 26.3437 20.2211C26.3447 20.1671 26.3767 20.0971 26.4027 20.0051L26.4127 20.0081L26.4027 20.0041L26.4877 19.7131H27.0937L27.1987 20.0371C27.2267 20.1251 27.2507 20.1971 27.2507 20.2371C27.2467 20.3211 27.1377 20.3271 27.0787 20.3281H27.0617V20.3861ZM26.5297 19.5831L26.7797 18.7881H26.7927H26.8007L27.0467 19.5831H26.5297ZM26.5617 19.5601H27.0167L26.7897 18.8301L26.5617 19.5601ZM26.7817 18.8031L26.7877 18.8011L26.7827 18.8031H26.7817ZM28.4547 20.1311C28.4547 20.2411 28.5267 20.2721 28.6107 20.2841C28.7167 20.2921 28.8337 20.2921 28.9537 20.2781C29.0031 20.2718 29.0508 20.2556 29.0938 20.2303C29.1368 20.205 29.1742 20.1713 29.2037 20.1311C29.2411 20.0703 29.2681 20.0037 29.2837 19.9341H29.3587C29.3307 20.0901 29.2937 20.2431 29.2627 20.3981C29.0347 20.3981 28.8047 20.3881 28.5767 20.3881C28.3467 20.3881 28.1187 20.3981 27.8897 20.3981V20.3161H27.9257C28.0197 20.3161 28.1217 20.3031 28.1217 20.1341V18.7321C28.1217 18.5901 28.0197 18.5761 27.9257 18.5761H27.8897V18.4941C28.0277 18.4941 28.1627 18.5051 28.3007 18.5051C28.4337 18.5051 28.5637 18.4951 28.6967 18.4951V18.5761H28.6307C28.5317 18.5761 28.4547 18.5791 28.4547 18.7241V20.1311Z" fill="#1A1919"/>
<path fill-rule="evenodd" clip-rule="evenodd" d="M29.2629 20.41C29.0339 20.41 28.8049 20.4 28.5769 20.4C28.3479 20.4 28.1189 20.41 27.8899 20.41H27.8789V20.305H27.9259C28.0199 20.303 28.1099 20.296 28.1109 20.135V18.732C28.1099 18.6 28.0209 18.591 27.9259 18.589H27.8789V18.483H27.8889C28.0289 18.483 28.1639 18.494 28.3009 18.494C28.4329 18.494 28.5629 18.484 28.6969 18.484H28.7069V18.589H28.6309C28.5309 18.592 28.4679 18.587 28.4659 18.725V20.132C28.4659 20.234 28.5299 20.261 28.6109 20.272C28.7245 20.28 28.8386 20.2783 28.9519 20.267C28.9997 20.2607 29.0457 20.2449 29.0873 20.2205C29.1289 20.1961 29.1651 20.1636 29.1939 20.125C29.2307 20.0658 29.2574 20.0009 29.2729 19.933L29.2749 19.923H29.3729L29.3709 19.938C29.3409 20.094 29.3059 20.246 29.2739 20.401L29.2719 20.411L29.2629 20.41ZM29.2529 20.387C29.2829 20.239 29.3179 20.094 29.3459 19.947H29.2919C29.276 20.0149 29.249 20.0798 29.2119 20.139C29.1814 20.1802 29.143 20.2149 29.0988 20.241C29.0547 20.2672 29.0057 20.2841 28.9549 20.291C28.84 20.3031 28.7242 20.3048 28.6089 20.296C28.5249 20.286 28.4429 20.248 28.4429 20.132V18.725C28.4429 18.573 28.5339 18.565 28.6309 18.565H28.6849V18.507C28.5569 18.507 28.4299 18.518 28.3009 18.518C28.1659 18.518 28.0349 18.508 27.9009 18.507V18.565H27.9259C28.0189 18.565 28.1329 18.582 28.1329 18.732V20.135C28.1329 20.311 28.0199 20.329 27.9259 20.329H27.9019V20.387C28.1259 20.387 28.3519 20.377 28.5769 20.377C28.8029 20.377 29.0279 20.387 29.2529 20.387ZM29.5539 18.418C29.6209 18.4179 29.6873 18.4314 29.749 18.4575C29.8107 18.4836 29.8666 18.5219 29.9132 18.57C29.9599 18.6182 29.9964 18.6752 30.0205 18.7377C30.0447 18.8002 30.0561 18.867 30.0539 18.934C30.0539 19.224 29.8399 19.448 29.5539 19.448C29.4869 19.4484 29.4206 19.4353 29.3588 19.4095C29.297 19.3836 29.2411 19.3455 29.1944 19.2975C29.1477 19.2495 29.1111 19.1926 29.087 19.1301C29.0629 19.0676 29.0516 19.0009 29.0539 18.934C29.0518 18.867 29.0631 18.8002 29.0873 18.7377C29.1114 18.6752 29.1479 18.6182 29.1946 18.57C29.2412 18.5219 29.2971 18.4836 29.3588 18.4575C29.4205 18.4314 29.4869 18.4179 29.5539 18.418ZM29.5539 19.352C29.7779 19.352 29.9489 19.156 29.9489 18.934C29.9489 18.712 29.7799 18.514 29.5539 18.514C29.3289 18.514 29.1579 18.712 29.1579 18.934C29.1579 19.156 29.3279 19.352 29.5539 19.352ZM29.3049 19.206V19.181C29.3659 19.172 29.3779 19.174 29.3779 19.135V18.753C29.3779 18.699 29.3729 18.681 29.3079 18.683V18.658H29.5629C29.6509 18.658 29.7329 18.701 29.7329 18.795C29.7329 18.8305 29.7211 18.8649 29.6994 18.893C29.6777 18.9211 29.6473 18.9411 29.6129 18.95L29.6959 19.068C29.7261 19.114 29.7632 19.1552 29.8059 19.19V19.206H29.7089C29.6619 19.206 29.6209 19.105 29.5289 18.969H29.4739V19.14C29.4739 19.174 29.4849 19.172 29.5469 19.181V19.206H29.3049ZM29.4739 18.934H29.5329C29.5969 18.934 29.6269 18.884 29.6269 18.803C29.6269 18.721 29.5809 18.692 29.5299 18.692H29.4739V18.934Z" fill="#1A1919"/>
<path fill-rule="evenodd" clip-rule="evenodd" d="M13.0859 8.86609C13.0859 6.31509 15.0579 4.24609 17.4899 4.24609C19.9229 4.24609 21.8949 6.31509 21.8949 8.86609C21.8949 11.4161 19.9229 13.4851 17.4899 13.4851C15.0579 13.4851 13.0859 11.4181 13.0859 8.86609Z" fill="#FFFFFE"/>
<path fill-rule="evenodd" clip-rule="evenodd" d="M20.1535 8.776C20.1515 7.593 19.4465 6.584 18.4535 6.185V11.367C19.4465 10.967 20.1515 9.959 20.1535 8.776ZM16.5585 11.366V6.186C15.5655 6.586 14.8615 7.593 14.8585 8.776C14.8615 9.958 15.5655 10.966 16.5585 11.366ZM17.5065 4.396C15.1995 4.396 13.3305 6.356 13.3305 8.776C13.3305 11.195 15.1995 13.154 17.5065 13.155C19.8125 13.155 21.6815 11.195 21.6825 8.775C21.6825 6.357 19.8125 4.398 17.5065 4.396ZM17.4965 13.568C14.9715 13.581 12.8945 11.436 12.8945 8.826C12.8945 5.973 14.9715 3.999 17.4955 4H18.6785C19.3098 3.99942 19.935 4.12427 20.5176 4.36729C21.1002 4.61031 21.6288 4.96666 22.0726 5.41565C22.5164 5.86465 22.8665 6.39733 23.1027 6.98277C23.3389 7.56822 23.4565 8.19475 23.4485 8.826C23.4485 11.436 21.1725 13.568 18.6785 13.568H17.4965Z" fill="#0069AA"/>
</g>
<defs>
<clipPath id="clip0_280_1554">
<rect width="36" height="24" fill="white"/>
</clipPath>
</defs>
</svg>
