<svg width="20" height="20" viewBox="0 0 20 20" fill="none" xmlns="http://www.w3.org/2000/svg">
<path d="M6.40009 15.9999C7.2232 15.9989 7.98844 15.5762 8.42742 14.88C8.86642 14.1837 8.91805 13.311 8.56407 12.5678L12.5641 8.56783C13.2508 8.8957 14.0523 8.87838 14.7242 8.52128C15.3962 8.16418 15.8589 7.50956 15.9715 6.75695C16.0841 6.00435 15.833 5.24301 15.2949 4.70495C14.7569 4.16686 13.9955 3.91581 13.2429 4.02838C12.4903 4.14095 11.8357 4.60371 11.4786 5.27565C11.1215 5.94765 11.1042 6.74915 11.4321 7.43581L7.43206 11.4358C6.77334 11.1199 6.00661 11.1212 5.34889 11.4394C4.69127 11.7576 4.21439 12.3579 4.05326 13.0705C3.89212 13.7831 4.06439 14.5302 4.52109 15.1003C4.97786 15.6705 5.66946 16.0016 6.39992 15.9998L6.40009 15.9999ZM13.6001 5.59991C13.8123 5.59991 14.0157 5.68422 14.1658 5.83423C14.3158 5.9843 14.4001 6.18775 14.4001 6.39991C14.4001 6.61208 14.3158 6.81555 14.1658 6.9656C14.0157 7.1156 13.8123 7.19991 13.6001 7.19991C13.3879 7.19991 13.1845 7.1156 13.0344 6.9656C12.8844 6.81553 12.8001 6.61208 12.8001 6.39991C12.8001 6.18775 12.8844 5.98428 13.0344 5.83423C13.1845 5.68423 13.3879 5.59991 13.6001 5.59991ZM6.40009 12.7999C6.61225 12.7999 6.81572 12.8842 6.96577 13.0342C7.11577 13.1843 7.20009 13.3877 7.20009 13.5999C7.20009 13.8121 7.11578 14.0155 6.96577 14.1656C6.81571 14.3156 6.61225 14.3999 6.40009 14.3999C6.18792 14.3999 5.98445 14.3156 5.8344 14.1656C5.6844 14.0155 5.60009 13.8121 5.60009 13.5999C5.60009 13.3877 5.6844 13.1843 5.8344 13.0342C5.98447 12.8842 6.18792 12.7999 6.40009 12.7999Z" fill="white"/>
<path d="M14.4 13.5999C14.4 13.8121 14.3157 14.0156 14.1657 14.1656C14.0156 14.3156 13.8122 14.3999 13.6 14.3999H10V15.9999H13.6C14.2365 15.9999 14.8469 15.7471 15.297 15.297C15.7471 14.8469 15.9999 14.2364 15.9999 13.6V10H14.3999L14.4 13.5999Z" fill="white"/>
<path d="M5.59993 6.4C5.59993 6.18783 5.68424 5.98437 5.83425 5.83432C5.98431 5.68432 6.18777 5.6 6.39993 5.6H9.99993V4H6.39993C5.76342 4 5.153 4.25287 4.70293 4.70293C4.25287 5.15307 4 5.76348 4 6.39993V9.99993H5.6L5.59993 6.4Z" fill="white"/>
</svg>
