<svg width="20" height="20" viewBox="0 0 20 20" fill="none" xmlns="http://www.w3.org/2000/svg">
<path d="M14.8008 14.8008H16.4008V16.4008H14.8008V14.8008Z" fill="white"/>
<path d="M14.8008 3.59961H16.4008V5.19961H14.8008V3.59961Z" fill="white"/>
<path d="M3.59961 3.59961H5.19961V5.19961H3.59961V3.59961Z" fill="white"/>
<path d="M3.59961 14.8008H5.19961V16.4008H3.59961V14.8008Z" fill="white"/>
<path d="M14.0472 7.04402L10.8472 5.04402C10.5929 4.8851 10.2991 4.80078 9.99922 4.80078C9.69935 4.80078 9.40554 4.88509 9.15124 5.04402L5.95124 7.04402C5.48365 7.33627 5.19949 7.84863 5.19922 8.4V11.6C5.19948 12.1514 5.48365 12.6637 5.95124 12.956L9.15124 14.956C9.40554 15.1149 9.69935 15.1992 9.99922 15.1992C10.2991 15.1992 10.5929 15.1149 10.8472 14.956L14.0472 12.956C14.5148 12.6637 14.799 12.1514 14.7992 11.6V8.4C14.799 7.84863 14.5148 7.33627 14.0472 7.04402ZM13.1992 8.4V10.986L10.7992 9.54603V6.90003L13.1992 8.4ZM9.19922 6.9V9.548L6.79922 10.988V8.39997L9.19922 6.9ZM9.99922 13.6L7.82122 12.24L9.99922 10.932L12.1772 12.24L9.99922 13.6Z" fill="white"/>
</svg>
