<svg width="36" height="24" viewBox="0 0 36 24" fill="none" xmlns="http://www.w3.org/2000/svg">
<g clip-path="url(#clip0_280_1547)">
<path d="M32 0H4C1.79086 0 0 1.79086 0 4V20C0 22.2091 1.79086 24 4 24H32C34.2091 24 36 22.2091 36 20V4C36 1.79086 34.2091 0 32 0Z" fill="white"/>
<path d="M9 24H32.002C32.5274 24.0007 33.0477 23.8976 33.5332 23.6968C34.0187 23.496 34.4598 23.2014 34.8312 22.8298C35.2026 22.4582 35.497 22.0169 35.6976 21.5314C35.8982 21.0458 36.0009 20.5254 36 20V13.5C36 13.5 26.464 20.754 9 24Z" fill="#E6772F"/>
<path fill-rule="evenodd" clip-rule="evenodd" d="M6.263 13.61C5.991 13.868 5.643 13.981 5.088 13.981H4.858V10.896H5.088C5.643 10.896 5.978 11.001 6.263 11.273C6.559 11.553 6.736 11.986 6.736 12.433C6.736 12.883 6.559 13.332 6.263 13.61ZM5.26 10.104H4V14.771H5.253C5.919 14.771 6.4 14.602 6.823 14.231C7.323 13.791 7.62 13.127 7.62 12.439C7.62 11.061 6.65 10.104 5.26 10.104ZM8.016 10.105H8.871V14.772H8.016V10.105ZM10.97 11.894C10.454 11.694 10.303 11.559 10.303 11.307C10.303 11.014 10.573 10.792 10.943 10.792C11.2 10.792 11.411 10.901 11.637 11.167L12.083 10.547C11.7366 10.2125 11.2736 10.026 10.792 10.027C10.014 10.027 9.42 10.602 9.42 11.362C9.42 12.007 9.696 12.334 10.5 12.645C10.837 12.769 11.008 12.854 11.095 12.911C11.1751 12.9628 11.2407 13.0342 11.2856 13.1183C11.3306 13.2024 11.3534 13.2966 11.352 13.392C11.352 13.772 11.068 14.051 10.685 14.051C10.277 14.051 9.947 13.834 9.749 13.427L9.197 13.995C9.592 14.61 10.066 14.885 10.718 14.885C11.608 14.885 12.236 14.252 12.236 13.351C12.236 12.609 11.946 12.272 10.969 11.894M12.506 12.44C12.506 13.812 13.521 14.875 14.827 14.875C15.196 14.875 15.512 14.798 15.901 14.603V13.531C15.557 13.897 15.255 14.042 14.865 14.042C14.001 14.042 13.39 13.379 13.39 12.433C13.39 11.539 14.021 10.831 14.827 10.831C15.234 10.831 15.545 10.984 15.901 11.356V10.286C15.525 10.084 15.217 10 14.845 10C13.545 10 12.506 11.084 12.506 12.44ZM22.849 13.238L21.676 10.105H20.741L22.606 14.889H23.066L24.966 10.105H24.038L22.849 13.238ZM25.355 14.772H27.787V13.981H26.213V12.721H27.727V11.931H26.213V10.896H27.787V10.106H25.355V14.772ZM29.462 12.251H29.213V10.84H29.476C30.012 10.84 30.299 11.078 30.299 11.533C30.299 12 30.012 12.251 29.462 12.251ZM31.182 11.482C31.182 10.608 30.617 10.105 29.627 10.105H28.353V14.772H29.213V12.896H29.325L30.509 14.772H31.565L30.181 12.805C30.828 12.665 31.182 12.196 31.182 11.482Z" fill="#1A1919"/>
<path fill-rule="evenodd" clip-rule="evenodd" d="M20.8623 12.4496C20.8623 13.7936 19.8363 14.8826 18.5703 14.8826C17.3033 14.8826 16.2773 13.7936 16.2773 12.4506C16.2773 11.1066 17.3033 10.0176 18.5703 10.0176C19.8363 10.0176 20.8623 11.1066 20.8623 12.4506" fill="#E6772F"/>
</g>
<defs>
<clipPath id="clip0_280_1547">
<rect width="36" height="24" fill="white"/>
</clipPath>
</defs>
</svg>
