<svg width="116" height="25" viewBox="0 0 116 25" fill="none" xmlns="http://www.w3.org/2000/svg">
<mask id="mask0_280_2062" style="mask-type:luminance" maskUnits="userSpaceOnUse" x="0" y="0" width="116" height="25">
<path d="M116 0H0V25H116V0Z" fill="white"/>
</mask>
<g mask="url(#mask0_280_2062)">
<path fill-rule="evenodd" clip-rule="evenodd" d="M19.3 0H5.70001C2.60001 0 0 2.5 0 5.7V19.3C0 22.4 2.50001 25 5.70001 25H19.3C22.4 25 25 22.5 25 19.3V5.7C24.9 2.5 22.4 0 19.3 0ZM15.6 6.7C16.2 6.7 16.7 7.2 16.7 7.8C16.7 8.4 16.2 8.89999 15.6 8.89999C15 8.89999 14.5 8.4 14.5 7.8C14.5 7.2 15 6.7 15.6 6.7ZM15.6 9.89999C16.2 9.89999 16.7 10.4 16.7 11C16.7 11.6 16.2 12.1 15.6 12.1C15 12.1 14.5 11.6 14.5 11C14.5 10.4 15 9.89999 15.6 9.89999ZM12.4 6.7C13 6.7 13.5 7.2 13.5 7.8C13.5 8.4 13 8.89999 12.4 8.89999C11.8 8.89999 11.3 8.4 11.3 7.8C11.3 7.2 11.8 6.7 12.4 6.7ZM12.4 9.89999C13 9.89999 13.5 10.4 13.5 11C13.5 11.6 13 12.1 12.4 12.1C11.8 12.1 11.3 11.6 11.3 11C11.3 10.4 11.8 9.89999 12.4 9.89999ZM9.29999 6.7C9.89999 6.7 10.4 7.2 10.4 7.8C10.4 8.4 9.89999 8.89999 9.29999 8.89999C8.69999 8.89999 8.20001 8.4 8.20001 7.8C8.10001 7.2 8.59999 6.7 9.29999 6.7ZM9.29999 9.89999C9.89999 9.89999 10.4 10.4 10.4 11C10.4 11.6 9.89999 12.1 9.29999 12.1C8.69999 12.1 8.20001 11.6 8.20001 11C8.10001 10.4 8.59999 9.89999 9.29999 9.89999ZM6.20001 21.8C5.00001 21.8 4 20.8 4 19.6C4 18.4 5.00001 17.4 6.20001 17.4C7.40001 17.4 8.40002 18.4 8.40002 19.6C8.40002 20.9 7.40001 21.8 6.20001 21.8ZM18.6 21.9C17.4 21.9 16.4 20.9 16.4 19.7C16.4 18.5 17.4 17.5 18.6 17.5C19.8 17.5 20.8 18.5 20.8 19.7C20.8 20.9 19.8 21.9 18.6 21.9ZM22.4 4.39999L20.2 12.7C19.6 14.9 17.7 16.3 15.4 16.3H14C13.5 16.3 12.8 16 12.5 15.8C12.5 15.8 12.4 15.8 12.3 15.8C12 16.1 11.3 16.3 10.8 16.3H9.20001C7.00001 16.3 5.29998 15 4.59998 12.9L2.70001 7C2.70001 6.9 2.69999 6.8 2.79999 6.7C2.89999 6.6 2.99998 6.5 3.09998 6.5H3.5C4.4 6.5 5.10002 7.09999 5.40002 7.89999L6.79999 12.3C7.19999 13.5 8.39998 14.3 9.59998 14.3H10.1C10.7 14.3 11 14 11.3 13.8C11.4 13.7 11.6 13.6 11.8 13.6H13C13.2 13.6 13.3 13.7 13.5 13.8C13.7 14.1 14.1 14.4 14.7 14.4H15.2C16.5 14.4 17.7 13.5 18.1 12.3L19.9 5.60001C20.1 4.70001 20.9 4.10001 21.8 4.10001H22.1H22.2C22.4 4.00001 22.5 4.19999 22.4 4.39999Z" fill="black"/>
<path fill-rule="evenodd" clip-rule="evenodd" d="M18.6008 19C18.2008 19 17.8008 19.3 17.8008 19.8C17.8008 20.2 18.1008 20.6 18.6008 20.6C19.0008 20.6 19.4008 20.3 19.4008 19.8C19.4008 19.3 19.1008 19 18.6008 19Z" fill="black"/>
<path fill-rule="evenodd" clip-rule="evenodd" d="M6.20038 18.9004C5.80038 18.9004 5.40039 19.2004 5.40039 19.7004C5.40039 20.1004 5.70038 20.5004 6.20038 20.5004C6.60038 20.5004 7.00037 20.2004 7.00037 19.7004C7.00037 19.2004 6.60038 18.9004 6.20038 18.9004Z" fill="black"/>
<path d="M66.6 18.9008C66 18.9008 65.4 18.9008 65.2 19.4008C64.3 20.9008 62.4 21.4008 60.8 21.4008C57.6 21.4008 55.2 18.8008 55.2 15.6008C55.2 12.4008 57.6 9.80078 60.8 9.80078C62.2 9.80078 64 10.1008 65.1 11.7008C65.4 12.2008 66 12.1008 66.6 12.1008C67.4 12.1008 67.2 11.2008 66.9 10.7008C65.3 8.30078 62.7 7.80078 60.8 7.80078C56.5 7.80078 53 11.3008 53 15.6008C53 19.9008 56.5 23.4008 60.8 23.4008C63.6 23.4008 66 22.2008 67 20.3008C67.3 19.8008 67.5 18.9008 66.6 18.9008Z" fill="black"/>
<path d="M95.9004 8.19922C95.3004 8.19922 94.9004 8.39922 94.9004 8.99922V22.4992C94.9004 23.0992 95.4004 23.1992 95.9004 23.1992C96.5004 23.1992 96.9004 22.9992 96.9004 22.4992V8.99922C96.9004 8.49922 96.5004 8.19922 95.9004 8.19922Z" fill="black"/>
<path d="M95.8997 1.59961C95.1997 1.59961 94.5996 2.1996 94.5996 2.8996C94.5996 3.5996 95.1997 4.1996 95.8997 4.1996C96.5997 4.1996 97.1996 3.5996 97.1996 2.8996C97.1996 2.1996 96.5997 1.59961 95.8997 1.59961Z" fill="black"/>
<path d="M90.1996 8.30078C90.0996 8.30078 90.0996 8.30078 90.1996 8.30078C90.0996 8.30078 89.1997 8.30078 88.8997 9.00078C88.5997 9.70078 87.0996 14.5008 85.4996 19.2008C85.3996 19.4008 85.3996 19.5008 85.2996 19.6008L81.7996 10.9008C81.5996 10.5008 81.3996 10.2008 81.0996 10.1008C80.8996 10.0008 80.6996 9.90077 80.4996 9.90077C80.2996 9.90077 80.0997 10.0008 79.8997 10.1008C79.5997 10.3008 79.3996 10.5008 79.1996 10.9008L75.6996 19.6008C75.5996 19.5008 75.5996 19.3008 75.4996 19.2008C73.8996 14.5008 72.3996 9.70078 72.0996 9.00078C71.7996 8.30078 70.7996 8.30078 70.7996 8.30078C70.2996 8.30078 70.0996 8.40078 70.0996 8.80078C70.0996 8.90078 70.0996 9.00078 70.0996 9.10078C70.1996 9.40078 72.5996 16.8008 74.5996 22.4008C74.6996 22.8008 74.9996 23.3008 75.6996 23.3008C76.0996 23.3008 76.4996 23.0008 76.5996 22.7008L80.2996 13.2008C80.2996 13.1008 80.3996 13.1008 80.4996 13.1008C80.5996 13.1008 80.6996 13.1008 80.6996 13.2008L84.3997 22.7008C84.4997 23.0008 84.8996 23.3008 85.2996 23.3008C85.9996 23.3008 86.1997 22.8008 86.3997 22.4008C88.2997 16.8008 90.7997 9.40078 90.8997 9.10078C90.8997 9.00078 90.8997 8.90078 90.8997 8.80078C90.8997 8.50078 90.6996 8.30078 90.1996 8.30078Z" fill="black"/>
<path d="M50.0996 21.0996H36.7996C36.5996 21.0996 36.3997 20.8996 36.3997 20.6996V13.1996H47.9996C48.4996 13.1996 48.7996 12.6996 48.7996 12.0996C48.7996 11.4996 48.5996 10.9996 47.9996 10.9996H36.3997V4.1996C36.3997 3.9996 36.5996 3.79961 36.7996 3.79961H50.0996C50.5996 3.79961 50.8997 3.2996 50.8997 2.6996C50.8997 2.0996 50.6996 1.59961 50.0996 1.59961H35.0996C34.4996 1.59961 34.0996 2.1996 34.0996 2.9996V21.8996C34.0996 22.4996 34.3996 22.9996 34.9996 22.9996H50.0996C50.5996 22.9996 50.8997 22.4996 50.8997 21.8996C50.8997 21.5996 50.5996 21.0996 50.0996 21.0996Z" fill="black"/>
<path d="M115 1.59961C114.4 1.59961 114 1.7996 114 2.3996V10.3996C112.8 8.4996 110.6 7.8996 108.7 7.8996C104.4 7.8996 100.9 11.3996 100.9 15.6996C100.9 19.9996 104.4 23.4996 108.7 23.4996C110.4 23.4996 113 22.6996 114 20.7996V22.4996C114 22.9996 114.5 23.1996 115 23.1996C115.6 23.1996 116 22.9996 116 22.4996V20.3996V3.8996V2.4996C116.1 1.8996 115.6 1.59961 115 1.59961ZM108.7 21.3996C105.5 21.3996 103.1 18.7996 103.1 15.5996C103.1 12.3996 105.5 9.79961 108.7 9.79961C110.5 9.79961 114 10.8996 114 14.9996V15.8996C114 20.0996 110.4 21.3996 108.7 21.3996Z" fill="black"/>
</g>
</svg>
