<svg width="67" height="32" viewBox="0 0 67 32" fill="none" xmlns="http://www.w3.org/2000/svg">
<path d="M7.20001 11.5996V2.59961C7.20001 2.29961 7.19999 2.09961 7.79999 2.09961H15.4C16.7 2.09961 17.5 3.19961 18 5.39961L18.4 7.09961H19.7C19.9 2.19961 20.1 0.0996094 20.1 0.0996094C20.1 0.0996094 16.8 0.499611 14.9 0.499611H5.20001L0 0.299614V1.69961L1.79999 1.99961C2.99999 2.19961 3.30002 2.49961 3.40002 3.59961C3.40002 3.59961 3.5 6.99961 3.5 12.4996C3.5 17.9996 3.40002 21.2996 3.40002 21.2996C3.40002 22.2996 2.99999 22.6996 1.79999 22.8996L0 23.1996V24.5996L5.20001 24.3996H13.9C15.9 24.3996 20.4 24.5996 20.4 24.5996C20.5 23.3996 21.2 17.8996 21.3 17.2996H20.1L18.8 20.2996C17.8 22.5996 16.3 22.7996 14.6 22.7996H9.59998C7.89998 22.7996 7.09998 22.0996 7.09998 20.6996V13.0996C7.09998 13.0996 10.7 13.0996 12 13.1996C12.9 13.2996 13.5 13.4996 13.8 14.7996L14.2 16.4996H15.6L15.5 12.0996L15.7 7.69961H14.3L13.8 9.59961C13.5 10.8996 13.3 11.0996 12 11.1996C10.6 11.5996 7.20001 11.4996 7.20001 11.5996ZM26.9 3.39961C26.4 5.49961 26 7.09961 24.3 8.19961C23.3 8.89961 22.3 9.09961 21.9 9.09961V10.3996H24.9V20.6996C24.9 23.5996 26.8 24.9996 29.3 24.9996C31.3 24.9996 33.3 24.1996 34 22.3996L33.3 21.4996C33 22.0996 31.9 22.8996 30.6 22.8996C29.1 22.8996 28.3 21.8996 28.3 19.2996V10.1996L33.2 10.5996L33.5 8.29961L28.3 8.49961V3.39961H26.9ZM37.4 19.2996H36.1C36.2 19.9996 36.2 20.9996 36.2 21.7996C36.2 22.6996 36.2 23.4996 36.1 23.8996C36.1 23.8996 38.6 24.7996 41.2 24.7996C44.7 24.7996 47.4 23.0996 47.4 19.7996C47.4 14.1996 39 14.9996 39 11.1996C39 9.59961 40.4 8.99961 41.9 8.99961C43.1 8.99961 44.1 9.39961 44.3 10.0996L45.1 12.5996L46.3 12.4996C46.4 11.1996 46.5 9.59961 46.7 8.39961C45.6 7.89961 43.4 7.69961 42 7.69961C38.7 7.69961 36.1 9.09961 36.1 12.3996C36.1 17.9996 44.3 16.8996 44.3 20.9996C44.3 22.4996 43.4 23.4996 41.4 23.4996C39.5 23.4996 38.6 22.4996 38.2 21.5996L37.4 19.2996ZM57.5 23.0996C55.6 28.4996 53.2 29.8996 51.1 29.8996C50.2 29.8996 49.8 29.4996 49.6 28.8996L49.1 26.2996L47.7 26.3996C47.4 27.8996 47.2 29.5996 46.8 30.9996C47.6 31.5996 49 31.9996 50.1 31.9996C52.4 31.9996 55.9 31.6996 59.1 24.0996L64.4 11.3996C64.8 10.3996 65 10.2996 66.3 9.79961L67 9.49961V8.29961L63.8 8.49961L60.4 8.29961V9.49961L61.3 9.79961C62.2 10.0996 62.6 10.3996 62.6 10.9996C62.6 11.2996 62.5 11.5996 62.3 12.0996C61.8 13.3996 58.7 20.8996 57.9 22.4996L58.7 22.1996C57.2 18.5996 55 12.4996 54.7 11.3996C54.6 11.1996 54.6 10.9996 54.6 10.8996C54.6 10.3996 55 9.89961 55.8 9.79961L56.9 9.59961V8.39961L52.4 8.59961L48.8 8.39961V9.59961L49.4 9.79961C50.2 10.0996 50.4 10.2996 50.9 11.4996C53.7 17.8996 55 21.2996 56.7 25.8996L57.5 23.0996Z" fill="#F27224"/>
</svg>
