<svg width="30" height="14" viewBox="0 0 30 14" fill="none" xmlns="http://www.w3.org/2000/svg">
<path fill-rule="evenodd" clip-rule="evenodd" d="M7.39961 12.7992H14.1996L17.2996 1.19922H7.39961C4.19961 1.19922 1.59961 3.79922 1.59961 6.99922C1.59961 10.1992 4.19961 12.7992 7.39961 12.7992Z" fill="white"/>
<path fill-rule="evenodd" clip-rule="evenodd" d="M22.6004 0H7.40039C3.50039 0 0.400391 3.1 0.400391 7C0.400391 10.9 3.50039 14 7.40039 14H22.6004C26.5004 14 29.6004 10.9 29.6004 7C29.6004 3.1 26.4004 0 22.6004 0ZM1.60039 7C1.60039 3.8 4.20039 1.2 7.40039 1.2H17.3004L14.2004 12.8H7.40039C4.20039 12.8 1.60039 10.2 1.60039 7Z" fill="#0066FF"/>
<path d="M24.6012 3.99961C24.8012 4.19961 24.8012 4.59961 24.6012 4.79961L22.5012 6.99961L24.7012 9.19961C24.9012 9.39961 24.9012 9.79961 24.7012 9.99961C24.5012 10.1996 24.1012 10.1996 23.9012 9.99961L21.7012 7.79961L19.5012 9.99961C19.3012 10.1996 18.9012 10.1996 18.7012 9.99961C18.5012 9.79961 18.5012 9.39961 18.7012 9.19961L20.8012 6.99961L18.6012 4.79961C18.4012 4.59961 18.4012 4.19961 18.6012 3.99961C18.8012 3.79961 19.2012 3.79961 19.4012 3.99961L21.6012 6.19961L23.8012 3.99961C24.0012 3.79961 24.4012 3.79961 24.6012 3.99961Z" fill="white"/>
<path d="M12.7 4.09922C12.9 4.29922 13 4.69922 12.8 4.89922L8.6 9.79922C8.5 9.89922 8.4 9.99922 8.3 9.99922C8.1 10.0992 7.8 10.0992 7.6 9.89922L5.4 7.69922C5.2 7.49922 5.2 7.09922 5.4 6.89922C5.6 6.69922 6 6.69922 6.2 6.89922L8 8.59922L11.8 4.09922C12 3.89922 12.4 3.89922 12.7 4.09922Z" fill="#0066FF"/>
</svg>
