<svg xmlns:xlink="http://www.w3.org/1999/xlink" xmlns="http://www.w3.org/2000/svg" width="16" height="17" viewBox="0 0 16 17" fill="none">
<g clip-path="url(#clip0_14757_8753)">
<path d="M0.49707 11.2833C1.62741 14.3296 4.55976 16.5007 7.99948 16.5007C11.4392 16.5007 14.3715 14.3296 15.5019 11.2833L7.99948 10.5876L0.49707 11.2833Z" fill="#FFDA44"/>
<path d="M7.99948 0.500488C4.55976 0.500488 1.62741 2.67149 0.49707 5.7179L7.99948 6.41352L15.5019 5.71786C14.3715 2.67149 11.4392 0.500488 7.99948 0.500488Z" fill="black"/>
<path d="M0.497594 5.71716C0.176031 6.58382 0 7.52119 0 8.49976C0 9.47832 0.176031 10.4157 0.497594 11.2824H15.5024C15.824 10.4157 16 9.47832 16 8.49976C16 7.52119 15.824 6.58382 15.5024 5.71716H0.497594Z" fill="#D80027"/>
</g>
<defs>
<clipPath id="clip0_14757_8753">
<rect width="16" height="16" fill="white" transform="translate(0 0.5)"/>
</clipPath>
</defs>
</svg>