<svg width="157" height="52" viewBox="0 0 157 52" fill="none" xmlns="http://www.w3.org/2000/svg">
<g clip-path="url(#clip0_280_1377)">
<g clip-path="url(#clip1_280_1377)">
<mask id="mask0_280_1377" style="mask-type:luminance" maskUnits="userSpaceOnUse" x="0" y="2" width="157" height="48">
<path d="M156.312 2.99805H0V49.441H156.312V2.99805Z" fill="white"/>
</mask>
<g mask="url(#mask0_280_1377)">
<path d="M150.304 49.3251H5.89171C2.71466 49.3251 0.115234 46.7257 0.115234 43.5486V8.88976C0.115234 5.71269 2.71466 3.11328 5.89171 3.11328H150.304C153.481 3.11328 156.08 5.71269 156.08 8.88976V43.5486C156.08 46.7257 153.481 49.3251 150.304 49.3251Z" fill="white"/>
<path d="M150.304 3.11328H5.89171C2.71466 3.11328 0.115234 5.7127 0.115234 8.88976V43.5486C0.115234 46.7257 2.71466 49.3251 5.89171 49.3251H150.304C153.481 49.3251 156.08 46.7257 156.08 43.5486V8.88976C156.08 5.7127 153.481 3.11328 150.304 3.11328ZM150.304 4.03752C152.979 4.03752 155.156 6.21455 155.156 8.88976V43.5486C155.156 46.2243 152.979 48.4013 150.304 48.4013H5.89171C3.21651 48.4013 1.03947 46.2243 1.03947 43.5486V8.88976C1.03947 6.21455 3.21651 4.03752 5.89171 4.03752H150.304Z" fill="black"/>
<path d="M54.8971 14.9473C54.8971 15.9152 54.6105 16.686 54.0364 17.261C53.3844 17.9447 52.5346 18.2868 51.4899 18.2868C50.4894 18.2868 49.6388 17.9402 48.9392 17.2461C48.2384 16.5525 47.8887 15.6923 47.8887 14.6661C47.8887 13.6394 48.2384 12.7797 48.9392 12.0856C49.6388 11.392 50.4894 11.0449 51.4899 11.0449C51.9862 11.0449 52.4616 11.142 52.9129 11.3356C53.3641 11.5297 53.7261 11.7873 53.9968 12.11L53.3875 12.7196C52.9287 12.1713 52.2968 11.8974 51.4899 11.8974C50.7601 11.8974 50.1292 12.1538 49.5967 12.6668C49.0641 13.1805 48.798 13.8465 48.798 14.6661C48.798 15.4857 49.0641 16.1517 49.5967 16.6653C50.1292 17.1784 50.7601 17.4348 51.4899 17.4348C52.2638 17.4348 52.9093 17.177 53.4258 16.6608C53.7613 16.3246 53.9553 15.8571 54.0071 15.2568H51.4899V14.4242H54.8488C54.8813 14.6052 54.8971 14.7789 54.8971 14.9473Z" fill="black"/>
<path d="M54.8974 14.9476H54.7819C54.781 15.8934 54.5048 16.6281 53.9551 17.1796L53.9538 17.1806C53.3224 17.8406 52.5105 18.1701 51.4901 18.1715C50.5164 18.1701 49.7013 17.8381 49.0207 17.1648C48.3416 16.4901 48.0058 15.6664 48.0045 14.6664C48.0058 13.6659 48.3416 12.8427 49.0207 12.1685C49.7013 11.4947 50.5164 11.1621 51.4901 11.1608C51.9716 11.1608 52.4302 11.2547 52.8674 11.442C53.3053 11.6306 53.651 11.8778 53.9087 12.1848L53.9971 12.1103L53.9154 12.0286L53.3062 12.6387L53.3878 12.7199L53.4767 12.646C52.9965 12.0705 52.3224 11.7805 51.4901 11.7822C50.7334 11.7813 50.0677 12.0516 49.5171 12.5842C48.9612 13.1185 48.6819 13.822 48.6828 14.6664C48.6819 15.5108 48.9612 16.2142 49.5171 16.7485C50.0677 17.2812 50.7334 17.5515 51.4901 17.5506C52.2898 17.552 52.9713 17.2808 53.5079 16.7428C53.8662 16.3835 54.0694 15.8858 54.1225 15.267L54.1333 15.1416H51.6057V14.54H54.8491V14.4245L54.7353 14.4448C54.767 14.6199 54.7819 14.7864 54.7819 14.9476H54.8974H55.013C55.013 14.772 54.9967 14.5915 54.9628 14.4038L54.9457 14.3089H51.3746V15.2571V15.3726H54.0074V15.2571L53.8923 15.2471C53.8414 15.8285 53.6564 16.2662 53.3445 16.5795C52.848 17.074 52.2389 17.3181 51.4901 17.3195C50.7875 17.3186 50.1914 17.0766 49.6774 16.5826C49.1684 16.0902 48.9151 15.4616 48.9138 14.6664C48.9151 13.8712 49.1684 13.2426 49.6774 12.7502C50.1914 12.2561 50.7875 12.0142 51.4901 12.0132C52.2713 12.0151 52.8613 12.2732 53.2994 12.7945L53.3806 12.891L54.0788 12.192L54.1537 12.1171L54.0855 12.0362C53.8016 11.6979 53.4236 11.4292 52.9587 11.2298C52.493 11.0299 52.0015 10.9297 51.4901 10.9297C50.4631 10.9288 49.5767 11.2898 48.8578 12.0042C48.1362 12.7173 47.7725 13.6136 47.7734 14.6664C47.7725 15.7188 48.1362 16.6155 48.8582 17.3289C49.5767 18.043 50.4631 18.4035 51.4901 18.4026C52.5597 18.4035 53.447 18.0482 54.1203 17.3411L54.0367 17.2612L54.1185 17.343C54.7169 16.745 55.0138 15.9372 55.013 14.9476H54.8974Z" fill="black"/>
<path d="M60.2225 12.0508H57.0657V14.2486H59.9125V15.0815H57.0657V17.2795H60.2225V18.131H56.1758V11.1992H60.2225V12.0508Z" fill="black"/>
<path d="M60.2228 12.0511V11.9355H56.9505V14.3644H59.7972V14.9659L56.9505 14.9663V17.3953H60.1072V18.0157H56.2916V11.315H60.1072V12.0511H60.2228H60.3383V11.1995V11.084H56.0605V18.2468H60.3383V17.2797V17.1642H57.1816V15.1975H60.0283V14.2489V14.1334H57.1816V12.1666H60.3383V12.0511H60.2228Z" fill="black"/>
<path d="M63.9777 18.131H63.0864V12.0508H61.1504V11.1992H65.9138V12.0508H63.9777V18.131Z" fill="black"/>
<path d="M63.9801 18.1313V18.0157H63.2042V11.9355H61.2682V11.315H65.8005V11.9355H63.8646V18.1313H63.9801H64.0956V12.1666H66.0316V11.1995V11.084H61.0371V12.0511V12.1666H62.9732V18.2468H63.9801H64.0956V18.1313H63.9801Z" fill="black"/>
<path d="M69.3613 18.131V11.1992H70.2516V18.131H69.3613Z" fill="black"/>
<path d="M69.3617 18.1313H69.4773V11.315H70.1365V18.0157H69.3617V18.1313V18.2468H70.252H70.3676V11.084H69.3617H69.2461V18.2468H69.3617V18.1313Z" fill="black"/>
<path d="M74.2023 18.131H73.311V12.0508H71.375V11.1992H76.1383V12.0508H74.2023V18.131Z" fill="black"/>
<path d="M74.2025 18.1313V18.0157H73.4268V11.9355H71.4908V11.315H76.0231V11.9355H74.087V18.1313H74.2025H74.318V12.1666H76.2541V11.1995V11.084H71.2598V12.0511V12.1666H73.1957V18.2468H74.2025H74.318V18.1313H74.2025Z" fill="black"/>
<path d="M80.7315 16.6558C81.2446 17.1753 81.8724 17.4348 82.6148 17.4348C83.3572 17.4348 83.9853 17.1753 84.4976 16.6558C85.0111 16.1365 85.2684 15.4724 85.2684 14.6661C85.2684 13.8597 85.0111 13.1957 84.4976 12.6763C83.9853 12.1569 83.3572 11.8974 82.6148 11.8974C81.8724 11.8974 81.2446 12.1569 80.7315 12.6763C80.2193 13.1957 79.9621 13.8597 79.9621 14.6661C79.9621 15.4724 80.2193 16.1365 80.7315 16.6558ZM85.1564 17.2361C84.4749 17.9369 83.6274 18.2868 82.6148 18.2868C81.6012 18.2868 80.7541 17.9369 80.074 17.2361C79.3921 16.5362 79.0527 15.6792 79.0527 14.6661C79.0527 13.6529 79.3921 12.7959 80.074 12.096C80.7541 11.3951 81.6012 11.0449 82.6148 11.0449C83.6221 11.0449 84.4673 11.3969 85.152 12.1005C85.8356 12.8041 86.1777 13.6592 86.1777 14.6661C86.1777 15.6792 85.8364 16.5362 85.1564 17.2361Z" fill="black"/>
<path d="M80.7299 16.6561L80.6478 16.7374C81.1799 17.2776 81.8437 17.552 82.6131 17.5506C83.3821 17.552 84.0468 17.2776 84.578 16.7374C85.1136 16.1967 85.3831 15.4971 85.3823 14.6664C85.3831 13.8356 85.1136 13.1361 84.578 12.5954C84.0468 12.0552 83.3821 11.7808 82.6131 11.7822C81.8437 11.7808 81.1799 12.0552 80.6478 12.5954C80.1135 13.1361 79.8435 13.8356 79.8449 14.6664C79.8435 15.4971 80.1135 16.1967 80.6478 16.7374L80.7299 16.6561L80.8121 16.5749C80.322 16.0761 80.0769 15.4488 80.076 14.6664C80.0769 13.8839 80.322 13.2566 80.8121 12.7578C81.3066 12.2592 81.8973 12.0146 82.6131 12.0132C83.3284 12.0146 83.9205 12.2592 84.4137 12.7578C84.9047 13.2566 85.1498 13.8839 85.1508 14.6664C85.1498 15.4488 84.9047 16.0761 84.4137 16.5749C83.9205 17.0735 83.3284 17.3181 82.6131 17.3195C81.8973 17.3181 81.3066 17.0735 80.8121 16.5749L80.7299 16.6561ZM85.1548 17.2364L85.0722 17.1562C84.4098 17.8349 83.5996 18.1701 82.6131 18.1715C81.6261 18.1701 80.816 17.8349 80.1549 17.1562C79.4938 16.4751 79.1675 15.6539 79.1666 14.6664C79.1675 13.6789 79.4938 12.8577 80.1549 12.1766C80.816 11.4979 81.6261 11.1621 82.6131 11.1608C83.5933 11.1621 84.4015 11.4993 85.0676 12.1816C85.7311 12.8657 86.0592 13.6858 86.0606 14.6664C86.0592 15.6539 85.732 16.4751 85.0722 17.1562L85.1548 17.2364L85.2379 17.3168C85.9382 16.5975 86.2925 15.7052 86.2916 14.6664C86.2925 13.6334 85.9368 12.743 85.2332 12.0205C84.5293 11.2952 83.6474 10.9284 82.6131 10.9297C81.5734 10.9284 80.6889 11.2935 79.9893 12.016C79.2876 12.7358 78.9346 13.6275 78.9355 14.6664C78.9346 15.7052 79.2876 16.5975 79.9893 17.3172C80.6889 18.0398 81.5734 18.4035 82.6131 18.4026C83.6524 18.4035 84.5369 18.0393 85.2379 17.3168L85.1548 17.2364Z" fill="black"/>
<path d="M87.4258 18.131V11.1992H88.5099L91.8787 16.5916H91.917L91.8787 15.2558V11.1992H92.77V18.131H91.8403L88.3157 12.4772H88.2774L88.3157 13.8135V18.131H87.4258Z" fill="black"/>
<path d="M87.4261 18.1313H87.5416V11.315H88.446L91.8148 16.7074H91.9173H92.036L91.9944 15.2544V11.315H92.6547V18.0157H91.9047L88.3801 12.362H88.2777H88.1591L88.2005 13.8157V18.0157H87.4261V18.1313V18.2468H88.316H88.4316V13.812L88.3932 12.4744L88.2777 12.4775V12.593H88.316V12.4775L88.218 12.539L91.7765 18.2468H92.7703H92.8858V11.084H91.8789H91.7634V15.2575L91.8018 16.595L91.9173 16.5919V16.4764H91.8789V16.5919L91.9769 16.5306L88.5741 11.084H87.4261H87.3105V18.2468H87.4261V18.1313Z" fill="black"/>
<path d="M123.659 37.7727H125.815V23.3301H123.659V37.7727ZM143.075 28.5327L140.605 34.7943H140.53L137.965 28.5327H135.643L139.49 37.2844L137.297 42.1525H139.546L145.473 28.5327H143.075ZM130.85 36.1324C130.143 36.1324 129.159 35.7794 129.159 34.9058C129.159 33.7911 130.386 33.3637 131.444 33.3637C132.392 33.3637 132.837 33.568 133.414 33.847C133.247 35.1847 132.095 36.1324 130.85 36.1324ZM131.11 28.2168C129.55 28.2168 127.933 28.9045 127.264 30.4281L129.177 31.2268C129.586 30.4281 130.348 30.1677 131.148 30.1677C132.262 30.1677 133.395 30.8369 133.414 32.0261V32.1745C133.024 31.9516 132.188 31.6172 131.166 31.6172C129.103 31.6172 127.003 32.7504 127.003 34.8687C127.003 36.8011 128.694 38.0463 130.589 38.0463C132.039 38.0463 132.837 37.396 133.34 36.6342H133.414V37.7488H135.495V32.2115C135.495 29.6478 133.581 28.2168 131.11 28.2168ZM117.787 30.2908H114.721V25.3403H117.787C119.399 25.3403 120.314 26.6746 120.314 27.8155C120.314 28.9348 119.399 30.2908 117.787 30.2908ZM117.731 23.3301H112.567V37.7727H114.721V32.3009H117.731C120.121 32.3009 122.47 30.5711 122.47 27.8155C122.47 25.06 120.121 23.3301 117.731 23.3301ZM89.5646 36.135C88.0753 36.135 86.8284 34.8882 86.8284 33.1755C86.8284 31.4449 88.0753 30.179 89.5646 30.179C91.035 30.179 92.1889 31.4449 92.1889 33.1755C92.1889 34.8882 91.035 36.135 89.5646 36.135ZM92.0399 29.3414H91.9655C91.4817 28.7645 90.5507 28.2435 89.3783 28.2435C86.9215 28.2435 84.6695 30.4024 84.6695 33.1755C84.6695 35.9302 86.9215 38.0705 89.3783 38.0705C90.5507 38.0705 91.4817 37.5493 91.9655 36.9542H92.0399V37.6613C92.0399 39.5414 91.035 40.5464 89.4157 40.5464C88.0942 40.5464 87.2753 39.5969 86.9399 38.7967L85.0604 39.5784C85.6002 40.8812 87.0334 42.4819 89.4157 42.4819C91.9469 42.4819 94.0874 40.9927 94.0874 37.3635V28.5413H92.0399V29.3414ZM95.5762 37.7727H97.7352V23.3297H95.5762V37.7727ZM100.918 33.008C100.862 31.1095 102.388 30.1419 103.486 30.1419C104.343 30.1419 105.069 30.5697 105.31 31.1845L100.918 33.008ZM107.619 31.3703C107.209 30.2719 105.962 28.2435 103.412 28.2435C100.881 28.2435 98.7776 30.2349 98.7776 33.157C98.7776 35.9116 100.862 38.0705 103.654 38.0705C105.906 38.0705 107.209 36.6933 107.749 35.8931L106.074 34.7761C105.516 35.5953 104.752 36.135 103.654 36.135C102.556 36.135 101.774 35.6323 101.271 34.6462L107.841 31.9286L107.619 31.3703ZM55.2741 29.7511V31.8356H60.2621C60.1131 33.008 59.7223 33.8642 59.1267 34.4598C58.401 35.186 57.2656 35.9861 55.2741 35.9861C52.2029 35.9861 49.8021 33.5108 49.8021 30.4397C49.8021 27.3687 52.2029 24.8931 55.2741 24.8931C56.9306 24.8931 58.1401 25.5447 59.0336 26.3823L60.5039 24.912C59.257 23.7205 57.6003 22.8086 55.2741 22.8086C51.0675 22.8086 47.5312 26.2333 47.5312 30.4397C47.5312 34.6462 51.0675 38.0705 55.2741 38.0705C57.5449 38.0705 59.257 37.3264 60.5969 35.9302C61.9743 34.5528 62.4026 32.6172 62.4026 31.0541C62.4026 30.5697 62.3655 30.1235 62.2906 29.7511H55.2741ZM68.0734 36.135C66.5842 36.135 65.2998 34.9066 65.2998 33.157C65.2998 31.3888 66.5842 30.179 68.0734 30.179C69.5621 30.179 70.8465 31.3888 70.8465 33.157C70.8465 34.9066 69.5621 36.135 68.0734 36.135ZM68.0734 28.2435C65.3557 28.2435 63.1408 30.3094 63.1408 33.157C63.1408 35.9861 65.3557 38.0705 68.0734 38.0705C70.7906 38.0705 73.0055 35.9861 73.0055 33.157C73.0055 30.3094 70.7906 28.2435 68.0734 28.2435ZM78.833 36.135C77.3442 36.135 76.0598 34.9066 76.0598 33.157C76.0598 31.3888 77.3442 30.179 78.833 30.179C80.3218 30.179 81.6062 31.3888 81.6062 33.157C81.6062 34.9066 80.3218 36.135 78.833 36.135ZM78.833 28.2435C76.1153 28.2435 73.9009 30.3094 73.9009 33.157C73.9009 35.9861 76.1153 38.0705 78.833 38.0705C81.5502 38.0705 83.7652 35.9861 83.7652 33.157C83.7652 30.3094 81.5502 28.2435 78.833 28.2435Z" fill="black"/>
<path d="M12.2572 40.5324L12.1714 40.4502C11.8351 40.0946 11.6367 39.5421 11.6367 38.8269V38.9953V13.4448V13.614C11.6367 12.8395 11.8681 12.2561 12.2558 11.9062L26.5697 26.2198L12.2572 40.5324Z" fill="url(#paint0_linear_280_1377)"/>
<path d="M31.3403 30.992L26.5684 26.2192L31.3398 21.4473L37.1004 24.72C37.832 25.1356 38.2427 25.6714 38.3113 26.2187C38.3113 26.2192 38.3113 26.2201 38.3113 26.2209C38.2427 26.767 37.832 27.3031 37.1004 27.7187L31.3403 30.992Z" fill="url(#paint1_linear_280_1377)"/>
<path d="M13.277 40.9072C12.8772 40.9077 12.5283 40.7773 12.2562 40.5318L26.5688 26.2188L31.3407 30.9916L14.5713 40.5197C14.1073 40.7827 13.6677 40.9072 13.277 40.9072ZM12.2522 40.6979C12.2268 40.6749 12.2021 40.6505 12.1777 40.6252L12.2522 40.6979Z" fill="url(#paint2_linear_280_1377)"/>
<path d="M26.5677 26.2206L12.2539 11.9071C12.5259 11.662 12.8744 11.5321 13.2738 11.5321C13.6655 11.5321 14.1055 11.6571 14.5704 11.9206L31.3393 21.4487L26.5677 26.2206ZM14.5704 11.7519C14.1055 11.4883 13.6655 11.3633 13.2738 11.3633C13.2719 11.3633 13.2707 11.3633 13.2688 11.3633C13.2711 11.3633 13.2729 11.3633 13.2757 11.3633C13.6665 11.3633 14.1059 11.4883 14.5704 11.7519Z" fill="url(#paint3_linear_280_1377)"/>
<path d="M12.2572 40.7023L12.2536 40.6992C12.2549 40.7001 12.2563 40.7014 12.2572 40.7023ZM12.1792 40.6265L12.1719 40.6193C12.1747 40.6219 12.1769 40.6242 12.1792 40.6265Z" fill="white"/>
<path d="M13.279 41.0771C12.8792 41.0771 12.5298 40.9466 12.2577 40.7012C12.2567 40.7003 12.2549 40.6994 12.2536 40.6985L12.1792 40.6258C12.1769 40.6235 12.1747 40.6208 12.1719 40.6182L12.2577 40.5324C12.5298 40.7779 12.8787 40.9083 13.2785 40.9079C13.6693 40.9079 14.1089 40.7833 14.5729 40.5203L31.3421 30.9922L31.4496 31.0996L31.3408 31.1615L14.5729 40.689C14.15 40.9286 13.7478 41.0537 13.3846 41.0745C13.3489 41.0762 13.3137 41.0771 13.279 41.0771Z" fill="url(#paint4_linear_280_1377)"/>
<path d="M12.1714 40.6177C11.8351 40.2621 11.6367 39.7102 11.6367 38.9944V38.8262C11.6367 39.5414 11.8351 40.0937 12.1714 40.4495L12.2572 40.5316L12.1714 40.6177Z" fill="url(#paint5_linear_280_1377)"/>
<path d="M31.4493 31.1011L31.3418 30.9937L37.102 27.7206C37.8336 27.3049 38.2443 26.7688 38.3129 26.2227C38.3129 26.4231 38.2682 26.6235 38.1794 26.8184C38.0002 27.2114 37.641 27.583 37.102 27.8893L31.4493 31.1011Z" fill="url(#paint6_linear_280_1377)"/>
<path d="M38.3114 26.2196C38.3109 25.6153 37.907 25.0106 37.1005 24.5521C37.9079 25.0106 38.3123 25.6153 38.3114 26.2196Z" fill="#404040"/>
<path d="M38.3113 26.2188C38.2427 25.6713 37.832 25.1357 37.1005 24.72L31.3398 21.4472L31.4472 21.3398L37.1005 24.5517C37.907 25.0102 38.3108 25.6144 38.3113 26.2188Z" fill="url(#paint7_linear_280_1377)"/>
<path d="M11.6419 13.2397C11.7088 12.0529 12.3543 11.3673 13.2671 11.3633C12.8713 11.3656 12.5266 11.4956 12.2567 11.7388L12.2535 11.7415C12.225 11.7672 12.198 11.7943 12.1714 11.8223C11.8681 12.1431 11.6768 12.6237 11.6419 13.2397Z" fill="#404040"/>
<path d="M11.6367 13.6129V13.4441V13.4377V13.4363C11.6367 13.3727 11.6385 13.3104 11.6416 13.25V13.2472L11.6419 13.2446V13.2391V13.2378C11.6768 12.6218 11.8681 12.1411 12.1714 11.8203L12.2558 11.9051C11.8681 12.2549 11.6367 12.8384 11.6367 13.6129ZM12.2535 11.7396L12.2567 11.7363L12.2535 11.7396Z" fill="url(#paint8_linear_280_1377)"/>
<path d="M31.3416 21.4487L14.5729 11.9206C14.108 11.6571 13.668 11.5321 13.2762 11.5321C12.8769 11.5321 12.5284 11.662 12.2563 11.9071L12.1719 11.8223C12.1986 11.7943 12.2256 11.7672 12.254 11.7415C12.2549 11.7406 12.2563 11.7397 12.2572 11.7387C12.5272 11.4956 12.8719 11.3656 13.2677 11.3633C13.2686 11.3633 13.2699 11.3633 13.2713 11.3633C13.2732 11.3633 13.2744 11.3633 13.2762 11.3633C13.668 11.3633 14.108 11.4883 14.5729 11.7519L31.4496 21.3408L31.3416 21.4487Z" fill="url(#paint9_linear_280_1377)"/>
</g>
</g>
</g>
<defs>
<linearGradient id="paint0_linear_280_1377" x1="25.3005" y1="13.1752" x2="5.91173" y2="32.564" gradientUnits="userSpaceOnUse">
<stop stop-color="#00A0FF"/>
<stop offset="0.00657445" stop-color="#00A1FF"/>
<stop offset="0.2601" stop-color="#00BEFF"/>
<stop offset="0.5122" stop-color="#00D2FF"/>
<stop offset="0.7604" stop-color="#00DFFF"/>
<stop offset="1" stop-color="#00E3FF"/>
</linearGradient>
<linearGradient id="paint1_linear_280_1377" x1="39.2027" y1="26.2199" x2="11.248" y2="26.2199" gradientUnits="userSpaceOnUse">
<stop stop-color="#FFE000"/>
<stop offset="0.4087" stop-color="#FFBD00"/>
<stop offset="0.7754" stop-color="#FFA500"/>
<stop offset="1" stop-color="#FF9C00"/>
</linearGradient>
<linearGradient id="paint2_linear_280_1377" x1="28.7969" y1="28.8705" x2="2.50426" y2="55.1631" gradientUnits="userSpaceOnUse">
<stop stop-color="#FF3A44"/>
<stop offset="1" stop-color="#C31162"/>
</linearGradient>
<linearGradient id="paint3_linear_280_1377" x1="8.54386" y1="3.31734" x2="20.2846" y2="15.058" gradientUnits="userSpaceOnUse">
<stop stop-color="#32A071"/>
<stop offset="0.0685" stop-color="#2DA771"/>
<stop offset="0.4762" stop-color="#15CF74"/>
<stop offset="0.8009" stop-color="#06E775"/>
<stop offset="1" stop-color="#00F076"/>
</linearGradient>
<linearGradient id="paint4_linear_280_1377" x1="28.7983" y1="28.8711" x2="2.50573" y2="55.1637" gradientUnits="userSpaceOnUse">
<stop stop-color="#CC2E36"/>
<stop offset="1" stop-color="#9C0E4E"/>
</linearGradient>
<linearGradient id="paint5_linear_280_1377" x1="25.3006" y1="13.1744" x2="5.91174" y2="32.5632" gradientUnits="userSpaceOnUse">
<stop stop-color="#008DE0"/>
<stop offset="0.00657445" stop-color="#008DE0"/>
<stop offset="0.2601" stop-color="#00A7E0"/>
<stop offset="0.5122" stop-color="#00B8E0"/>
<stop offset="0.7604" stop-color="#00C4E0"/>
<stop offset="1" stop-color="#00C7E0"/>
</linearGradient>
<linearGradient id="paint6_linear_280_1377" x1="39.2042" y1="26.2216" x2="11.2495" y2="26.2216" gradientUnits="userSpaceOnUse">
<stop stop-color="#E0C500"/>
<stop offset="0.4087" stop-color="#E0A600"/>
<stop offset="0.7754" stop-color="#E09100"/>
<stop offset="1" stop-color="#E08900"/>
</linearGradient>
<linearGradient id="paint7_linear_280_1377" x1="39.2026" y1="26.2199" x2="11.2479" y2="26.2199" gradientUnits="userSpaceOnUse">
<stop stop-color="#FFE840"/>
<stop offset="0.4087" stop-color="#FFCE40"/>
<stop offset="0.7754" stop-color="#FFBC40"/>
<stop offset="1" stop-color="#FFB540"/>
</linearGradient>
<linearGradient id="paint8_linear_280_1377" x1="25.3005" y1="13.1741" x2="5.91174" y2="32.5629" gradientUnits="userSpaceOnUse">
<stop stop-color="#40B8FF"/>
<stop offset="0.00657445" stop-color="#40B9FF"/>
<stop offset="0.2601" stop-color="#40CEFF"/>
<stop offset="0.5122" stop-color="#40DDFF"/>
<stop offset="0.7604" stop-color="#40E7FF"/>
<stop offset="1" stop-color="#40EAFF"/>
</linearGradient>
<linearGradient id="paint9_linear_280_1377" x1="8.54632" y1="3.31734" x2="20.2871" y2="15.058" gradientUnits="userSpaceOnUse">
<stop stop-color="#65B895"/>
<stop offset="0.0685" stop-color="#62BD95"/>
<stop offset="0.4762" stop-color="#50DB97"/>
<stop offset="0.8009" stop-color="#44ED98"/>
<stop offset="1" stop-color="#40F498"/>
</linearGradient>
<clipPath id="clip0_280_1377">
<rect width="156.745" height="51.81" fill="white"/>
</clipPath>
<clipPath id="clip1_280_1377">
<rect width="156.745" height="46.4429" fill="white" transform="translate(0 3)"/>
</clipPath>
</defs>
</svg>
