<svg width="21" height="22" viewBox="0 0 21 22" fill="none" xmlns="http://www.w3.org/2000/svg">
<g clip-path="url(#clip0_326_88)">
<mask id="mask0_326_88" style="mask-type:luminance" maskUnits="userSpaceOnUse" x="0" y="0" width="21" height="22">
<path d="M20.9758 0.845703H0.0234375V21.7981H20.9758V0.845703Z" fill="white"/>
</mask>
<g mask="url(#mask0_326_88)">
<path d="M10.4996 2.73224C13.2988 2.73224 13.6302 2.74452 14.7311 2.79362C15.7541 2.83863 16.3066 3.01051 16.6748 3.15374C17.1619 3.34198 17.5138 3.57115 17.878 3.93537C18.2462 4.30367 18.4714 4.65151 18.6596 5.13848C18.8028 5.50679 18.9747 6.06334 19.0197 7.08231C19.0688 8.18722 19.0811 8.5187 19.0811 11.3137C19.0811 14.1128 19.0688 14.4443 19.0197 15.5451C18.9747 16.5681 18.8028 17.1207 18.6596 17.4889C18.4714 17.9759 18.2422 18.3278 17.878 18.6921C17.5097 19.0603 17.1619 19.2855 16.6748 19.4737C16.3066 19.6169 15.75 19.7887 14.7311 19.8338C13.6261 19.8829 13.2947 19.8952 10.4996 19.8952C7.70053 19.8952 7.36905 19.8829 6.26823 19.8338C5.24517 19.7887 4.69271 19.6169 4.32441 19.4737C3.83743 19.2855 3.48549 19.0562 3.12128 18.6921C2.75298 18.3237 2.52791 17.9759 2.33966 17.4889C2.19643 17.1207 2.02456 16.5641 1.97954 15.5451C1.93043 14.4402 1.91815 14.1088 1.91815 11.3137C1.91815 8.5146 1.93043 8.18313 1.97954 7.08231C2.02456 6.05925 2.19643 5.50679 2.33966 5.13848C2.52791 4.65151 2.75707 4.29957 3.12128 3.93537C3.48958 3.56705 3.83743 3.34198 4.32441 3.15374C4.69271 3.01051 5.24925 2.83863 6.26823 2.79362C7.36905 2.74452 7.70053 2.73224 10.4996 2.73224ZM10.4996 0.845703C7.65551 0.845703 7.29948 0.85798 6.1823 0.907087C5.0692 0.956194 4.30395 1.13625 3.641 1.39406C2.94941 1.66416 2.36422 2.02018 1.78311 2.60537C1.19791 3.18648 0.84189 3.77168 0.571801 4.45918C0.313988 5.12622 0.133929 5.88737 0.0848215 7.00047C0.0357143 8.12175 0.0234375 8.47777 0.0234375 11.3219C0.0234375 14.1661 0.0357143 14.522 0.0848215 15.6392C0.133929 16.7523 0.313988 17.5176 0.571801 18.1805C0.84189 18.8722 1.19791 19.4573 1.78311 20.0384C2.36422 20.6195 2.94941 20.9797 3.63691 21.2457C4.30395 21.5035 5.0651 21.6835 6.1782 21.7326C7.29539 21.7817 7.65141 21.794 10.4955 21.794C13.3396 21.794 13.6957 21.7817 14.8129 21.7326C15.926 21.6835 16.6913 21.5035 17.3542 21.2457C18.0416 20.9797 18.6268 20.6195 19.208 20.0384C19.7891 19.4573 20.1491 18.8722 20.4151 18.1846C20.673 17.5176 20.853 16.7564 20.9022 15.6433C20.9513 14.5261 20.9636 14.1701 20.9636 11.326C20.9636 8.48186 20.9513 8.12584 20.9022 7.00865C20.853 5.89556 20.673 5.1303 20.4151 4.46736C20.1574 3.77167 19.8013 3.18648 19.2161 2.60537C18.635 2.02428 18.0498 1.66416 17.3624 1.39816C16.6954 1.14035 15.9342 0.960286 14.8211 0.911179C13.6998 0.85798 13.3437 0.845703 10.4996 0.845703Z" fill="white"/>
<path d="M10.4946 5.94141C7.52362 5.94141 5.11328 8.35175 5.11328 11.3227C5.11328 14.2938 7.52362 16.704 10.4946 16.704C13.4656 16.704 15.8759 14.2938 15.8759 11.3227C15.8759 8.35175 13.4656 5.94141 10.4946 5.94141ZM10.4946 14.8134C8.56715 14.8134 7.0039 13.2502 7.0039 11.3227C7.0039 9.39527 8.56715 7.83203 10.4946 7.83203C12.422 7.83203 13.9853 9.39527 13.9853 11.3227C13.9853 13.2502 12.422 14.8134 10.4946 14.8134Z" fill="white"/>
<path d="M17.3506 5.72704C17.3506 6.42272 16.7858 6.98337 16.0942 6.98337C15.3986 6.98337 14.8379 6.41863 14.8379 5.72704C14.8379 5.03135 15.4027 4.4707 16.0942 4.4707C16.7858 4.4707 17.3506 5.03544 17.3506 5.72704Z" fill="white"/>
</g>
</g>
<defs>
<clipPath id="clip0_326_88">
<rect width="21" height="22" fill="white"/>
</clipPath>
</defs>
</svg>
