<svg width="43" height="24" viewBox="0 0 43 24" fill="none" xmlns="http://www.w3.org/2000/svg">
<g clip-path="url(#clip0_280_1595)">
<path d="M38.871 0H4.12896C1.8486 0 0 1.85719 0 4.14816V19.8518C0 22.1428 1.8486 24 4.12896 24H38.871C41.1514 24 43 22.1428 43 19.8518V4.14816C43 1.85719 41.1514 0 38.871 0Z" fill="#FFB3C7"/>
<path d="M38.9796 14.0609C38.417 14.0609 37.961 14.5232 37.961 15.0935C37.961 15.6638 38.417 16.1262 38.9796 16.1262C39.5422 16.1262 39.9983 15.6638 39.9983 15.0935C39.9983 14.5231 39.5422 14.0609 38.9796 14.0609ZM35.6282 13.2625C35.6282 12.4816 34.9698 11.8488 34.1577 11.8488C33.3455 11.8488 32.6871 12.4817 32.6871 13.2625C32.6871 14.0433 33.3454 14.6764 34.1577 14.6764C34.9699 14.6764 35.6282 14.0433 35.6282 13.2625ZM35.6336 10.5148H37.2565V16.01H35.6336V15.6588C35.1751 15.9758 34.6217 16.1621 34.0248 16.1621C32.4451 16.1621 31.1645 14.8639 31.1645 13.2624C31.1645 11.661 32.4451 10.3629 34.0248 10.3629C34.6217 10.3629 35.1752 10.5492 35.6336 10.8663V10.5148ZM22.6457 11.2306V10.5148H20.9841V16.01H22.6494V13.4444C22.6494 12.5788 23.5749 12.1135 24.217 12.1135C24.2236 12.1135 24.2297 12.1142 24.2363 12.1142V10.5153C23.5772 10.5153 22.9711 10.8012 22.6457 11.2306ZM18.5066 13.2625C18.5066 12.4816 17.8482 11.8488 17.036 11.8488C16.2239 11.8488 15.5654 12.4817 15.5654 13.2625C15.5654 14.0433 16.2239 14.6764 17.036 14.6764C17.8482 14.6764 18.5066 14.0433 18.5066 13.2625ZM18.512 10.5148H20.135V16.01H18.512V15.6588C18.0535 15.9758 17.5001 16.1621 16.9032 16.1621C15.3235 16.1621 14.0429 14.8639 14.0429 13.2625C14.0429 11.661 15.3235 10.3629 16.9032 10.3629C17.5001 10.3629 18.0535 10.5492 18.512 10.8663V10.5148ZM28.2806 10.367C27.6323 10.367 27.0187 10.571 26.6085 11.134V10.5151H24.9926V16.01H26.6284V13.1223C26.6284 12.2866 27.1812 11.8774 27.8467 11.8774C28.56 11.8774 28.9701 12.3094 28.9701 13.1109V16.01H30.5911V12.5156C30.5911 11.2367 29.5881 10.367 28.2806 10.367ZM11.6788 16.01H13.3775V8.06595H11.6788V16.01ZM4.2168 16.0122H6.01553V8.06447H4.2168V16.0122ZM10.5082 8.06447C10.5082 9.78508 9.84675 11.3857 8.66816 12.5754L11.1545 16.0125H8.93285L6.23073 12.2771L6.9281 11.7477C8.08461 10.8694 8.74796 9.52701 8.74796 8.06445L10.5082 8.06447Z" fill="#0A0B09"/>
</g>
<defs>
<clipPath id="clip0_280_1595">
<rect width="43" height="24" fill="white"/>
</clipPath>
</defs>
</svg>
