<svg width="22" height="22" viewBox="0 0 22 22" fill="none" xmlns="http://www.w3.org/2000/svg">
<mask id="mask0_326_103" style="mask-type:luminance" maskUnits="userSpaceOnUse" x="0" y="0" width="22" height="23">
<path d="M21.925 0.845703H0.972656V22.8457H21.925V0.845703Z" fill="white"/>
</mask>
<g mask="url(#mask0_326_103)">
<path d="M20.374 0.845703H2.51953C1.66425 0.845703 0.972656 1.52093 0.972656 2.35574V20.2839C0.972656 21.1188 1.66425 21.7981 2.51953 21.7981H20.374C21.2293 21.7981 21.925 21.1188 21.925 20.288V2.35574C21.925 1.52093 21.2293 0.845703 20.374 0.845703ZM7.1888 18.7003H4.07868V8.69875H7.1888V18.7003ZM5.63374 7.33603C4.63523 7.33603 3.82905 6.52986 3.82905 5.53544C3.82905 4.54101 4.63523 3.73484 5.63374 3.73484C6.62817 3.73484 7.43434 4.54101 7.43434 5.53544C7.43434 6.52576 6.62817 7.33603 5.63374 7.33603ZM18.8272 18.7003H15.7211V13.8387C15.7211 12.6805 15.7007 11.1868 14.1048 11.1868C12.4883 11.1868 12.2427 12.4513 12.2427 13.7568V18.7003H9.14082V8.69875H12.12V10.0656H12.1609C12.5742 9.27986 13.5891 8.44913 15.0992 8.44913C18.2461 8.44913 18.8272 10.5198 18.8272 13.2125V18.7003Z" fill="white"/>
</g>
</svg>
