<svg width="36" height="24" viewBox="0 0 36 24" fill="none" xmlns="http://www.w3.org/2000/svg">
<path d="M32 0H4C1.79086 0 0 1.79086 0 4V20C0 22.2091 1.79086 24 4 24H32C34.2091 24 36 22.2091 36 20V4C36 1.79086 34.2091 0 32 0Z" fill="white"/>
<mask id="mask0_280_1519" style="mask-type:luminance" maskUnits="userSpaceOnUse" x="8" y="18" width="22" height="4">
<path d="M8.54297 18.7539H29.33V21.4299H8.54297V18.7539Z" fill="white"/>
</mask>
<g mask="url(#mask0_280_1519)">
<path fill-rule="evenodd" clip-rule="evenodd" d="M12.183 20.4119C12.183 20.0889 12.393 19.8229 12.735 19.8229C13.062 19.8229 13.283 20.0769 13.283 20.4119C13.283 20.7459 13.063 20.9999 12.735 20.9999C12.393 20.9999 12.183 20.7349 12.183 20.4119ZM13.656 20.4119V19.4929H13.26V19.7159C13.193 19.6281 13.1059 19.5577 13.006 19.5107C12.9061 19.4637 12.7963 19.4415 12.686 19.4459C12.176 19.4459 11.776 19.8509 11.776 20.4119C11.776 20.9729 12.176 21.3769 12.686 21.3769C12.7963 21.3813 12.9061 21.3591 13.006 21.3121C13.1059 21.2651 13.193 21.1947 13.26 21.1069V21.3309H13.656V20.4119ZM27.015 20.4119C27.015 20.0889 27.223 19.8229 27.565 19.8229C27.893 19.8229 28.114 20.0769 28.114 20.4119C28.114 20.7459 27.893 20.9999 27.566 20.9999C27.223 20.9999 27.015 20.7349 27.015 20.4119ZM29.157 21.1619C29.178 21.1619 29.195 21.1659 29.206 21.1769C29.218 21.1869 29.223 21.1989 29.223 21.2159C29.2232 21.2222 29.2221 21.2284 29.2199 21.2342C29.2177 21.2401 29.2143 21.2454 29.21 21.2499C29.1987 21.2596 29.1847 21.2655 29.17 21.2669L29.225 21.3309H29.182L29.132 21.2679H29.115V21.3309H29.079V21.1609L29.157 21.1619ZM29.146 21.3899C29.1737 21.3901 29.2009 21.3817 29.2238 21.366C29.2467 21.3502 29.2642 21.3279 29.274 21.3019C29.2814 21.2845 29.2852 21.2658 29.2852 21.2469C29.2852 21.228 29.2814 21.2093 29.274 21.1919C29.2672 21.1747 29.257 21.1591 29.244 21.1459C29.2178 21.1203 29.1826 21.1059 29.146 21.1059C29.1268 21.1051 29.1077 21.1085 29.09 21.1159C29.0731 21.1228 29.0578 21.133 29.045 21.1459C29.032 21.1591 29.0218 21.1747 29.015 21.1919C29.0076 21.2093 29.0042 21.2281 29.005 21.2469C29.005 21.2669 29.008 21.2859 29.015 21.3019C29.025 21.3281 29.0429 21.3506 29.0661 21.3664C29.0894 21.3821 29.1169 21.3903 29.145 21.3899H29.146ZM29.146 21.0639C29.1945 21.0642 29.241 21.0835 29.2754 21.1177C29.3099 21.152 29.3294 21.1984 29.33 21.2469C29.3294 21.2833 29.3182 21.3186 29.2977 21.3487C29.2772 21.3787 29.2484 21.4021 29.2148 21.4159C29.1811 21.4297 29.1442 21.4334 29.1085 21.4265C29.0728 21.4196 29.04 21.4023 29.014 21.3769C28.988 21.3512 28.9703 21.3183 28.9632 21.2824C28.9561 21.2466 28.9599 21.2094 28.9741 21.1758C28.9883 21.1421 29.0123 21.1134 29.0429 21.0935C29.0735 21.0736 29.1094 21.0633 29.146 21.0639ZM28.486 20.4119V18.7539H28.091V19.7139C28.0239 19.6263 27.9367 19.5562 27.8368 19.5094C27.7369 19.4625 27.6272 19.4404 27.517 19.4449C27.007 19.4449 26.607 19.8499 26.607 20.4109C26.607 20.9719 27.007 21.3759 27.517 21.3759C27.6273 21.3803 27.737 21.358 27.8369 21.311C27.9368 21.264 28.024 21.1937 28.091 21.1059V21.3299H28.487V20.4099L28.486 20.4119ZM18.563 19.8039C18.818 19.8039 18.981 19.9659 19.023 20.2509H18.08C18.122 19.9849 18.282 19.8039 18.563 19.8039ZM18.571 19.4459C18.038 19.4459 17.666 19.8389 17.666 20.4119C17.666 20.9959 18.054 21.3769 18.598 21.3769C18.871 21.3769 19.123 21.3079 19.343 21.1199L19.149 20.8229C18.9996 20.9445 18.8136 21.0121 18.621 21.0149C18.365 21.0149 18.134 20.8959 18.077 20.5649H19.427C19.43 20.5159 19.434 20.4649 19.434 20.4119C19.43 19.8389 19.081 19.4459 18.571 19.4459ZM23.344 20.4119C23.344 20.0889 23.554 19.8229 23.896 19.8229C24.224 19.8229 24.444 20.0769 24.444 20.4119C24.444 20.7459 24.224 20.9999 23.896 20.9999C23.554 20.9999 23.344 20.7349 23.344 20.4119ZM24.817 20.4119V19.4929H24.421V19.7159C24.3538 19.6281 24.2665 19.5577 24.1664 19.5107C24.0664 19.4637 23.9564 19.4415 23.846 19.4459C23.337 19.4459 22.937 19.8509 22.937 20.4119C22.937 20.9729 23.337 21.3769 23.847 21.3769C24.106 21.3769 24.295 21.2729 24.421 21.1069V21.3309H24.817V20.4119ZM21.112 20.4119C21.112 20.9699 21.496 21.3769 22.082 21.3769C22.3197 21.3886 22.5532 21.3104 22.736 21.1579L22.546 20.8349C22.4097 20.9399 22.243 20.9978 22.071 20.9999C21.755 20.9959 21.523 20.7649 21.523 20.4119C21.523 20.0579 21.755 19.8269 22.071 19.8229C22.2432 19.825 22.41 19.8833 22.546 19.9889L22.736 19.6659C22.5535 19.5128 22.3199 19.4342 22.082 19.4459C21.496 19.4459 21.112 19.8549 21.112 20.4119ZM26.209 19.4459C26.1122 19.4433 26.0165 19.4671 25.9321 19.5147C25.8478 19.5622 25.7779 19.6318 25.73 19.7159V19.4929H25.337V21.3309H25.733V20.3009C25.733 19.9959 25.863 19.8269 26.122 19.8269C26.2063 19.8262 26.2899 19.8422 26.368 19.8739L26.491 19.4969C26.4005 19.4642 26.3051 19.4463 26.209 19.4459ZM15.612 19.6389C15.422 19.5119 15.159 19.4459 14.87 19.4459C14.41 19.4459 14.113 19.6689 14.113 20.0349C14.113 20.3349 14.333 20.5199 14.741 20.5769L14.927 20.6039C15.144 20.6339 15.247 20.6919 15.247 20.7969C15.247 20.9379 15.102 21.0189 14.832 21.0189C14.6144 21.0253 14.4011 20.9576 14.227 20.8269L14.04 21.1389C14.258 21.2999 14.531 21.3769 14.828 21.3769C15.353 21.3769 15.658 21.1269 15.658 20.7769C15.658 20.4539 15.418 20.2849 15.022 20.2269L14.836 20.1999C14.665 20.1769 14.527 20.1419 14.527 20.0199C14.527 19.8849 14.657 19.8039 14.874 19.8039C15.106 19.8039 15.33 19.8929 15.44 19.9619L15.612 19.6389ZM20.712 19.4459C20.6152 19.4436 20.5196 19.4674 20.4353 19.5149C20.351 19.5625 20.2811 19.6319 20.233 19.7159V19.4929H19.841V21.3309H20.237V20.3009C20.237 19.9959 20.367 19.8269 20.625 19.8269C20.7096 19.8261 20.7936 19.8421 20.872 19.8739L20.994 19.4969C20.9035 19.4642 20.8081 19.4463 20.712 19.4459ZM17.339 19.4929H16.692V18.9349H16.292V19.4929H15.923V19.8589H16.293V20.6959C16.293 21.1229 16.456 21.3769 16.924 21.3769C17.0989 21.3774 17.2704 21.3278 17.418 21.2339L17.303 20.8939C17.197 20.9576 17.0765 20.9931 16.953 20.9969C16.756 20.9969 16.691 20.8749 16.691 20.6889V19.8589H17.338V19.4939L17.339 19.4929ZM11.426 21.3309V20.1769C11.426 19.7429 11.153 19.4499 10.712 19.4469C10.479 19.4419 10.24 19.5169 10.072 19.7739C10.011 19.6701 9.92293 19.5848 9.81728 19.527C9.71162 19.4693 9.59229 19.4412 9.47197 19.4459C9.36689 19.4407 9.2623 19.4634 9.16874 19.5115C9.07517 19.5596 8.99592 19.6315 8.93897 19.7199V19.4929H8.54297V21.3309H8.94297V20.3109C8.94297 19.9919 9.11697 19.8229 9.38797 19.8229C9.64997 19.8229 9.78397 19.9959 9.78397 20.3079V21.3309H10.183V20.3109C10.183 19.9919 10.365 19.8229 10.627 19.8229C10.897 19.8229 11.027 19.9959 11.027 20.3079V21.3309H11.427H11.426Z" fill="#231F20"/>
</g>
<mask id="mask1_280_1519" style="mask-type:luminance" maskUnits="userSpaceOnUse" x="7" y="4" width="23" height="18">
<path d="M7.39648 21.4289H29.5535V4.00586H7.39648V21.4289Z" fill="white"/>
</mask>
<g mask="url(#mask1_280_1519)">
<path fill-rule="evenodd" clip-rule="evenodd" d="M15.4795 16.3704H21.4705V5.48438H15.4785L15.4795 16.3704Z" fill="#FF5F00"/>
</g>
<mask id="mask2_280_1519" style="mask-type:luminance" maskUnits="userSpaceOnUse" x="7" y="4" width="23" height="18">
<path d="M7.39648 21.4289H29.5535V4.00586H7.39648V21.4289Z" fill="white"/>
</mask>
<g mask="url(#mask2_280_1519)">
<path fill-rule="evenodd" clip-rule="evenodd" d="M15.8595 10.9279C15.8572 9.88236 16.0912 8.84985 16.544 7.90749C16.9968 6.96514 17.6567 6.1373 18.4745 5.48586C17.2727 4.52648 15.7802 4.00454 14.2425 4.00586C10.4615 4.00586 7.39648 7.10586 7.39648 10.9279C7.39648 14.7509 10.4615 17.8499 14.2425 17.8499C15.7802 17.8512 17.2727 17.3292 18.4745 16.3699C17.6567 15.7184 16.9968 14.8906 16.544 13.9482C16.0912 13.0059 15.8572 11.9734 15.8595 10.9279Z" fill="#EB001B"/>
</g>
<mask id="mask3_280_1519" style="mask-type:luminance" maskUnits="userSpaceOnUse" x="7" y="4" width="23" height="18">
<path d="M7.39648 21.4289H29.5535V4.00586H7.39648V21.4289Z" fill="white"/>
</mask>
<g mask="url(#mask3_280_1519)">
<path fill-rule="evenodd" clip-rule="evenodd" d="M29.5536 10.9279C29.5536 14.7509 26.4886 17.8499 22.7066 17.8499C21.1688 17.8515 19.6762 17.3295 18.4746 16.3699C19.2925 15.7185 19.9527 14.8907 20.4057 13.9484C20.8587 13.006 21.0928 11.9734 21.0906 10.9279C21.0928 9.88228 20.8587 8.84972 20.4057 7.90735C19.9527 6.96499 19.2925 6.13721 18.4746 5.48586C19.6762 4.5262 21.1688 4.00423 22.7066 4.00586C26.4886 4.00586 29.5536 7.10586 29.5536 10.9279ZM29.4906 15.2839V14.9489H29.4026L29.3026 15.1789L29.2016 14.9489H29.1146V15.2839H29.1756V15.0309L29.2706 15.2489H29.3346L29.4286 15.0309V15.2839H29.4906ZM28.9366 15.2839V15.0059H29.0486V14.9489H28.7626V15.0059H28.8756V15.2839H28.9366Z" fill="#F79E1B"/>
</g>
</svg>
