<svg width="36" height="24" viewBox="0 0 36 24" fill="none" xmlns="http://www.w3.org/2000/svg">
<g clip-path="url(#clip0_280_1575)">
<path d="M32 0H4C1.79086 0 0 1.79086 0 4V20C0 22.2091 1.79086 24 4 24H32C34.2091 24 36 22.2091 36 20V4C36 1.79086 34.2091 0 32 0Z" fill="white"/>
<path d="M6.59561 7.70117H4.26561C4.18764 7.70203 4.11256 7.73072 4.05388 7.78206C3.99521 7.8334 3.95681 7.90402 3.94561 7.98117L3.00261 14.1182C2.998 14.1463 2.99952 14.1751 3.00706 14.2026C3.01461 14.2301 3.028 14.2556 3.04633 14.2775C3.06465 14.2993 3.08748 14.3169 3.11324 14.3291C3.139 14.3413 3.1671 14.3478 3.19561 14.3482H4.30761C4.46761 14.3482 4.60261 14.2302 4.62761 14.0682L4.88161 12.4122C4.89261 12.3349 4.93096 12.2642 4.98967 12.2128C5.04839 12.1614 5.12359 12.1328 5.20161 12.1322H5.93861C7.47361 12.1322 8.3596 11.3692 8.5916 9.85717C8.6956 9.19617 8.5956 8.67617 8.2946 8.31217C7.9626 7.91217 7.37561 7.70117 6.59561 7.70117ZM6.86461 9.94217C6.73661 10.8012 6.09861 10.8012 5.48061 10.8012H5.12861L5.37561 9.19717C5.38229 9.15086 5.40532 9.10847 5.44053 9.07766C5.47574 9.04685 5.52082 9.02965 5.56761 9.02917H5.72761C6.14961 9.02917 6.54661 9.02917 6.75161 9.27517C6.87361 9.42217 6.91161 9.64117 6.86461 9.94217ZM13.5606 9.91517H12.4456C12.3988 9.91565 12.3537 9.93284 12.3185 9.96366C12.2833 9.99447 12.2603 10.0369 12.2536 10.0832L12.2036 10.4032L12.1256 10.2872C11.8846 9.92717 11.3456 9.80717 10.8076 9.80717C9.5746 9.80717 8.52161 10.7662 8.31661 12.1112C8.20961 12.7832 8.36161 13.4242 8.73261 13.8712C9.07261 14.2832 9.55861 14.4552 10.1376 14.4552C11.1316 14.4552 11.6826 13.7992 11.6826 13.7992L11.6326 14.1172C11.6279 14.1452 11.6292 14.174 11.6366 14.2014C11.6439 14.2289 11.6571 14.2545 11.6752 14.2764C11.6934 14.2983 11.716 14.3161 11.7416 14.3285C11.7672 14.3408 11.7952 14.3476 11.8236 14.3482H12.8296C12.9896 14.3482 13.1236 14.2292 13.1496 14.0682L13.7526 10.1452C13.7574 10.1171 13.756 10.0883 13.7486 10.0608C13.7412 10.0333 13.7279 10.0078 13.7096 9.98591C13.6914 9.96405 13.6686 9.94641 13.6429 9.93419C13.6171 9.92198 13.5891 9.91549 13.5606 9.91517ZM12.0056 12.1452C11.8976 12.8002 11.3916 13.2392 10.7466 13.2392C10.4226 13.2392 10.1636 13.1332 9.99661 12.9302C9.83261 12.7302 9.7696 12.4442 9.8226 12.1252C9.9226 11.4762 10.4376 11.0222 11.0726 11.0222C11.3896 11.0222 11.6476 11.1302 11.8166 11.3342C11.9866 11.5402 12.0546 11.8282 12.0056 12.1452ZM19.5036 9.91517H18.3826C18.3294 9.91553 18.277 9.92905 18.2303 9.95452C18.1835 9.98 18.1438 10.0166 18.1146 10.0612L16.5676 12.4012L15.9126 10.1512C15.8932 10.0837 15.8526 10.0243 15.7967 9.98177C15.7409 9.93925 15.6728 9.91589 15.6026 9.91517H14.4996C14.4684 9.91586 14.4377 9.92391 14.4101 9.93866C14.3826 9.9534 14.3589 9.97443 14.341 10C14.323 10.0257 14.3114 10.0551 14.307 10.0861C14.3026 10.117 14.3055 10.1486 14.3156 10.1782L15.5506 13.9012L14.3896 15.5842C14.2976 15.7172 14.3896 15.8992 14.5476 15.8992H15.6676C15.7202 15.8992 15.772 15.8862 15.8184 15.8615C15.8648 15.8367 15.9044 15.8009 15.9336 15.7572L19.6636 10.2272C19.7536 10.0962 19.6606 9.91517 19.5036 9.91517Z" fill="#283B82"/>
<path d="M23.2167 7.70117H20.8867C20.8087 7.70203 20.7337 7.73072 20.675 7.78206C20.6163 7.8334 20.5779 7.90402 20.5667 7.98117L19.6237 14.1182C19.6191 14.1462 19.6206 14.1749 19.6281 14.2024C19.6356 14.2298 19.6489 14.2553 19.6671 14.2771C19.6853 14.2989 19.708 14.3166 19.7337 14.3288C19.7593 14.3411 19.7873 14.3477 19.8157 14.3482H21.0117C21.0662 14.3475 21.1186 14.3274 21.1595 14.2914C21.2004 14.2555 21.2271 14.2061 21.2347 14.1522L21.5027 12.4122C21.5137 12.3349 21.5521 12.2642 21.6108 12.2128C21.6695 12.1614 21.7447 12.1328 21.8227 12.1322H22.5597C24.0947 12.1322 24.9797 11.3692 25.2117 9.85717C25.3167 9.19617 25.2157 8.67617 24.9147 8.31217C24.5837 7.91217 23.9967 7.70117 23.2167 7.70117ZM23.4857 9.94217C23.3587 10.8012 22.7197 10.8012 22.1017 10.8012H21.7497L21.9967 9.19717C22.0032 9.15078 22.0262 9.10827 22.0614 9.07742C22.0967 9.04657 22.1419 9.02944 22.1887 9.02917H22.3497C22.7697 9.02917 23.1677 9.02917 23.3727 9.27517C23.4947 9.42217 23.5327 9.64117 23.4857 9.94217ZM30.1817 9.91517H29.0667C29.0199 9.91544 28.9747 9.93257 28.9394 9.96342C28.9042 9.99427 28.8812 10.0368 28.8747 10.0832L28.8247 10.4032L28.7477 10.2872C28.5057 9.92717 27.9677 9.80717 27.4297 9.80717C26.1967 9.80717 25.1437 10.7662 24.9387 12.1112C24.8327 12.7832 24.9837 13.4242 25.3537 13.8712C25.6947 14.2832 26.1807 14.4552 26.7597 14.4552C27.7527 14.4552 28.3037 13.7992 28.3037 13.7992L28.2537 14.1172C28.2489 14.1454 28.2503 14.1743 28.2578 14.2019C28.2653 14.2295 28.2786 14.2552 28.297 14.2771C28.3153 14.2991 28.3382 14.3168 28.3641 14.3291C28.3899 14.3413 28.4181 14.3478 28.4467 14.3482H29.4507C29.6107 14.3482 29.7457 14.2292 29.7707 14.0682L30.3747 10.1452C30.3793 10.117 30.3778 10.0882 30.3702 10.0608C30.3627 10.0333 30.3493 10.0077 30.331 9.98588C30.3127 9.96404 30.2898 9.94642 30.2641 9.93422C30.2383 9.92201 30.2102 9.91552 30.1817 9.91517ZM28.6267 12.1452C28.5197 12.8002 28.0127 13.2392 27.3667 13.2392C27.0437 13.2392 26.7847 13.1332 26.6177 12.9302C26.4527 12.7302 26.3907 12.4442 26.4427 12.1252C26.5437 11.4762 27.0577 11.0222 27.6927 11.0222C28.0107 11.0222 28.2677 11.1302 28.4377 11.3342C28.6077 11.5402 28.6757 11.8282 28.6267 12.1452ZM31.4977 7.87017L30.5407 14.1182C30.5361 14.1462 30.5376 14.1749 30.5451 14.2024C30.5526 14.2298 30.5659 14.2553 30.5841 14.2771C30.6023 14.2989 30.625 14.3166 30.6507 14.3288C30.6763 14.3411 30.7043 14.3477 30.7327 14.3482H31.6937C31.8537 14.3482 31.9897 14.2302 32.0137 14.0682L32.9567 7.93117C32.9613 7.9032 32.9598 7.87457 32.9524 7.84722C32.945 7.81987 32.9317 7.79443 32.9136 7.77263C32.8955 7.75082 32.873 7.73316 32.8474 7.72083C32.8219 7.7085 32.794 7.7018 32.7657 7.70117H31.6887C31.6421 7.70188 31.5973 7.71919 31.5622 7.74998C31.5272 7.78077 31.5044 7.82403 31.4977 7.87017Z" fill="#469BDB"/>
</g>
<defs>
<clipPath id="clip0_280_1575">
<rect width="36" height="24" fill="white"/>
</clipPath>
</defs>
</svg>
