<svg width="141" height="20" viewBox="0 0 141 20" fill="none" xmlns="http://www.w3.org/2000/svg">
<mask id="mask0_280_2056" style="mask-type:luminance" maskUnits="userSpaceOnUse" x="0" y="0" width="141" height="20">
<path d="M141 0H0V19.6H141V0Z" fill="white"/>
</mask>
<g mask="url(#mask0_280_2056)">
<path d="M50.7 9.39961C50.7 6.59961 48.7 4.19961 45.6 4.19961C42.6 4.19961 40.5 6.59961 40.5 9.39961C40.5 12.1996 42.5 14.4996 45.6 14.4996C46.8 14.4996 47.9 14.0996 48.8 13.3996L50.1 14.5996L50.9 13.7996L49.6 12.6996C50.2 11.8996 50.7 10.6996 50.7 9.39961ZM48.6 12.0996L46.8 10.3996L46 11.1996L47.9 12.7996C47.3 13.2996 46.5 13.5996 45.6 13.5996C43.3 13.5996 41.7 11.6996 41.7 9.49961C41.7 7.19961 43.3 5.39961 45.6 5.39961C47.9 5.39961 49.5 7.29961 49.5 9.49961C49.5 10.3996 49.2 11.2996 48.6 12.0996ZM60.1 10.1996C60.1 12.3996 58.9 13.4996 57.1 13.4996C55.2 13.4996 54 12.2996 54 10.0996V4.39961H52.9V10.1996C52.9 12.9996 54.6 14.4996 57.1 14.4996C59.6 14.4996 61.3 12.9996 61.3 10.0996V4.39961H60.2V10.1996H60.1ZM127.7 13.5996C125.5 13.5996 123.8 11.7996 123.8 9.49961C123.8 7.19961 125.5 5.39961 127.7 5.39961C129.1 5.39961 130 5.99961 130.8 6.79961L131.6 5.99961C130.6 5.09961 129.5 4.39961 127.7 4.39961C124.8 4.39961 122.6 6.69961 122.6 9.59961C122.6 12.4996 124.7 14.6996 127.6 14.6996C129.4 14.6996 130.6 13.9996 131.6 12.8996L130.9 12.1996C130 12.9996 129.1 13.5996 127.7 13.5996ZM134.8 13.3996V9.89961H140.3V8.89961H134.8V5.49961H140.9V4.49961H133.7V14.4996H141V13.4996H134.8V13.3996ZM107.6 4.39961H103.9V14.3996H105V10.8996H107.4C109.5 10.8996 111.3 9.79961 111.3 7.59961C111.4 5.59961 109.9 4.39961 107.6 4.39961ZM110.2 7.69961C110.2 8.99961 109.1 9.89961 107.5 9.89961H105V5.49961H107.5C109.2 5.49961 110.2 6.19961 110.2 7.69961ZM35.3 8.89961C33.1 8.39961 32.6 7.89961 32.6 6.99961C32.6 6.09961 33.4 5.39961 34.7 5.39961C35.7 5.39961 36.7 5.69961 37.6 6.49961L38.3 5.59961C37.3 4.79961 36.2 4.39961 34.8 4.39961C32.9 4.39961 31.5 5.59961 31.5 7.09961C31.5 8.69961 32.6 9.49961 34.9 9.99961C37 10.3996 37.5 10.9996 37.5 11.8996C37.5 12.8996 36.6 13.5996 35.3 13.5996C33.9 13.5996 32.9 13.0996 31.9 12.1996L31.2 12.9996C32.4 14.0996 33.7 14.5996 35.3 14.5996C37.3 14.5996 38.7 13.4996 38.7 11.7996C38.6 10.1996 37.6 9.39961 35.3 8.89961ZM86.3 9.89961H91.8V8.89961H86.3V5.49961H92.4V4.49961H85.2V14.4996H92.5V13.4996H86.3V9.89961ZM98.3 8.89961C96.1 8.39961 95.6 7.89961 95.6 6.99961C95.6 6.09961 96.4 5.39961 97.7 5.39961C98.7 5.39961 99.7 5.69961 100.6 6.49961L101.3 5.59961C100.3 4.79961 99.2 4.39961 97.8 4.39961C95.9 4.39961 94.5 5.59961 94.5 7.09961C94.5 8.69961 95.6 9.49961 97.9 9.99961C100 10.3996 100.5 10.9996 100.5 11.8996C100.5 12.8996 99.6 13.5996 98.3 13.5996C96.9 13.5996 95.9 13.0996 94.9 12.1996L94.2 12.9996C95.4 14.0996 96.7 14.5996 98.3 14.5996C100.3 14.5996 101.7 13.4996 101.7 11.7996C101.6 10.1996 100.6 9.39961 98.3 8.89961ZM67.2 4.39961L62.6 14.4996H63.8L65 11.8996H70.4L71.6 14.4996H72.8L68.2 4.39961H67.2ZM65.5 10.7996L67.8 5.69961L70.1 10.7996H65.5ZM116.1 4.39961L111.5 14.4996H112.7L113.9 11.8996H119.3L120.5 14.4996H121.7L117.1 4.39961H116.1ZM114.4 10.7996L116.7 5.69961L119 10.7996H114.4ZM82.7 7.39961C82.7 6.59961 82.4 5.89961 81.9 5.39961C81.3 4.79961 80.3 4.39961 79.1 4.39961H74.8V14.3996H75.9V10.4996H78.8L81.7 14.3996H83.1L80 10.2996C81.6 10.0996 82.7 9.09961 82.7 7.39961ZM76 9.49961V5.39961H79.1C80.7 5.39961 81.7 6.09961 81.7 7.39961C81.7 8.69961 80.6 9.49961 79.1 9.49961H76ZM3.90001 10.6996C4.40001 11.1996 5.10002 11.1996 5.60002 10.6996L13.2 3.09961C14.1 2.19961 15.6 2.19961 16.6 3.09961C17.1 3.59961 17.8 3.59961 18.3 3.09961C18.8 2.59961 18.8 1.89961 18.3 1.39961C16.4 -0.500391 13.4 -0.500391 11.6 1.39961L4.00001 8.99961C3.50001 9.39961 3.50001 10.1996 3.90001 10.6996ZM15.7 5.59961C16.2 5.09961 16.2 4.39961 15.7 3.89961C15.2 3.39961 14.5 3.39961 14 3.89961L6.40001 11.4996C5.50001 12.3996 4.00001 12.3996 3.00001 11.4996C2.10001 10.5996 2.10001 9.09961 3.00001 8.09961L10.4 0.699609C9.50001 -0.200391 8.00001 -0.200391 7.00001 0.699609L1.3 6.39961C-0.6 8.29961 -0.6 11.2996 1.3 13.0996C3.2 14.9996 6.20001 14.9996 8.00001 13.0996L15.7 5.59961ZM16.5 6.39961L9.00001 13.9996C8.50001 14.4996 8.50001 15.1996 9.00001 15.6996C9.50001 16.1996 10.2 16.1996 10.7 15.6996L18.3 8.09961C19.2 7.19961 20.7 7.19961 21.7 8.09961C22.6 8.99961 22.6 10.4996 21.7 11.4996L14.3 18.8996C15.2 19.7996 16.7 19.7996 17.7 18.8996L23.4 13.1996C25.3 11.2996 25.3 8.29961 23.4 6.49961C21.4 4.59961 18.4 4.59961 16.5 6.39961ZM20.8 8.99961C20.3 8.49961 19.6 8.49961 19.1 8.99961L11.5 16.5996C10.6 17.4996 9.10002 17.4996 8.10002 16.5996C7.60002 16.0996 6.90001 16.0996 6.40001 16.5996C5.90001 17.0996 5.90001 17.7996 6.40001 18.2996C8.30001 20.1996 11.3 20.1996 13.1 18.2996L20.7 10.6996C21.2 10.1996 21.2 9.39961 20.8 8.99961Z" fill="#231F20"/>
</g>
</svg>
