<svg width="13" height="13" viewBox="0 0 13 13" fill="none" xmlns="http://www.w3.org/2000/svg">
<path d="M5.5773 2.98015C6.02017 1.87606 6.24161 1.32402 6.60137 1.24751C6.69597 1.22739 6.79374 1.22739 6.88834 1.24751C7.2481 1.32402 7.46954 1.87606 7.91241 2.98015C8.16427 3.60802 8.29019 3.92196 8.52582 4.13548C8.59191 4.19537 8.66366 4.24872 8.74005 4.29476C9.01239 4.4589 9.35236 4.48935 10.0323 4.55024C11.1834 4.65333 11.7589 4.70487 11.9346 5.03302C11.971 5.10098 11.9958 5.17456 12.0078 5.25071C12.0661 5.61837 11.643 6.0033 10.7968 6.77315L10.5618 6.98693C10.1662 7.34685 9.96844 7.52681 9.85403 7.7514C9.78539 7.88612 9.73938 8.03121 9.71781 8.18086C9.68187 8.43034 9.73979 8.6914 9.85564 9.21354L9.89703 9.40009C10.1048 10.3365 10.2087 10.8046 10.079 11.0348C9.96251 11.2415 9.74797 11.3738 9.51097 11.3851C9.24712 11.3977 8.87535 11.0948 8.13181 10.4889C7.64193 10.0898 7.397 9.89016 7.12509 9.8122C6.87661 9.74095 6.6131 9.74095 6.36462 9.8122C6.09271 9.89016 5.84777 10.0898 5.3579 10.4889C4.61436 11.0948 4.24259 11.3977 3.97874 11.3851C3.74174 11.3738 3.5272 11.2415 3.41072 11.0348C3.28105 10.8046 3.38493 10.3365 3.59268 9.40009L3.63407 9.21354C3.74992 8.6914 3.80784 8.43034 3.77189 8.18086C3.75033 8.03121 3.70431 7.88612 3.63568 7.7514C3.52127 7.52681 3.32347 7.34685 2.92786 6.98693L2.69288 6.77315C1.84669 6.0033 1.4236 5.61837 1.48187 5.25071C1.49393 5.17456 1.51868 5.10098 1.55508 5.03302C1.73083 4.70487 2.30635 4.65333 3.45739 4.55024C4.13734 4.48935 4.47732 4.4589 4.74966 4.29476C4.82605 4.24872 4.89779 4.19537 4.96389 4.13548C5.19952 3.92196 5.32544 3.60802 5.5773 2.98015Z" fill="#46B99E" stroke="#46B99E" stroke-width="1.37951"/>
</svg>
