<svg xmlns:xlink="http://www.w3.org/1999/xlink" xmlns="http://www.w3.org/2000/svg" width="16" height="17" viewBox="0 0 16 17" fill="none">
<g clip-path="url(#clip0_14757_8724)">
<path d="M8 16.5C12.4183 16.5 16 12.9183 16 8.5C16 4.08172 12.4183 0.5 8 0.5C3.58172 0.5 0 4.08172 0 8.5C0 12.9183 3.58172 16.5 8 16.5Z" fill="#F0F0F0"/>
<path d="M1.65355 3.62866C1.02514 4.44626 0.551297 5.3886 0.275391 6.41232H4.4372L1.65355 3.62866Z" fill="#0052B4"/>
<path d="M15.7243 6.41241C15.4483 5.38872 14.9745 4.44638 14.3461 3.62878L11.5625 6.41241H15.7243Z" fill="#0052B4"/>
<path d="M0.275391 10.5868C0.551328 11.6105 1.02517 12.5528 1.65355 13.3704L4.43711 10.5868H0.275391Z" fill="#0052B4"/>
<path d="M12.8705 2.15321C12.0529 1.52481 11.1106 1.05096 10.0869 0.775024V4.93681L12.8705 2.15321Z" fill="#0052B4"/>
<path d="M3.12891 14.8452C3.9465 15.4736 4.88885 15.9475 5.91253 16.2234V12.0616L3.12891 14.8452Z" fill="#0052B4"/>
<path d="M5.9125 0.775024C4.88881 1.05096 3.94647 1.52481 3.12891 2.15318L5.9125 4.93677V0.775024Z" fill="#0052B4"/>
<path d="M10.0869 16.2234C11.1106 15.9475 12.0529 15.4736 12.8705 14.8452L10.0869 12.0616V16.2234Z" fill="#0052B4"/>
<path d="M11.5625 10.5868L14.3461 13.3704C14.9745 12.5528 15.4483 11.6105 15.7243 10.5868H11.5625Z" fill="#0052B4"/>
<path d="M15.9323 7.45653H9.04353H9.0435V0.567719C8.70191 0.52325 8.35366 0.5 8 0.5C7.64628 0.5 7.29809 0.52325 6.95653 0.567719V7.45647V7.4565H0.0677188C0.02325 7.79809 0 8.14634 0 8.5C0 8.85372 0.02325 9.20191 0.0677188 9.54347H6.95647H6.9565V16.4323C7.29809 16.4768 7.64628 16.5 8 16.5C8.35366 16.5 8.70191 16.4768 9.04347 16.4323V9.54353V9.5435H15.9323C15.9768 9.20191 16 8.85372 16 8.5C16 8.14634 15.9768 7.79809 15.9323 7.45653Z" fill="#D80027"/>
<path d="M10.0869 10.5876L13.6568 14.1574C13.821 13.9933 13.9776 13.8217 14.127 13.6438L11.0707 10.5875H10.0869V10.5876Z" fill="#D80027"/>
<path d="M5.91268 10.5875H5.91262L2.34277 14.1574C2.5069 14.3216 2.67849 14.4782 2.85637 14.6276L5.91268 11.5712V10.5875Z" fill="#D80027"/>
<path d="M5.91317 6.41274V6.41268L2.3433 2.84277C2.17911 3.0069 2.02248 3.17849 1.87305 3.35637L4.92939 6.41271H5.91317V6.41274Z" fill="#D80027"/>
<path d="M10.0869 6.41345L13.6568 2.84351C13.4927 2.67932 13.3211 2.5227 13.1432 2.37329L10.0869 5.42964V6.41345Z" fill="#D80027"/>
</g>
<defs>
<clipPath id="clip0_14757_8724">
<rect width="16" height="16" fill="white" transform="translate(0 0.5)"/>
</clipPath>
</defs>
</svg>