<svg width="16" height="18" viewBox="0 0 16 18" fill="none" xmlns="http://www.w3.org/2000/svg">
<mask id="mask0_310_57" style="mask-type:luminance" maskUnits="userSpaceOnUse" x="0" y="1" width="16" height="16">
<path d="M16 1H0V17H16V1Z" fill="white"/>
</mask>
<g mask="url(#mask0_310_57)">
<path d="M8 17C12.4183 17 16 13.4183 16 9C16 4.58172 12.4183 1 8 1C3.58172 1 0 4.58172 0 9C0 13.4183 3.58172 17 8 17Z" fill="#F0F0F0"/>
<path d="M7.65234 9.00102H16.0002C16.0002 8.27896 15.9039 7.57946 15.7246 6.91406H7.65234V9.00102Z" fill="#D80027"/>
<path d="M7.65234 4.82525H14.826C14.3362 4.02612 13.7101 3.31978 12.98 2.73828H7.65234V4.82525Z" fill="#D80027"/>
<path d="M7.99941 17.0008C9.88219 17.0008 11.6127 16.3501 12.9793 15.2617H3.01953C4.38609 16.3501 6.11662 17.0008 7.99941 17.0008Z" fill="#D80027"/>
<path d="M1.17398 13.1729H14.8256C15.2188 12.5313 15.5237 11.8301 15.7242 11.0859H0.275391C0.475922 11.8301 0.780828 12.5313 1.17398 13.1729Z" fill="#D80027"/>
<path d="M3.70575 2.24931H4.43478L3.75666 2.74197L4.01569 3.53912L3.33759 3.04647L2.6595 3.53912L2.88325 2.85047C2.28619 3.34781 1.76287 3.9305 1.33162 4.57975H1.56522L1.13356 4.89334C1.06631 5.00553 1.00181 5.1195 0.94 5.23516L1.14612 5.86956L0.761563 5.59016C0.665969 5.79269 0.578531 5.99978 0.499938 6.21119L0.727031 6.91019H1.56522L0.887094 7.40284L1.14612 8.2L0.468031 7.70734L0.0618437 8.00247C0.0211875 8.32928 0 8.66216 0 9H8C8 4.58175 8 4.06087 8 1C6.41963 1 4.94641 1.45844 3.70575 2.24931ZM4.01569 8.2L3.33759 7.70734L2.6595 8.2L2.91853 7.40284L2.24041 6.91019H3.07859L3.33759 6.11303L3.59659 6.91019H4.43478L3.75666 7.40284L4.01569 8.2ZM3.75666 5.07241L4.01569 5.86956L3.33759 5.37691L2.6595 5.86956L2.91853 5.07241L2.24041 4.57975H3.07859L3.33759 3.78259L3.59659 4.57975H4.43478L3.75666 5.07241ZM6.88525 8.2L6.20716 7.70734L5.52906 8.2L5.78809 7.40284L5.10997 6.91019H5.94816L6.20716 6.11303L6.46616 6.91019H7.30434L6.62622 7.40284L6.88525 8.2ZM6.62622 5.07241L6.88525 5.86956L6.20716 5.37691L5.52906 5.86956L5.78809 5.07241L5.10997 4.57975H5.94816L6.20716 3.78259L6.46616 4.57975H7.30434L6.62622 5.07241ZM6.62622 2.74197L6.88525 3.53912L6.20716 3.04647L5.52906 3.53912L5.78809 2.74197L5.10997 2.24931H5.94816L6.20716 1.45216L6.46616 2.24931H7.30434L6.62622 2.74197Z" fill="#0052B4"/>
</g>
</svg>
