<svg width="25" height="25" viewBox="0 0 25 25" fill="none" xmlns="http://www.w3.org/2000/svg">
<path d="M12.5641 23.0775C18.5118 23.0775 23.3334 18.256 23.3334 12.3083C23.3334 6.36061 18.5118 1.53906 12.5641 1.53906C6.61647 1.53906 1.79492 6.36061 1.79492 12.3083C1.79492 18.256 6.61647 23.0775 12.5641 23.0775Z" fill="black"/>
<mask id="mask0_280_1204" style="mask-type:alpha" maskUnits="userSpaceOnUse" x="4" y="4" width="17" height="17">
<path d="M20.9129 4.08594H4.08594V20.9129H20.9129V4.08594Z" fill="#D9D9D9"/>
</mask>
<g mask="url(#mask0_280_1204)">
<path d="M9.69531 16.3025V8.6252C9.69531 8.44992 9.75375 8.3087 9.87059 8.20155C9.98747 8.09452 10.1238 8.04102 10.2795 8.04102C10.3303 8.04102 10.3819 8.0478 10.4345 8.06133C10.4871 8.07502 10.5387 8.09545 10.5893 8.12267L16.6307 11.9731C16.7202 12.0354 16.7873 12.1074 16.8322 12.1892C16.877 12.271 16.8993 12.3625 16.8993 12.4639C16.8993 12.5652 16.877 12.6567 16.8322 12.7385C16.7873 12.8203 16.7202 12.8924 16.6307 12.9546L10.5893 16.805C10.5387 16.8323 10.4871 16.8527 10.4345 16.8664C10.3819 16.8799 10.3303 16.8867 10.2795 16.8867C10.1238 16.8867 9.98747 16.8332 9.87059 16.7261C9.75375 16.619 9.69531 16.4778 9.69531 16.3025Z" fill="white"/>
</g>
</svg>
