<svg width="107" height="27" viewBox="0 0 107 27" fill="none" xmlns="http://www.w3.org/2000/svg">
<mask id="mask0_280_2046" style="mask-type:luminance" maskUnits="userSpaceOnUse" x="0" y="0" width="107" height="27">
<path d="M106.6 0H0.400391V26.3H106.6V0Z" fill="white"/>
</mask>
<g mask="url(#mask0_280_2046)">
<path d="M34.7004 10.3C34.7004 8.4 32.8004 6.39999 29.6004 6.39999C26.0004 6.39999 22.0004 9 21.4004 14.2C20.8004 19.4 24.1004 21.8 27.4004 21.8C30.7004 21.8 32.5004 20.5 34.3004 18.8C32.8004 16.9 30.8004 17.8 30.4004 18C30.0004 18.2 29.4004 18.5 28.3004 18.5C27.0004 18.5 25.7004 17.9 25.7004 15.6C34.1004 14.8 34.7004 12.2 34.7004 10.3ZM30.6004 10.6C30.5004 11.2 30.3004 12.2 26.1004 12.7C27.0004 9.6 28.7004 9.39999 29.4004 9.39999C30.2004 9.49999 30.7004 10 30.6004 10.6ZM16.6004 11.1C16.6004 11.1 14.8004 16.6 14.7004 17C14.6004 16.5 13.3004 6.7 13.3004 6.7C10.3004 6.7 8.70039 8.80001 7.80039 11.1C7.80039 11.1 5.60039 16.6 5.50039 17.1C5.50039 16.7 5.20039 11.2 5.20039 11.2C5.00039 8.5 2.50039 6.8 0.400391 6.8L2.90039 21.7C6.10039 21.7 7.80039 19.6 8.70039 17.3C8.70039 17.3 10.6004 12.4 10.7004 12.2C10.7004 12.4 12.1004 21.6 12.1004 21.6C15.3004 21.6 17.0004 19.6 17.9004 17.5L22.4004 6.7C19.1004 6.8 17.5004 8.90001 16.6004 11.1ZM46.4004 6.39999C44.4004 6.39999 42.9004 7.4 41.7004 9L42.8004 0C40.2004 0 38.1004 2.2 37.7004 5.5L35.7004 21.5C37.2004 21.5 38.8004 21.1 39.6004 20C40.4004 21 41.5004 21.7 43.2004 21.7C47.6004 21.7 50.6004 16.7 50.6004 12C50.6004 7.8 48.5004 6.39999 46.4004 6.39999ZM46.0004 14.1C45.5004 16.7 44.1004 18.5 42.6004 18.5C41.2004 18.5 40.5004 17.9 40.5004 17.9C40.8004 15.6 40.9004 14.2 41.5004 13C42.0004 11.8 43.3004 9.8 44.6004 9.8C45.8004 9.8 46.4004 11.5 46.0004 14.1ZM61.6 6.8H58.5004V6.60001C58.7004 4.60001 59.2004 3.59999 60.7 3.39999C61.8 3.29999 62.2 2.8 62.4 2.2C62.5 1.7 62.8 0.100006 62.8 0.100006C56.7004 0.100006 54.7004 2.7 54.2004 6.7V6.8H54.1004C53.1004 6.8 52.0004 7.9 51.8004 9.3L51.7004 9.8H53.7004L52.0004 23.8L51.5004 26.3C51.6004 26.3 51.6004 26.3 51.7004 26.3C54.6004 26.2 56.4004 24 56.8004 20.7L58.1004 9.8H59.1004C60 9.8 61.2 8.9 61.3 7.3L61.6 6.8ZM77.5 6.5C74 6.5 70.6 9.10001 69.6 13.1C68.6 17.1 70.1 21.9 75.3 21.9C80.5 21.9 83.5 16.9 83.5 12.8C83.5 8.7 80.7 6.5 77.5 6.5ZM78.9 14C78.7 15.8 77.9 18.6 75.7 18.6C73.5 18.6 73.8 15.4 74 13.8C74.2 12.2 75.2 9.8 77.2 9.8C79 9.8 79.1 11.9 78.9 14ZM101 11.1C101 11.1 99.2 16.6 99.1 17C99 16.5 97.7 6.7 97.7 6.7C94.7 6.7 93.1 8.80001 92.2 11.1C92.2 11.1 90 16.6 89.9 17.1C89.9 16.7 89.6 11.2 89.6 11.2C89.4 8.5 86.9 6.8 84.8 6.8L87.3 21.7C90.5 21.7 92.2 19.6 93.1 17.3C93.1 17.3 95 12.4 95.1 12.2C95.1 12.4 96.5 21.6 96.5 21.6C99.7 21.6 101.4 19.6 102.3 17.5L106.8 6.7C103.5 6.8 101.8 8.90001 101 11.1ZM64.5 0.100006L61.9 20.6L61.4 23.1C61.5 23.1 61.5 23.1 61.6 23.1C64.4 23.1 66.3 20.7 66.7 17.7L68.2 6C68.6 2.4 66.4 0.100006 64.5 0.100006Z" fill="#4353FF"/>
</g>
</svg>
