<svg width="60" height="24" viewBox="0 0 60 24" fill="none" xmlns="http://www.w3.org/2000/svg">
<path fill-rule="evenodd" clip-rule="evenodd" d="M34.0992 0.900391C32.8992 1.50039 32.4992 2.50039 32.4992 5.30039C32.4992 5.30039 33.0992 4.70039 33.9992 4.40039C34.5992 4.20039 35.1992 3.80039 35.4992 3.60039C36.4992 2.90039 36.5992 2.00039 36.5992 0.400391C36.5992 0.500391 34.9992 0.500391 34.0992 0.900391ZM27.0992 1.60039C26.0992 2.40039 25.8992 3.70039 25.8992 3.70039L22.6992 15.7004L20.0992 5.90039C19.7992 4.90039 19.3992 3.60039 18.5992 2.70039C17.6992 1.60039 15.7992 1.50039 15.5992 1.50039C15.3992 1.50039 13.4992 1.60039 12.5992 2.70039C11.8992 3.60039 11.3992 4.90039 11.0992 5.90039L8.49921 15.7004L5.29919 3.70039C5.29919 3.70039 4.99918 2.40039 4.09918 1.60039C2.49918 0.30039 0.199219 0.500391 0.199219 0.500391L6.29919 23.0004C6.29919 23.0004 8.29919 23.1004 9.29919 22.6004C10.5992 21.9004 11.1992 21.4004 11.9992 18.4004C12.6992 15.7004 14.6992 7.70039 14.8992 7.10039C14.9992 6.80039 15.0992 6.10039 15.5992 6.10039C16.0992 6.10039 16.1992 6.80039 16.2992 7.10039C16.4992 7.70039 18.4992 15.7004 19.1992 18.4004C19.9992 21.5004 20.5992 22.0004 21.8992 22.6004C22.8992 23.1004 24.8992 23.0004 24.8992 23.0004L30.9992 0.500391C30.9992 0.500391 28.6992 0.20039 27.0992 1.60039ZM36.5992 4.20039C36.5992 4.20039 36.1992 4.80039 35.3992 5.20039C34.7992 5.50039 34.2992 5.70039 33.6992 6.00039C32.6992 6.50039 32.4992 7.00039 32.4992 7.70039V8.00039V9.20039V9.50039V23.0004C32.4992 23.0004 33.9992 23.2004 34.9992 22.7004C36.2992 22.1004 36.5992 21.4004 36.5992 18.6004V5.00039V4.20039ZM51.6992 11.8004L59.3992 0.600389C59.3992 0.600389 56.1992 0.100391 54.4992 1.50039C53.4992 2.40039 52.2992 4.10039 52.2992 4.10039L49.4992 8.10039C49.3992 8.30039 49.1992 8.50039 48.8992 8.50039C48.5992 8.50039 48.3992 8.30039 48.2992 8.10039L45.4992 4.10039C45.4992 4.10039 44.2992 2.40039 43.2992 1.50039C41.6992 0.100391 38.3992 0.600389 38.3992 0.600389L46.0992 11.8004L38.4992 23.0004C38.4992 23.0004 41.8992 23.4004 43.4992 22.0004C44.4992 21.1004 45.4992 19.6004 45.4992 19.6004L48.2992 15.6004C48.3992 15.4004 48.5992 15.2004 48.8992 15.2004C49.1992 15.2004 49.3992 15.4004 49.4992 15.6004L52.2992 19.6004C52.2992 19.6004 53.3992 21.1004 54.3992 22.0004C55.9992 23.4004 59.2992 23.0004 59.2992 23.0004L51.6992 11.8004Z" fill="black"/>
</svg>
