<svg width="22" height="16" viewBox="0 0 22 16" fill="none" xmlns="http://www.w3.org/2000/svg">
<path d="M21.7164 4.13086C21.7164 4.13086 21.5118 2.68629 20.8815 2.05199C20.0835 1.21717 19.1914 1.21308 18.7822 1.16397C15.8521 0.951172 11.4529 0.951172 11.4529 0.951172H11.4448C11.4448 0.951172 7.04558 0.951172 4.11551 1.16397C3.70629 1.21308 2.81417 1.21717 2.01618 2.05199C1.38597 2.68629 1.18545 4.13086 1.18545 4.13086C1.18545 4.13086 0.972656 5.82915 0.972656 7.52335V9.11112C0.972656 10.8053 1.18136 12.5036 1.18136 12.5036C1.18136 12.5036 1.38597 13.9482 2.01209 14.5825C2.81009 15.4174 3.8577 15.3887 4.32422 15.4787C6.00205 15.6383 11.4488 15.6874 11.4488 15.6874C11.4488 15.6874 15.8521 15.6793 18.7822 15.4705C19.1914 15.4215 20.0835 15.4174 20.8815 14.5825C21.5118 13.9482 21.7164 12.5036 21.7164 12.5036C21.7164 12.5036 21.925 10.8094 21.925 9.11112V7.52335C21.925 5.82915 21.7164 4.13086 21.7164 4.13086ZM9.28404 11.0386V5.14983L14.9436 8.10446L9.28404 11.0386Z" fill="white"/>
</svg>
